<svg xmlns="http://www.w3.org/2000/svg" width="25" height="25" fill="none" viewBox="0 0 25 25"><path fill="#fff" d="M12.43.074c6.627 0 12 5.373 12 12 0 6.628-5.373 12-12 12-6.628 0-12-5.372-12-12 0-6.627 5.372-12 12-12m-.725 7.346q-.768 0-1.371.275a2.2 2.2 0 0 0-.943.809q-.346.527-.346 1.289 0 .645.34 1.148.32.46.86.735a2.5 2.5 0 0 0-.579.355 2.25 2.25 0 0 0-.598.744q-.21.435-.21.967 0 .796.374 1.348.381.545 1.026.826.65.275 1.459.275.814 0 1.453-.275.645-.281 1.014-.826.375-.551.375-1.348 0-.71-.37-1.236a2.4 2.4 0 0 0-1.02-.826q.546-.276.862-.739.34-.503.34-1.148 0-.762-.34-1.29a2.15 2.15 0 0 0-.943-.808q-.603-.275-1.383-.275m-5.853.1L2.418 8.756v1.254l2.057-.68v6.744h1.552V7.52zm11.83 1.488v2.35h-2.186v1.376h2.186v2.485h1.482v-2.485h2.18v-1.377h-2.18v-2.35zm-5.977 3.299q.387 0 .68.164t.45.469q.165.299.165.708 0 .417-.158.715a1.07 1.07 0 0 1-.44.452 1.4 1.4 0 0 1-.685.158q-.399 0-.692-.159a1.13 1.13 0 0 1-.457-.45 1.5 1.5 0 0 1-.158-.716q0-.41.158-.708.165-.306.452-.47a1.4 1.4 0 0 1 .685-.163m0-3.662q.352 0 .598.152.252.152.386.428.135.27.135.632 0 .37-.134.645-.135.275-.381.433a1.1 1.1 0 0 1-.592.153q-.346 0-.598-.152a1.05 1.05 0 0 1-.38-.434 1.45 1.45 0 0 1-.136-.645q0-.374.135-.644a1 1 0 0 1 .381-.422q.246-.146.586-.146"/></svg>