<svg xmlns="http://www.w3.org/2000/svg" width="24" height="25" fill="none" viewBox="0 0 24 25"><g clip-path="url(#a)"><path fill="#fc5151" d="M14.062 8.648c1.247 4.404 3.24 8.753 5.963 12.935.291.447-.185.993-.669.764q-1.33-.633-2.65-1.288a45 45 0 0 0-.04 2.717c.007.52-.659.738-.957.312-2.949-4.192-5.153-8.57-6.589-13.018z"/><path fill="#fc5151" d="M9.938 8.648c-1.247 4.404-3.24 8.753-5.963 12.935-.291.447.185.993.669.764q1.342-.639 2.65-1.288a45 45 0 0 1 .04 2.717c-.007.52.659.738.957.312 2.949-4.192 5.153-8.57 6.589-13.018z"/><path fill="#fc3" d="M12 18.31a8.647 8.647 0 1 0 0-17.294 8.647 8.647 0 0 0 0 17.294"/><path fill="#edb529" d="M12 16.434a6.77 6.77 0 1 0 0-13.542 6.77 6.77 0 0 0 0 13.542"/><path fill="#fc3" d="m12 5.077 1.03 3.171h3.33l-2.694 1.957 1.029 3.17L12 11.416l-2.695 1.96 1.03-3.17L7.64 8.248h3.33z"/></g><defs><clipPath id="a"><path fill="#fff" d="M0 .667h24v24H0z"/></clipPath></defs></svg>