<svg width="29" height="30" viewBox="0 0 29 30" fill="none" xmlns="http://www.w3.org/2000/svg">
<path d="M14.2088 28.7732C13.9605 28.7893 13.7126 28.7369 13.492 28.6217C13.445 28.5924 13.3951 28.5678 13.3431 28.5485C12.6276 28.2506 11.9415 27.8864 11.2938 27.4608C10.9934 27.2765 10.6805 27.0873 10.365 26.9106C9.48502 26.4058 8.60757 25.9011 7.73264 25.3963L7.34902 25.1767C6.36473 24.6097 5.38043 24.0393 4.39614 23.4655L4.12608 23.3091C3.8737 23.1602 3.62132 23.0188 3.38156 22.8649C2.90747 22.5775 2.51891 22.1685 2.25619 21.6804C1.99347 21.1922 1.86615 20.6426 1.88744 20.0887C1.88744 16.7673 1.87483 13.2314 1.88744 9.68289C1.88744 8.35788 2.48559 7.38368 3.70713 6.70982C4.5198 6.25805 5.32995 5.78105 6.11487 5.31919L7.30359 4.62261L8.62608 3.86546L10.4306 2.82312L10.7915 2.61364C11.3417 2.29816 11.9096 1.97006 12.4623 1.62934C12.954 1.30708 13.5276 1.13196 14.1154 1.12457C14.5752 1.13062 15.0291 1.22844 15.4505 1.41229C16.0635 1.68843 16.6541 2.01161 17.2172 2.37892C17.5529 2.58587 17.9012 2.8004 18.257 2.99473C18.9688 3.3834 19.683 3.80236 20.3745 4.2087L21.2604 4.72608L22.3103 5.32676C23.1659 5.81386 24.0467 6.31862 24.8972 6.84106C25.9976 7.5124 26.5302 8.48407 26.5251 9.81161C26.5251 11.4336 26.5251 13.0564 26.5251 14.6801C26.5251 16.4594 26.5251 18.2387 26.5251 20.018C26.5475 20.5048 26.4587 20.9903 26.2654 21.4377C26.0721 21.8851 25.7794 22.2825 25.4096 22.5999C25.3161 22.6836 25.2147 22.758 25.1067 22.822C23.2492 23.9173 21.7475 24.7981 20.3745 25.5982C19.0016 26.3982 17.5024 27.2563 15.8518 28.1902C15.6309 28.3091 15.4034 28.4152 15.1704 28.5082L15.0543 28.5561C14.7944 28.6873 14.5097 28.7621 14.2189 28.7757L14.2088 28.7732Z" fill="#07192B"/>
<path d="M14.115 1.63201C14.5083 1.63932 14.8962 1.72513 15.2558 1.88439C15.844 2.15035 16.411 2.46084 16.9518 2.81316C17.2925 3.02516 17.6434 3.24221 18.0144 3.44412C18.716 3.82774 19.4277 4.24418 20.1142 4.64799L21.0051 5.1679C21.3559 5.37233 21.7067 5.57171 22.0601 5.77109C22.9081 6.25567 23.7889 6.75791 24.6293 7.27277C25.5808 7.85326 26.02 8.66088 26.0174 9.81428C26.0174 11.4346 26.0174 13.0826 26.0174 14.6777C26.0174 16.4292 26.0174 18.2388 26.0174 20.0207C26.0382 20.4337 25.9646 20.8461 25.8024 21.2265C25.6402 21.6069 25.3935 21.9454 25.0811 22.2164C25.008 22.281 24.9294 22.3393 24.8464 22.3905C22.9939 23.4834 21.4922 24.3642 20.1192 25.1668C18.7463 25.9693 17.2496 26.8224 15.5991 27.7587C15.3955 27.8653 15.1866 27.9613 14.9731 28.0465L14.8495 28.0995C14.6555 28.1984 14.4434 28.2567 14.2261 28.2711C14.0733 28.286 13.9194 28.2608 13.7794 28.1979C13.7037 28.1504 13.6233 28.1106 13.5396 28.0793C12.8532 27.7919 12.195 27.4413 11.5735 27.0319C11.2682 26.8476 10.9552 26.6558 10.6296 26.4716C9.75386 25.9794 8.86294 25.462 8.00484 24.9749L7.61869 24.7503C6.70002 24.2228 5.73591 23.6626 4.67085 23.0442L4.39575 22.8852C4.14337 22.7388 3.89099 22.6 3.67647 22.4562C3.27173 22.2132 2.94056 21.8648 2.71831 21.4483C2.49607 21.0318 2.39108 20.5628 2.41455 20.0913C2.41455 16.775 2.40193 13.2416 2.41455 9.68809C2.41455 8.54731 2.91932 7.74221 3.97428 7.16425C4.792 6.70996 5.60467 6.23043 6.39211 5.76857C6.78582 5.5347 7.18123 5.3025 7.57831 5.07199L8.90332 4.31484L10.7053 3.2725L11.0663 3.06554C11.619 2.74502 12.1894 2.41692 12.7496 2.07368C13.1626 1.80316 13.6441 1.65607 14.1378 1.64967M14.1378 0.64014C13.4572 0.646696 12.7923 0.845286 12.2196 1.21305C11.5533 1.62191 10.8744 2.00806 10.2006 2.39925L7.04831 4.1937C5.85201 4.88775 4.66833 5.60452 3.45941 6.27586C2.10916 7.03301 1.38482 8.14602 1.37978 9.68809C1.36463 13.1558 1.37978 16.6261 1.37978 20.0964C1.35824 20.7359 1.50666 21.3698 1.80992 21.9333C2.11318 22.4968 2.56043 22.9698 3.10608 23.3042C3.44427 23.5212 3.79509 23.7156 4.14085 23.9175C5.12515 24.4895 6.11028 25.0599 7.09626 25.6286C8.10579 26.2066 9.11533 26.7871 10.1249 27.3549C11.1344 27.9228 12.0783 28.6168 13.1736 29.0257C13.1931 29.0329 13.2117 29.0422 13.2292 29.0535C13.5299 29.2215 13.872 29.3011 14.216 29.2831C14.5722 29.2711 14.922 29.1851 15.2432 29.0307C15.5342 28.9174 15.8182 28.7867 16.0937 28.6395C17.608 27.7814 19.1164 26.9166 20.619 26.045C22.2022 25.1264 23.7805 24.201 25.3537 23.2688C25.4868 23.1883 25.6127 23.0963 25.7297 22.9937C26.1541 22.6289 26.4907 22.1729 26.7145 21.6599C26.9382 21.1469 27.0433 20.59 27.0219 20.0308C27.0345 16.6286 27.0219 13.2164 27.0219 9.82437C27.053 9.13984 26.8949 8.45999 26.565 7.8594C26.2351 7.25882 25.7461 6.7607 25.1518 6.41972C23.9529 5.68529 22.7213 5.00385 21.5048 4.30222C20.4953 3.72174 19.511 3.12107 18.4939 2.56583C17.5374 2.04087 16.654 1.38467 15.642 0.960668C15.1582 0.750366 14.6374 0.638816 14.11 0.632568L14.1378 0.64014Z" fill="#1FE588"/>
<path d="M14.1422 21.492C12.8802 21.492 11.636 21.5172 10.3817 21.492C8.77902 21.4541 7.57515 20.6944 6.72714 19.3492C6.32633 18.6973 6.11485 17.9466 6.11637 17.1813C6.06257 16.0587 6.28166 14.9398 6.7549 13.9205C6.84576 13.7413 6.90886 13.5469 7.00729 13.3728C7.10172 13.2227 7.15493 13.0503 7.16158 12.8731C7.16822 12.6959 7.12806 12.52 7.04514 12.3633C6.85825 11.9368 6.77633 11.4718 6.80624 11.0071C6.83615 10.5425 6.97703 10.0918 7.21705 9.69279C7.45708 9.29381 7.78926 8.9582 8.18575 8.71409C8.58224 8.46998 9.03147 8.32448 9.49579 8.2898C9.87527 8.24781 10.2593 8.28586 10.6232 8.4015C10.9871 8.51713 11.3226 8.70778 11.6082 8.96114C11.7232 9.07785 11.8683 9.1604 12.0273 9.1996C12.1864 9.23881 12.3532 9.23315 12.5092 9.18324C13.5587 8.93214 14.6525 8.93214 15.7019 9.18324C15.8711 9.22864 16.0491 9.22925 16.2186 9.185C16.3881 9.14075 16.5431 9.05316 16.6685 8.93085C17.168 8.50705 17.7985 8.26879 18.4534 8.25637C19.1082 8.24395 19.7473 8.45815 20.2625 8.86271C20.79 9.25068 21.1689 9.80757 21.336 10.4408C21.5032 11.0739 21.4485 11.7453 21.1811 12.3431C21.0979 12.4968 21.056 12.6695 21.0596 12.8442C21.0631 13.019 21.1119 13.1898 21.2013 13.34C21.7992 14.4225 22.1183 15.6368 22.1301 16.8734C22.2008 19.6218 20.111 21.4541 17.8901 21.4869C16.6281 21.5046 15.3839 21.4869 14.1321 21.4869L14.1422 21.492ZM15.9316 16.0556C15.9316 16.2323 15.9316 16.4115 15.9316 16.5882C15.9619 17.4236 16.4363 17.9233 17.2566 17.9662C17.6348 17.9889 18.0141 17.9889 18.3923 17.9662C18.6395 17.9599 18.8792 17.8802 19.081 17.7373C19.2828 17.5943 19.4375 17.3947 19.5255 17.1636C19.6246 16.9489 19.6566 16.7093 19.6175 16.476C19.5783 16.2428 19.4697 16.0268 19.3059 15.8563C18.9077 15.4082 18.4865 14.9811 18.044 14.5767C17.8742 14.4104 17.6567 14.3013 17.4218 14.2646C17.187 14.228 16.9466 14.2656 16.7341 14.3722C16.5164 14.4627 16.3277 14.6113 16.1889 14.8019C16.05 14.9924 15.9662 15.2175 15.9467 15.4524C15.9316 15.6531 15.9265 15.8544 15.9316 16.0556ZM12.2619 16.0556C12.2619 15.8764 12.2619 15.6998 12.2619 15.5206C12.267 15.2744 12.1974 15.0323 12.0622 14.8265C11.9271 14.6206 11.7327 14.4605 11.5048 14.3672C11.2915 14.2637 11.0519 14.2274 10.8176 14.263C10.5833 14.2986 10.3652 14.4044 10.1924 14.5666C9.7396 14.9593 9.31771 15.3862 8.93045 15.8436C8.77474 16.0208 8.67115 16.2377 8.63116 16.4702C8.59118 16.7026 8.61637 16.9416 8.70393 17.1607C8.79149 17.3797 8.938 17.5702 9.12723 17.7111C9.31645 17.8519 9.54098 17.9376 9.77593 17.9586C10.2199 18.0028 10.6671 18.0028 11.111 17.9586C11.4264 17.9387 11.7224 17.7996 11.939 17.5695C12.1555 17.3393 12.2764 17.0354 12.2771 16.7194C12.272 16.4948 12.2619 16.2702 12.2619 16.0556ZM14.1876 18.6577H12.7894C12.6102 18.6577 12.4159 18.6577 12.3553 18.8798C12.3048 19.0615 12.4461 19.1625 12.5572 19.2685C12.9933 19.6555 13.5553 19.871 14.1384 19.8747C14.7215 19.8784 15.2861 19.6701 15.7271 19.2887C15.8584 19.1675 16.0073 19.0489 15.9164 18.8369C15.8256 18.6249 15.6792 18.6602 15.5227 18.6577H14.1876Z" fill="#1FE588"/>
</svg>
