<svg width="1900" height="863" viewBox="0 0 1900 863" fill="none" xmlns="http://www.w3.org/2000/svg">
<g clip-path="url(#clip0_41_26237)">
<g clip-path="url(#clip1_41_26237)" filter="url(#filter0_gn_41_26237)">
<rect width="1940" height="1392" transform="translate(-20 -8)" fill="#000033"/>
<g clip-path="url(#clip2_41_26237)">
<path d="M128.678 701.613C128.678 692.939 125.232 684.62 119.098 678.486L-20.2558 539.132L85.3433 539.132C94.0177 539.132 102.337 542.578 108.471 548.712L238.245 678.486C244.378 684.62 247.824 692.939 247.824 701.613L247.824 761.072C247.824 770.104 255.146 777.426 264.178 777.426L380.404 777.426C389.436 777.426 396.758 770.104 396.758 761.072L396.758 376.766C396.758 367.734 389.436 360.412 380.404 360.412L264.178 360.412C255.146 360.412 247.824 367.734 247.824 376.766L247.824 436.225C247.824 444.899 251.27 453.218 257.404 459.352L396.758 598.706L291.159 598.706C282.484 598.706 274.165 595.26 268.031 589.126L138.257 459.352C132.124 453.218 128.678 444.899 128.678 436.225L128.678 376.766C128.678 367.734 121.356 360.412 112.324 360.412L-3.9023 360.412C-12.9341 360.412 -20.2558 367.734 -20.2558 376.766L-20.2558 761.072C-20.2558 770.104 -12.9341 777.426 -3.90234 777.426L112.324 777.426C121.356 777.426 128.678 770.104 128.678 761.072L128.678 701.613Z" fill="#06065C"/>
</g>
<g clip-path="url(#clip3_41_26237)">
<path d="M128.678 295.74C128.678 287.066 125.232 278.747 119.098 272.613L-20.2558 133.259L85.3433 133.259C94.0177 133.259 102.337 136.705 108.471 142.839L238.245 272.613C244.378 278.747 247.824 287.066 247.824 295.74L247.824 355.199C247.824 364.231 255.146 371.553 264.178 371.553L380.404 371.553C389.436 371.553 396.758 364.231 396.758 355.199L396.758 -29.1074C396.758 -38.1392 389.436 -45.4609 380.404 -45.4609L264.178 -45.4609C255.146 -45.4609 247.824 -38.1392 247.824 -29.1074L247.824 30.3515C247.824 39.026 251.27 47.3451 257.404 53.4788L396.758 192.833L291.159 192.833C282.484 192.833 274.165 189.387 268.031 183.253L138.257 53.4788C132.124 47.3451 128.678 39.0259 128.678 30.3515L128.678 -29.1075C128.678 -38.1392 121.356 -45.4609 112.324 -45.4609L-3.9023 -45.4609C-12.9341 -45.4609 -20.2558 -38.1392 -20.2558 -29.1075L-20.2558 355.199C-20.2558 364.231 -12.9341 371.553 -3.90234 371.553L112.324 371.553C121.356 371.553 128.678 364.231 128.678 355.199L128.678 295.74Z" fill="#06065C"/>
</g>
<g clip-path="url(#clip4_41_26237)">
<path d="M1771.33 57.3863C1771.33 66.0607 1774.78 74.3799 1780.91 80.5136L1920.26 219.867H1814.66C1805.99 219.867 1797.67 216.421 1791.54 210.287L1661.76 80.5136C1655.63 74.3799 1652.18 66.0608 1652.18 57.3864V-2.07234C1652.18 -11.1041 1644.86 -18.4258 1635.83 -18.4258H1519.6C1510.57 -18.4258 1503.25 -11.1041 1503.25 -2.07236V382.233C1503.25 391.265 1510.57 398.586 1519.6 398.586H1635.83C1644.86 398.586 1652.18 391.265 1652.18 382.233V322.774C1652.18 314.1 1648.74 305.781 1642.6 299.647L1503.25 160.294H1608.85C1617.52 160.294 1625.84 163.74 1631.98 169.873L1761.75 299.647C1767.88 305.781 1771.33 314.1 1771.33 322.774V382.233C1771.33 391.265 1778.65 398.586 1787.68 398.586H1903.91C1912.94 398.586 1920.26 391.265 1920.26 382.233V-2.07236C1920.26 -11.1041 1912.94 -18.4258 1903.91 -18.4258H1787.68C1778.65 -18.4258 1771.33 -11.1041 1771.33 -2.07236V57.3863Z" fill="#06065C"/>
</g>
<g clip-path="url(#clip5_41_26237)">
<path d="M1771.33 463.259C1771.33 471.934 1774.78 480.253 1780.91 486.387L1920.26 625.74H1814.66C1805.99 625.74 1797.67 622.294 1791.54 616.16L1661.76 486.387C1655.63 480.253 1652.18 471.934 1652.18 463.259V403.801C1652.18 394.769 1644.86 387.447 1635.83 387.447H1519.6C1510.57 387.447 1503.25 394.769 1503.25 403.801V788.106C1503.25 797.138 1510.57 804.459 1519.6 804.459H1635.83C1644.86 804.459 1652.18 797.138 1652.18 788.106V728.647C1652.18 719.973 1648.74 711.654 1642.6 705.52L1503.25 566.167H1608.85C1617.52 566.167 1625.84 569.613 1631.98 575.746L1761.75 705.52C1767.88 711.654 1771.33 719.973 1771.33 728.647V788.106C1771.33 797.138 1778.65 804.459 1787.68 804.459H1903.91C1912.94 804.459 1920.26 797.138 1920.26 788.106V403.801C1920.26 394.769 1912.94 387.447 1903.91 387.447H1787.68C1778.65 387.447 1771.33 394.769 1771.33 403.801V463.259Z" fill="#06065C"/>
</g>
<g opacity="0.5" clip-path="url(#clip6_41_26237)">
<path d="M1206.46 472.727C1190.33 472.727 1174.87 479.133 1163.47 490.534L904.424 749.576L904.424 553.28C904.424 537.156 910.83 521.691 922.231 510.289L1163.47 269.055C1174.87 257.653 1190.33 251.248 1206.46 251.248L1316.98 251.248C1333.77 251.248 1347.38 237.637 1347.38 220.849L1347.38 4.79755C1347.38 -11.9914 1333.77 -25.6016 1316.98 -25.6016L602.604 -25.6016C585.815 -25.6016 572.205 -11.9914 572.205 4.79754L572.205 220.849C572.205 237.637 585.815 251.248 602.604 251.248L713.131 251.248C729.256 251.248 744.72 244.842 756.122 233.44L1015.16 -25.6016L1015.16 170.694C1015.16 186.819 1008.76 202.283 997.356 213.685L756.122 454.92C744.72 466.321 729.256 472.727 713.131 472.727L602.604 472.727C585.815 472.727 572.205 486.337 572.205 503.126L572.205 719.177C572.205 735.966 585.815 749.576 602.604 749.576L1316.98 749.576C1333.77 749.576 1347.38 735.966 1347.38 719.177L1347.38 503.126C1347.38 486.337 1333.77 472.727 1316.98 472.727L1206.46 472.727Z" fill="#06065C"/>
</g>
<rect x="-20" y="-8" width="1899" height="151" fill="url(#paint0_linear_41_26237)"/>
<rect x="-20" y="-8" width="1921" height="255" fill="url(#paint1_linear_41_26237)"/>
</g>
</g>
<defs>
<filter id="filter0_gn_41_26237" x="-28" y="-16" width="1956" height="1408" filterUnits="userSpaceOnUse" color-interpolation-filters="sRGB">
<feFlood flood-opacity="0" result="BackgroundImageFix"/>
<feBlend mode="normal" in="SourceGraphic" in2="BackgroundImageFix" result="shape"/>
<feTurbulence type="fractalNoise" baseFrequency="0.125 0.125" numOctaves="3" seed="2504" />
<feDisplacementMap in="shape" scale="16" xChannelSelector="R" yChannelSelector="G" result="displacedImage" width="100%" height="100%" />
<feMerge result="effect1_texture_41_26237">
<feMergeNode in="displacedImage"/>
</feMerge>
<feTurbulence type="fractalNoise" baseFrequency="0.5 0.5" stitchTiles="stitch" numOctaves="3" result="noise" seed="4376" />
<feColorMatrix in="noise" type="luminanceToAlpha" result="alphaNoise" />
<feComponentTransfer in="alphaNoise" result="coloredNoise1">
<feFuncA type="discrete" tableValues="1 1 1 1 1 1 1 1 1 1 1 1 1 1 1 1 1 1 1 1 1 1 1 1 1 1 1 1 1 1 1 1 1 1 1 1 1 1 1 1 1 1 1 1 1 1 1 1 1 1 1 0 0 0 0 0 0 0 0 0 0 0 0 0 0 0 0 0 0 0 0 0 0 0 0 0 0 0 0 0 0 0 0 0 0 0 0 0 0 0 0 0 0 0 0 0 0 0 0 0 "/>
</feComponentTransfer>
<feComposite operator="in" in2="effect1_texture_41_26237" in="coloredNoise1" result="noise1Clipped" />
<feFlood flood-color="rgba(0, 0, 0, 0.25)" result="color1Flood" />
<feComposite operator="in" in2="noise1Clipped" in="color1Flood" result="color1" />
<feMerge result="effect2_noise_41_26237">
<feMergeNode in="effect1_texture_41_26237" />
<feMergeNode in="color1" />
</feMerge>
</filter>
<linearGradient id="paint0_linear_41_26237" x1="929.5" y1="-8" x2="929.5" y2="143" gradientUnits="userSpaceOnUse">
<stop stop-opacity="0.15"/>
<stop offset="1" stop-opacity="0"/>
</linearGradient>
<linearGradient id="paint1_linear_41_26237" x1="940.5" y1="-8" x2="940.5" y2="247" gradientUnits="userSpaceOnUse">
<stop stop-color="#000033"/>
<stop offset="1" stop-color="#03033E" stop-opacity="0"/>
</linearGradient>
<clipPath id="clip0_41_26237">
<rect width="1900" height="863" fill="white"/>
</clipPath>
<clipPath id="clip1_41_26237">
<rect width="1940" height="1392" fill="white" transform="translate(-20 -8)"/>
</clipPath>
<clipPath id="clip2_41_26237">
<rect width="256" height="406.588" fill="white" transform="translate(236 767) rotate(-180)"/>
</clipPath>
<clipPath id="clip3_41_26237">
<rect width="256" height="406.588" fill="white" transform="translate(236 398.287) rotate(-180)"/>
</clipPath>
<clipPath id="clip4_41_26237">
<rect width="255.999" height="406.587" fill="white" transform="translate(1664 -8)"/>
</clipPath>
<clipPath id="clip5_41_26237">
<rect width="255.999" height="406.587" fill="white" transform="translate(1664 360.713)"/>
</clipPath>
<clipPath id="clip6_41_26237">
<rect width="791" height="755.798" fill="white" transform="translate(1328 -25.6016) rotate(90)"/>
</clipPath>
</defs>
</svg>
