<svg width="164" height="88" viewBox="0 0 164 88" fill="none" xmlns="http://www.w3.org/2000/svg">
<g clip-path="url(#clip0_29745_126662)">
<rect width="163.623" height="88" rx="4" fill="white"/>
<path d="M66.3886 33.7529C69.4279 32.7756 72.4265 31.6745 75.4657 30.6994C75.4401 33.3432 75.4572 35.9891 75.455 38.6328C76.8357 38.6328 78.2186 38.6307 79.6035 38.6307C79.5864 40.6322 79.6014 42.6316 79.5907 44.6309C78.2079 44.6544 76.8208 44.5947 75.4401 44.6629C75.4828 46.7391 75.4166 48.8153 75.4721 50.8915C75.4957 51.8154 75.8953 52.861 76.8144 53.228C77.7419 53.4286 78.708 53.2429 79.6057 52.9741C79.5864 54.9798 79.595 56.9877 79.5971 58.9935C77.0602 59.7809 74.365 60.3378 71.7062 59.9537C70.099 59.719 68.5601 58.8591 67.6774 57.4764C66.69 55.9806 66.4228 54.1455 66.3566 52.3937C66.3502 49.8054 66.3566 47.2192 66.3544 44.6331C65.2943 44.6352 64.2364 44.6203 63.1784 44.6544C63.14 42.6465 63.1656 40.6386 63.1656 38.6286C64.2278 38.635 65.2901 38.6307 66.3544 38.6307C66.3758 37.0048 66.3096 35.3745 66.3886 33.7529Z" fill="#027B5B"/>
<path d="M81.7663 32.1396C84.7201 31.0513 87.9282 31.0023 91.0401 31.0385C93.8613 31.158 96.7808 31.9753 98.9267 33.8786C101.765 36.3602 101.883 41.4536 98.8968 43.8584C98.1337 44.5006 97.2275 44.9466 96.2828 45.2539C97.6528 45.734 99.0186 46.389 99.9633 47.5306C101.479 49.2782 101.72 51.8046 101.173 53.9789C100.679 55.9719 99.1789 57.5893 97.3729 58.5068C94.0943 60.2822 90.2172 60.2459 86.6052 59.8959C84.9103 59.7359 83.2411 59.3966 81.5996 58.9549C81.5312 56.7763 81.5996 54.5935 81.5654 52.417C84.3824 53.3495 87.4708 53.9683 90.4096 53.2641C92.3801 52.7691 92.4806 49.7113 90.7216 48.877C88.8621 47.9531 86.6842 48.3094 84.7072 48.5719C84.7179 46.5149 84.7094 44.4558 84.7115 42.3946C86.2461 42.4671 87.7956 42.5546 89.3174 42.3007C90.2364 42.1385 91.2773 41.6776 91.5295 40.6918C91.6706 39.9023 91.5851 39.004 91.0379 38.3809C90.416 37.6554 89.4328 37.3695 88.5074 37.314C86.2333 37.1967 83.9442 37.5914 81.8155 38.3809C81.7407 36.3047 81.8262 34.22 81.7663 32.1396Z" fill="#F9DC1C"/>
<path d="M128.196 31.5144C134.139 31.5122 140.083 31.5122 146.025 31.5144C146.019 33.6738 146.025 35.8332 146.021 37.9925C142.84 38.0182 139.656 37.9477 136.478 38.0288C136.508 39.4585 136.514 40.8945 136.475 42.3263C138.279 42.2921 140.149 42.0211 141.889 42.6442C144.377 43.4764 146.309 45.6977 146.888 48.2433C147.44 50.695 147.294 53.4177 146.012 55.6262C144.807 57.696 142.586 58.9613 140.316 59.5481C136.219 60.5681 131.919 60.0154 127.903 58.9101C127.843 56.7657 127.892 54.6212 127.875 52.4767C130.453 53.1254 133.231 53.7591 135.841 52.9206C138.012 52.2484 138.335 49.0051 136.623 47.6864C135.595 46.9139 134.263 46.7262 133.011 46.6728C131.609 46.6515 130.205 46.8371 128.841 47.1593C128.55 47.2148 128.298 47.3812 128.067 47.5541C128.134 47.3215 128.179 47.0846 128.198 46.8457C128.191 41.7352 128.193 36.6227 128.196 31.5144Z" fill="#F9DC1C"/>
<path d="M52.5146 38.1528C54.9127 38.0845 57.4483 38.686 59.25 40.3461C61.1178 42.0681 61.9834 44.599 62.3232 47.0571C62.554 48.5421 62.5258 50.0485 62.5215 51.5463H49.8838C49.9522 52.2867 50.1045 53.0717 50.6709 53.603C51.6753 54.5524 53.1388 54.6805 54.4531 54.768C56.7549 54.8064 59.1424 54.5588 61.1963 53.4409C61.1792 55.2502 61.1966 57.062 61.1816 58.8735C58.6084 59.776 55.8663 60.0363 53.1562 60.0854C50.0828 60.1409 46.7802 59.5994 44.3779 57.5424C42.1403 55.654 41.1489 52.6898 41.0186 49.8412C40.8198 46.7836 41.3523 43.4042 43.5898 41.1381C45.9044 38.8188 49.3452 38.1379 52.5146 38.1528ZM53.9414 43.7621C53.219 42.6718 51.4249 42.7377 50.6982 43.7875C50.0101 44.7562 49.9461 45.9876 49.9033 47.1313C51.487 47.1313 53.0687 47.1315 54.6523 47.1293C54.631 45.9878 54.5911 44.7501 53.9414 43.7621Z" fill="#027B5B"/>
<path d="M25.5342 29.336C25.5064 33.3218 25.5382 37.3054 25.5146 41.2911C26.378 40.0644 27.5044 38.9507 28.9746 38.4962C31.6119 37.6683 34.801 38.2444 36.6904 40.3546C38.5905 42.4691 39.2363 45.384 39.3154 48.1515C39.3603 50.9275 39.0926 53.8362 37.7119 56.3028C36.7715 58.0374 35.1285 59.4098 33.1816 59.8409C31.2388 60.2741 29.0197 60.2117 27.3291 59.0509C26.1687 58.272 25.5275 56.9813 24.9355 55.7608C24.974 57.0496 24.9016 58.3346 24.876 59.6212H16.4316C16.4316 49.5263 16.4315 39.4309 16.4336 29.336C19.4664 29.3339 22.4993 29.3318 25.5342 29.336ZM29.2939 45.4073C28.9071 44.5923 27.8957 44.1702 27.043 44.4454C26.3208 44.6163 25.8313 45.2668 25.624 45.9474C25.3013 46.9971 25.3037 48.1111 25.3037 49.1993C25.3101 50.3259 25.372 51.5379 25.9854 52.5216C26.6308 53.5799 28.3877 53.5776 29.0566 52.547C29.7469 51.5057 29.8069 50.2 29.8496 48.9923C29.8325 47.7867 29.8518 46.5084 29.2939 45.4073Z" fill="#027B5B"/>
<path d="M114.693 31.0746C117.788 30.9487 120.941 30.9936 123.952 31.8128C123.909 33.9615 123.952 36.1125 123.929 38.2611C121.477 37.5762 118.921 37.0923 116.367 37.3783C114.816 37.5874 113.272 38.3853 112.483 39.7787C111.932 40.7132 111.809 41.8101 111.728 42.8705C113.57 41.4324 116.021 41.0931 118.295 41.2318C121.174 41.4174 123.905 43.1604 125.23 45.7249C126.222 47.6368 126.395 49.8824 126.09 51.9906C125.765 54.2245 124.563 56.3372 122.74 57.6878C120.058 59.7765 116.47 60.391 113.155 59.9622C110.261 59.6102 107.551 58.0758 105.756 55.7884C103.653 53.2513 102.712 49.9247 102.65 46.6664C102.565 42.7146 103.354 38.5087 105.97 35.4105C108.088 32.799 111.364 31.2987 114.693 31.0746ZM117.303 47.8402C116.587 46.6218 114.95 46.2311 113.665 46.7005C112.686 47.0505 112.088 48.0348 111.904 49.0121C111.603 50.4009 111.695 52.0157 112.671 53.1273C113.804 54.4929 116.275 54.3142 117.189 52.7865C118.117 51.3376 118.177 49.3296 117.303 47.8402Z" fill="#F9DC1C"/>
</g>
<defs>
<clipPath id="clip0_29745_126662">
<rect width="163.623" height="88" rx="4" fill="white"/>
</clipPath>
</defs>
</svg>
