<svg width="131" height="31" viewBox="0 0 131 31" fill="none" xmlns="http://www.w3.org/2000/svg">
<path d="M49.957 4.4193C52.9962 3.44202 55.9949 2.34099 59.0341 1.36584C59.0084 4.00961 59.0255 6.65552 59.0234 9.29929C60.4041 9.29929 61.7869 9.29715 63.1719 9.29715C63.1548 11.2986 63.1698 13.298 63.1591 15.2974C61.7762 15.3208 60.3891 15.2611 59.0084 15.3294C59.0512 17.4056 58.9849 19.4817 59.0405 21.5579C59.064 22.4819 59.4637 23.5274 60.3827 23.8944C61.3103 24.095 62.2764 23.9094 63.174 23.6405C63.1548 25.6463 63.1633 27.6542 63.1655 29.6599C60.6285 30.4473 57.9334 31.0042 55.2746 30.6201C53.6673 30.3854 52.1285 29.5255 51.2458 28.1428C50.2584 26.647 49.9912 24.812 49.9249 23.0601C49.9185 20.4718 49.9249 17.8857 49.9228 15.2995C48.8627 15.3016 47.8047 15.2867 46.7468 15.3208C46.7083 13.3129 46.734 11.305 46.734 9.29502C47.7962 9.30142 48.8584 9.29715 49.9228 9.29715C49.9442 7.6712 49.8779 6.04098 49.957 4.4193Z" fill="#027B5B"/>
<path d="M65.3347 2.80604C68.2884 1.71781 71.4965 1.66873 74.6084 1.705C77.4296 1.8245 80.3492 2.64174 82.495 4.54508C85.3334 7.02668 85.4509 12.12 82.4651 14.5248C81.7021 15.1671 80.7959 15.6131 79.8512 15.9203C81.2212 16.4004 82.5869 17.0555 83.5316 18.1971C85.047 19.9447 85.2885 22.4711 84.7413 24.6454C84.2476 26.6384 82.7472 28.2558 80.9412 29.1733C77.6626 30.9486 73.7856 30.9124 70.1735 30.5624C68.4787 30.4024 66.8094 30.0631 65.168 29.6214C65.0996 27.4428 65.168 25.2599 65.1338 23.0835C67.9507 24.0159 71.0391 24.6347 73.9779 23.9306C75.9485 23.4355 76.0489 20.3778 74.29 19.5435C72.4305 18.6196 70.2526 18.9759 68.2756 19.2384C68.2863 17.1814 68.2777 15.1223 68.2799 13.061C69.8145 13.1336 71.364 13.2211 72.8858 12.9672C73.8048 12.805 74.8457 12.3441 75.0979 11.3583C75.2389 10.5688 75.1534 9.67045 74.6063 9.04739C73.9843 8.3219 73.0012 8.03597 72.0757 7.98049C69.8016 7.86313 67.5126 8.25788 65.3838 9.04739C65.309 6.97121 65.3945 4.88649 65.3347 2.80604Z" fill="#F9DC1C"/>
<path d="M111.764 2.18083C117.708 2.1787 123.652 2.1787 129.593 2.18083C129.587 4.34023 129.593 6.49962 129.589 8.65902C126.409 8.68463 123.224 8.61421 120.046 8.6953C120.076 10.1249 120.082 11.561 120.044 12.9928C121.848 12.9586 123.718 12.6876 125.458 13.3107C127.945 14.1429 129.878 16.3641 130.457 18.9098C131.008 21.3615 130.863 24.0842 129.58 26.2927C128.375 28.3625 126.154 29.6278 123.885 30.2146C119.787 31.2345 115.487 30.6819 111.471 29.5766C111.411 27.4321 111.46 25.2877 111.443 23.1432C114.021 23.7919 116.799 24.4256 119.409 23.587C121.581 22.9149 121.903 19.6715 120.191 18.3528C119.163 17.5804 117.832 17.3926 116.579 17.3393C115.177 17.318 113.773 17.5036 112.409 17.8258C112.119 17.8813 111.867 18.0477 111.636 18.2205C111.702 17.988 111.747 17.7511 111.766 17.5121C111.76 12.4017 111.762 7.28913 111.764 2.18083Z" fill="#F9DC1C"/>
<path d="M36.083 8.81924C38.4811 8.75096 41.0166 9.35251 42.8184 11.0126C44.6862 12.7346 45.5518 15.2655 45.8916 17.7235C46.1224 19.2086 46.0941 20.715 46.0898 22.2128H33.4521C33.5205 22.9532 33.6729 23.7381 34.2393 24.2694C35.2437 25.2188 36.7072 25.347 38.0215 25.4345C40.3232 25.4729 42.7108 25.2253 44.7646 24.1073C44.7476 25.9167 44.765 27.7284 44.75 29.5399C42.1767 30.4425 39.4347 30.7028 36.7246 30.7519C33.6512 30.8073 30.3486 30.2659 27.9463 28.2089C25.7087 26.3205 24.7173 23.3563 24.5869 20.5077C24.3882 17.45 24.9205 14.0697 27.1582 11.8036C29.4728 9.48452 32.9136 8.80437 36.083 8.81924ZM37.5098 14.4286C36.7874 13.3383 34.9933 13.4042 34.2666 14.454C33.5784 15.4227 33.5144 16.6541 33.4717 17.7978C35.0553 17.7978 36.6371 17.7979 38.2207 17.7958C38.1993 16.6543 38.1594 15.4165 37.5098 14.4286Z" fill="#027B5B"/>
<path d="M9.10254 0.00247192C9.07476 3.98821 9.10651 7.97181 9.08301 11.9576C9.94638 10.7308 11.0728 9.61718 12.543 9.16263C15.1803 8.33474 18.3694 8.91087 20.2588 11.021C22.1588 13.1356 22.8047 16.0504 22.8838 18.8179C22.9287 21.594 22.661 24.5026 21.2803 26.9693C20.3399 28.7038 18.6968 30.0763 16.75 30.5074C14.8072 30.9405 12.5881 30.8781 10.8975 29.7173C9.73709 28.9385 9.09588 27.6477 8.50391 26.4273C8.54237 27.716 8.46998 29.001 8.44434 30.2876H0C0 20.1927 -0.000184124 10.0974 0.00195312 0.00247192C3.03471 0.000338173 6.06764 -0.00179558 9.10254 0.00247192ZM12.8623 16.0738C12.4754 15.2587 11.4641 14.8366 10.6113 15.1118C9.88916 15.2827 9.39966 15.9333 9.19238 16.6138C8.86969 17.6636 8.87207 18.7776 8.87207 19.8658C8.87849 20.9924 8.94033 22.2044 9.55371 23.188C10.1992 24.2463 11.956 24.244 12.625 23.2134C13.3153 22.1722 13.3752 20.8664 13.418 19.6587C13.4009 18.4531 13.4201 17.1748 12.8623 16.0738Z" fill="#027B5B"/>
<path d="M98.2617 1.74103C101.356 1.61514 104.509 1.66003 107.521 2.47931C107.478 4.62793 107.521 6.77893 107.497 8.92755C105.046 8.24265 102.49 7.75882 99.9355 8.04474C98.3839 8.25387 96.8404 9.05178 96.0518 10.4451C95.5005 11.3797 95.3771 12.4765 95.2959 13.5369C97.1382 12.0989 99.5893 11.7596 101.863 11.8983C104.742 12.0839 107.474 13.8268 108.799 16.3914C109.791 18.3033 109.964 20.5489 109.658 22.657C109.333 24.891 108.132 27.0037 106.309 28.3543C103.626 30.4429 100.038 31.0575 96.7236 30.6287C93.8298 30.2767 91.1195 28.7422 89.3242 26.4549C87.2211 23.9178 86.2807 20.5911 86.2188 17.3328C86.1333 13.3811 86.9221 9.17521 89.5381 6.07697C91.6561 3.46549 94.9321 1.96515 98.2617 1.74103ZM100.871 18.5067C100.155 17.2883 98.5179 16.8976 97.2334 17.367C96.2545 17.7169 95.6565 18.7013 95.4727 19.6785C95.1714 21.0674 95.263 22.6822 96.2393 23.7938C97.372 25.1594 99.843 24.9806 100.758 23.4529C101.685 22.0041 101.745 19.996 100.871 18.5067Z" fill="#F9DC1C"/>
</svg>
