<svg xmlns="http://www.w3.org/2000/svg" width="120" height="43" fill="none" viewBox="0 0 120 43"><path fill="#ededed" d="M50.167 11.402c3.114 0 4.565 1.543 3.956 4.42-.327 1.544-1.287 2.666-2.528 3.321 1.241.632 1.873 1.825 1.499 3.672-.68 3.135-2.903 4.585-6.227 4.585h-6.883l3.395-15.998zm-3.488 13.05c1.17 0 1.92-.537 2.2-1.824.258-1.333-.233-1.824-1.427-1.824h-1.873l-.772 3.649zm1.358-6.642c.983 0 1.639-.655 1.873-1.73.234-1.123-.164-1.731-1.124-1.731h-1.802l-.726 3.461zm18.376-6.408c.047.327.024.889-.093 1.497-.164.655-.351 1.263-.585 1.637h-6.04l-.679 3.25h4.94c.023.375.046.82-.094 1.521-.164.702-.351 1.146-.562 1.544h-4.94l-.725 3.415h6.274c.046.374.023.959-.117 1.543-.14.632-.305 1.193-.562 1.59H52.742l3.395-15.997zm13.086 0s.07.701-.164 1.73a8 8 0 0 1-.585 1.755h-3.769L72.36 27.189s-.936.21-2.153.21c-1.335 0-2.06-.21-2.06-.21l2.621-12.302h-3.885s-.094-.679.14-1.708c.234-1.076.609-1.777.609-1.777zm5.22 0c1.85 0 2.669.21 2.669.21l1.545 15.6s-.773.211-2.224.211c-1.31 0-1.99-.21-1.99-.21l-.257-2.924h-5.127l-1.521 2.923s-.796.211-2.084.211c-1.24 0-1.966-.21-1.966-.21l8.17-15.6s1.006-.211 2.785-.211m-.936 3.695s-.351 1.263-1.1 2.713l-1.873 3.555h3.37l-.303-3.555c-.14-1.473 0-2.713 0-2.713zm11.798 4.795c-.374-2.222-.328-4.163-.328-4.163h-.117s-.163 1.918-.678 4.42l-1.499 7.063s-.655.211-1.896.211c-1.194 0-1.709-.21-1.709-.21l3.301-15.6s.96-.211 2.856-.211c1.873 0 2.645.21 2.645.21l1.288 7.227c.327 2.152.304 4.585.304 4.585h.094s.281-2.386.819-4.842l1.475-6.946s.796-.21 1.896-.21c1.147 0 1.732.21 1.732.21l-3.301 15.6s-.889.21-2.785.21c-1.756 0-2.716-.21-2.716-.21zm18.213-8.77c4.283 0 6.437 2.853 5.196 8.653-1.217 5.8-4.307 7.905-8.614 7.905s-6.391-2.806-5.174-8.583c1.218-5.73 4.308-7.976 8.592-7.976m-.609 3.18c-1.569 0-2.692.982-3.582 5.099-.866 4.116-.164 5.075 1.428 5.075 1.615 0 2.716-.982 3.582-5.075.889-4.117.187-5.099-1.428-5.099"/><path fill="#fff" d="M105.76 11.613s-.585-.21-1.732-.21c-1.101 0-1.896.21-1.896.21l-1.054 5.005 3.652-.187zm8.051-.492c-3.535 0-6.227 1.52-7.772 5.24l4.612-.235c.702-1.403 1.521-1.824 2.551-1.824 1.007 0 1.639.374 1.779 1.614l4.308-.21c-.398-3.065-2.365-4.585-5.478-4.585m-49.854 6.667h-4.939l.679-3.252h6.04c.21-.374.42-.982.585-1.637.117-.608.14-1.146.093-1.497H56.14l-1.616 7.555 9.41-.468c.048-.28.048-.491.024-.701m-9.817-1.965c.609-2.854-.843-4.42-3.956-4.42h-6.812l-1.756 8.209 10.066-.515c1.194-.655 2.13-1.754 2.458-3.274m-4.237.257c-.234 1.1-.89 1.73-1.873 1.73H46.23l.726-3.46h1.802c.983 0 1.404.584 1.147 1.73m25.096-1.193h3.77s.374-.748.585-1.754c.234-1.029.163-1.73.163-1.73H67.627s-.374.701-.608 1.777c-.21 1.029-.14 1.707-.14 1.707h3.885l-.702 3.275 4.26-.21zm20.135.843h.117s0 .467.024 1.192l3.792-.187-.913-5.099s-.773-.21-2.645-.21c-1.896 0-2.856.21-2.856.21l-1.17 5.473 3.487-.187c.117-.748.164-1.193.164-1.193m-11.353-.631h.094s-.117 1.052-.024 2.385l4.097-.21-.562-5.66s-.82-.21-2.669-.21c-1.779 0-2.785.21-2.785.21l-3.207 6.128 4.096-.21c.656-1.334.96-2.433.96-2.433" opacity=".6"/><path fill="#949b95" d="M68.148 27.19s.726.21 2.06.21c1.218 0 2.154-.21 2.154-.21l.492-2.269-4.167-.233zm16.571 0s.655.21 1.99.21c1.45 0 2.223-.21 2.223-.21l-.14-1.38-4.214-.234zm-10.961 0s.702.211 1.966.211c1.288 0 2.084-.21 2.084-.21l1.006-1.941-3.91-.21zm-16.131-2.923.047-.21-4.167-.235-.75 3.579h10.488c.234-.398.422-.983.562-1.59.117-.515.14-1.006.117-1.38l-2.575-.141h-3.722zm52.744 3.415c1.124 0 2.177-.14 3.137-.468L107 26.84q1.335.842 3.371.842m-21.019-.492s.515.211 1.708.211c1.218 0 1.897-.21 1.897-.21l.234-1.123-3.559-.21zm-42.485.211c2.95 0 5.056-1.146 5.946-3.625l-4.284-.234c-.398.632-1.007.912-1.85.912h-1.872l.234-1.099-4.167-.234-.913 4.28zm50.063-.211s.96.21 2.715.21c1.896 0 2.786-.21 2.786-.21l.117-.609-5.782-.327z" opacity=".1"/><path fill="#949b95" d="M68.234 27.19s.726.21 2.06.21c1.218 0 2.154-.21 2.154-.21l.492-2.269-4.167-.233zm16.547 0s.655.21 1.966.21c1.452 0 2.224-.21 2.224-.21l-.14-1.38-4.214-.234zm-10.929 0s.702.211 1.942.211c1.288 0 2.084-.21 2.084-.21l1.007-1.941-3.91-.21zm-16.108-2.923.047-.21-4.167-.235-.749 3.579h10.464c.234-.398.421-.983.562-1.59.117-.515.14-1.006.117-1.38l-2.552-.141h-3.722zm52.65 3.415c1.124 0 2.177-.14 3.114-.468l-6.485-.374q1.335.842 3.371.842m-20.996-.492s.515.211 1.71.211c1.217 0 1.895-.21 1.895-.21l.234-1.123-3.558-.21zm-42.414.211c2.95 0 5.033-1.146 5.946-3.602l-4.284-.233c-.398.631-1.007.912-1.826.912h-1.873l.234-1.1-4.166-.233-.913 4.28h6.882zm50-.211s.96.21 2.716.21c1.896 0 2.762-.21 2.762-.21l.117-.609-5.782-.327z" opacity=".1"/><path fill="url(#a)" d="M35.482 24.339a8 8 0 0 0-.562-1.076c-.257-.421-.562-.842-.843-1.24-.117-.164-.257-.35-.374-.561-.187-.328-.117-.725.117-1.053 2.318-3.274 2.083-6.548 1.498-8.443-.749-2.456-3.137-4.912-6.133-6.736-1.943-1.17-4.05-2.128-6.203-2.9-1.569-.561-3.137-1.03-4.776-1.31-1.077-.187-2.224-.257-3.3-.07-1.546.14-3.184.468-4.706.772-1.779.327-3.839.584-5.244 1.824-1.31 1.123-2.06 2.76-2.528 4.397-.866 3.064-1.31 6.222-1.521 9.379-.211 3.134-.211 6.315-.094 9.45a39 39 0 0 0 .585 5.472c.445 2.316 1.194 4.725 2.622 6.642a6.2 6.2 0 0 0 1.358 1.357c1.334.959 3.043 1.123 4.635 1.286 3.09.281 6.297 1.263 9.364.258a31 31 0 0 0 2.41-.679 41 41 0 0 0 4.448-1.8 27.6 27.6 0 0 0 4.378-2.597c1.31-.959 2.551-2.081 3.558-3.368.96-1.24 1.522-2.596 1.873-4.093.047-.163.093-.35.117-.538.164-1.473-.117-3.017-.679-4.373m-16.667 4.958c-.469.35-.984.655-1.498.959-1.335.748-2.763 1.52-4.238 1.941a5.8 5.8 0 0 1-1.545.234c-.093 0-1.123-.023-1.123-.093-1.92-10.666 0-21.612 0-21.612.14-.257 1.475-.023 1.615 0 1.17.21 2.294.679 3.394 1.146 1.007.445 2.013.89 2.926 1.497 1.124.749 2.505 2.012 2.646 3.439.14 1.216-.258 2.175-.866 3.227-.211.374-.633.819-.562 1.287.093.537.538 1.005.866 1.426.28.374.538.795.702 1.24.866 2.152-.679 4.116-2.317 5.31"/><path fill="#373430" d="M35.466 24.339a9 9 0 0 0-.562-1.076c-.257-.421-.561-.842-.842-1.24-.117-.164-.258-.35-.375-.561-.187-.328-.117-.702.117-1.053 2.318-3.274 2.084-6.548 1.499-8.443-.75-2.456-3.137-4.912-6.134-6.736-1.943-1.17-4.05-2.128-6.203-2.9-1.569-.561-3.137-1.03-4.776-1.31-1.076-.187-2.224-.257-3.3-.07-1.545.14-3.184.468-4.706.772-1.779.327-3.815.608-5.243 1.824-1.475 1.263-2.06 2.76-2.528 4.397-.867 3.064-1.311 6.222-1.522 9.379-.21 3.134-.21 6.315-.094 9.45.07 1.823.258 3.671.609 5.472.445 2.316 1.194 4.725 2.622 6.619a6.2 6.2 0 0 0 1.358 1.357c1.334.959 3.043 1.122 4.635 1.286 3.09.28 6.297 1.263 9.363.257.796-.187 1.616-.42 2.411-.678a44 44 0 0 0 4.472-1.801 26.4 26.4 0 0 0 4.354-2.596c1.31-.959 2.551-2.082 3.558-3.368.96-1.24 1.521-2.596 1.873-4.093a4 4 0 0 0 .117-.538c.14-1.474-.14-2.994-.703-4.35m-3.23 9.215s-2.364 3.017-9.879 5.894c0 0-4.143 1.754-6.578 1.193 0 0-3.02-.281-4.494-3.415 0 0-1.92-2.573-2.318-13.776 0 0 0-11.928 2.06-16.817 0 0 1.358-4.467 5.993-4.35 0 0 5.665.28 12.758 4.865 0 0 6.133 3.228 4.354 9.94 0 0-.632 1.684-1.92 3.532 0 0-.374.514.07 1.006 0 0 2.833 3.087 2.693 5.94.023.047.328 3.204-2.74 5.988"/><path fill="url(#b)" d="M35.466 24.337a9 9 0 0 0-.562-1.076c-.257-.421-.561-.842-.842-1.24-.117-.163-.258-.35-.375-.561-.187-.328-.093-.702.14-1.03 2.318-3.274 2.06-6.571 1.476-8.442-.75-2.456-3.137-4.912-6.157-6.736-1.943-1.17-4.05-2.129-6.204-2.9-1.568-.562-3.136-1.03-4.775-1.31-1.077-.188-2.224-.258-3.3-.07-1.546.14-3.184.467-4.706.771-1.78.328-3.84.585-5.244 1.825-1.662 1.45-2.06 2.76-2.528 4.397-.866 3.064-1.31 6.221-1.521 9.378-.211 3.135-.211 6.316-.094 9.45.07 1.824.257 3.672.585 5.473.445 2.315 1.194 4.724 2.622 6.642a6.2 6.2 0 0 0 1.358 1.356c1.334.96 3.043 1.123 4.635 1.287 3.09.28 6.297 1.263 9.363.257a31 31 0 0 0 2.412-.678 44 44 0 0 0 4.47-1.801c1.522-.725 3.02-1.567 4.378-2.573 1.311-.959 2.552-2.081 3.535-3.368.96-1.24 1.522-2.62 1.873-4.116.047-.164.093-.351.117-.538.21-1.52-.094-3.04-.656-4.397M32.54 34.09s-2.575 3.064-10.37 6.08c0 0-4.26 1.732-6.765 1.147 0 0-3.184-.187-4.729-3.438 0 0-1.99-2.666-2.388-14.314 0 0 0-12.373 2.13-17.448 0 0 1.358-4.537 6.18-4.397 0 0 5.9.187 13.274 4.935 0 0 6.578 3.485 4.728 10.431 0 0-.374 1.45-1.756 3.462 0 0-.374.538-.117.842 0 0 2.95 3.438 2.833 6.408-.023 0 .187 3.392-3.02 6.292"/><path fill="#faaf3a" d="M32.278 23.615c-.234-.351-.444-.702-.679-1.03-.35-.49-.678-.841-.796-1.45-.023-.14.07-.654.188-.841 1.826-2.597 2.434-4.07 2.177-6.315-.726-6.386-10.534-9.216-12.711-9.917-6.227-1.988-8.217.304-9.294 3.765a19.5 19.5 0 0 0-.749 2.9c.14-.257 1.451.047 1.592.07 1.03.211 2.294.679 3.37 1.147 1.007.42 1.99.888 2.927 1.497 1.124.748 2.481 1.988 2.645 3.438.14 1.216-.257 2.175-.866 3.204-.21.374-.609.819-.562 1.263.094.538.539 1.006.866 1.427.281.374.492.795.68 1.24.865 2.08-.68 4.069-2.295 5.262-.468.35-.983.655-1.475.935-1.334.749-2.738 1.52-4.237 1.918a5.6 5.6 0 0 1-1.545.234c-.093 0-1.076-.023-1.1-.093.258 1.333.468 2.245.609 2.736 1.03 3.532 2.762 4.958 5.899 4.701 2.903-.234 16.808-4.584 16.808-12.209-.024-1.427-.656-2.69-1.452-3.882"/><path fill="url(#c)" d="M11.706 40.757c-2.552-1.895-3.371-5.38-3.792-8.326a83 83 0 0 1-.422-3.368 94 94 0 0 1-.234-2.526c-.21-2.877-.257-5.777-.047-8.654.07-1.006.14-1.988.234-2.994.14-1.31.281-2.62.492-3.906.655-3.789 1.756-8.233 5.759-9.776a3.1 3.1 0 0 1 .913-.234c-1.545.163-2.997.42-4.518.701-1.78.351-3.746.608-5.15 1.848-1.545 1.38-2.154 2.76-2.622 4.397-.866 3.064-1.311 6.222-1.522 9.402-.21 3.134-.117 6.339 0 9.473a38.5 38.5 0 0 0 .585 5.426c.445 2.316 1.1 4.771 2.529 6.69.374.514.842.982 1.357 1.356 1.335.959 3.044 1.122 4.635 1.286 3.09.28 6.297 1.263 9.364.257-2.552.608-5.36.585-7.561-1.052"/><path fill="url(#d)" d="M11 10.633s-.023-2.643 2.786-6.665c0 0 1.92-1.638 7.21.257 1.24.397 6.788 1.988 10.019 5.38 0 0 1.334 1.332 1.85 2.9l-11.94 4.163s0-.047-.023-.14c-.117-.398-.608-1.685-2.107-2.737-.421-.304-.82-.585-1.264-.819a.5.5 0 0 1-.117-.07c-.749-.444-1.966-.935-1.966-.935s-2.833-1.24-4.448-1.334" opacity=".7"/><path fill="url(#e)" d="M20.055 20.082s7.046-1.053 11.751-1.03c0 0 1.194-1.73 1.381-3.437 0 0 .188-1.638-.374-3.111l-11.939 4.163s.117.374.023 1.17c0 .046 0 .07-.023.116-.047.562-.28 1.287-.82 2.129" opacity=".85"/><path fill="url(#f)" d="M31.088 20.127s1.358-1.918 1.568-2.62l-12.009 1.404s-.515 1.146-.842 1.567z"/><path fill="#cb5827" d="m19.797 20.48 11.283-.351s-.375.468-.258 1.123l-11.33-.047c.024 0 .047-.328.305-.725" opacity=".85"/><path fill="url(#g)" d="m19.526 21.203 11.33.047s.164.444.867 1.427c.35.538 1.615 2.339 1.825 3.414 0 0-5.313-1.052-12.36-1.777 0 0-.678-1.497-1.076-1.918-.024 0-.726-.772-.586-1.193"/><path fill="url(#h)" d="M21.156 24.315s6.484.654 12.36 1.777c0 0 .983 2.503-1.241 5.59l-11.681-4.28s1.053-1.427.562-3.088" opacity=".85"/><path fill="url(#i)" d="m10.648 32.36 3.582 7.063s-.82-.234-1.452-.96c0 0-.444-.42-.866-1.169-.093-.163-.35-.584-.655-1.45-.07-.21-.422-1.24-.562-2.081-.164-.772-.28-1.427-.28-1.427s.046 0 .233.023"/><path fill="url(#j)" d="M11 10.633s.046-1.497 1.053-3.672c.421-.866 1.334-2.456 1.732-2.994 0 0-1.31.608-2.13 2.55-.21.444-.75 1.964-.96 2.853-.164.678-.28 1.192-.28 1.356 0 0 .14-.14.584-.093"/><path fill="url(#k)" d="m20.597 27.402 11.682 4.28s-1.054 1.59-3.512 3.298c-.257.164-.515.351-.772.515a31 31 0 0 1-1.639.959 32 32 0 0 1-3.113 1.45c-.422.164-3.02 1.24-5.478 1.707-.422.07-1.966.398-3.511-.187l-3.606-7.063s1.007.093 1.64-.024c.537-.117 1.427-.234 3.51-1.286.632-.327 2.06-1.146 2.224-1.263s1.264-.772 1.943-1.567c.234-.304.328-.398.632-.819" opacity=".85"/><g fill="#fff" opacity=".6"><path d="M105.783 11.64s-.585-.21-1.732-.21a8.5 8.5 0 0 0-1.896.21l-1.053 4.982 3.651-.187zm8.036-.493c-3.512 0-6.227 1.52-7.749 5.215l4.589-.234c.702-1.403 1.521-1.824 2.528-1.824.983 0 1.638.374 1.779 1.614l4.307-.21c-.374-3.041-2.341-4.562-5.454-4.562m-49.776 6.645h-4.916l.68-3.227h6.039c.21-.374.421-.983.585-1.637.117-.608.14-1.146.094-1.497H56.27l-1.591 7.53 9.41-.467c-.023-.257-.023-.491-.047-.702m-9.799-1.941c.608-2.853-.843-4.42-3.956-4.42h-6.79l-1.731 8.186 10.042-.515c1.194-.655 2.13-1.73 2.435-3.25m-4.214.234c-.234 1.076-.89 1.73-1.873 1.73h-1.802l.726-3.46h1.802c1.007 0 1.405.607 1.147 1.73m25.035-1.17h3.769s.374-.749.585-1.754c.21-1.03.164-1.731.164-1.731H67.714s-.375.701-.61 1.777c-.21 1.03-.14 1.708-.14 1.708h3.886l-.702 3.274 4.26-.21zm20.111.815h.117s0 .467.024 1.169l3.792-.187-.913-5.1s-.772-.21-2.645-.21c-1.896 0-2.833.21-2.833.21l-1.17 5.474 3.488-.187c.094-.725.14-1.17.14-1.17m-11.322-.604h.094s-.117 1.053-.023 2.386l4.096-.21-.562-5.66s-.82-.211-2.668-.211c-1.78 0-2.763.21-2.763.21l-3.23 6.105 4.073-.21c.679-1.31.983-2.41.983-2.41" opacity=".1"/></g><defs><linearGradient id="a" x1=".723" x2="36.193" y1="21.528" y2="21.528" gradientUnits="userSpaceOnUse"><stop offset=".065" stop-color="#ef7422"/><stop offset=".832" stop-color="#ae3324"/></linearGradient><linearGradient id="b" x1=".717" x2="36.204" y1="21.521" y2="21.521" gradientUnits="userSpaceOnUse"><stop offset=".43" stop-color="#bcbdbf"/><stop offset=".65" stop-color="#fff"/><stop offset="1" stop-color="#a7a8ab"/></linearGradient><linearGradient id="c" x1="9.969" x2="9.969" y1="3.045" y2="43.075" gradientUnits="userSpaceOnUse"><stop stop-color="#59595c" stop-opacity=".4"/><stop offset=".007" stop-color="#656567" stop-opacity=".432"/><stop offset=".034" stop-color="#8b8d8c" stop-opacity=".554"/><stop offset=".06" stop-color="#a9aca9" stop-opacity=".674"/><stop offset=".085" stop-color="#bfc2bd" stop-opacity=".79"/><stop offset=".11" stop-color="#cccfca" stop-opacity=".901"/><stop offset=".131" stop-color="#d0d4ce"/><stop offset=".478" stop-color="#d1d2d3"/><stop offset=".688" stop-color="#424143" stop-opacity=".1"/><stop offset=".709" stop-color="#585959" stop-opacity=".191"/><stop offset=".749" stop-color="#7e817e" stop-opacity=".364"/><stop offset=".788" stop-color="#9ba09b" stop-opacity=".535"/><stop offset=".826" stop-color="#b0b6b0" stop-opacity=".701"/><stop offset=".862" stop-color="#bdc3bd" stop-opacity=".858"/><stop offset=".894" stop-color="#c1c8c1"/><stop offset="1" stop-color="#373430"/></linearGradient><linearGradient id="d" x1="22.55" x2="20.765" y1="9.389" y2="16.665" gradientUnits="userSpaceOnUse"><stop stop-color="#df5826"/><stop offset="1" stop-color="#faaf3a"/></linearGradient><linearGradient id="e" x1="19.385" x2="29.57" y1="18.917" y2="11.461" gradientUnits="userSpaceOnUse"><stop stop-color="#da8927"/><stop offset="1" stop-color="#bb4026"/></linearGradient><linearGradient id="f" x1="26.329" x2="26.323" y1="16.76" y2="19.317" gradientUnits="userSpaceOnUse"><stop stop-color="#e35b25"/><stop offset="1" stop-color="#faaf3a"/></linearGradient><linearGradient id="g" x1="32.862" x2="18.571" y1="23.679" y2="22.651" gradientUnits="userSpaceOnUse"><stop stop-color="#e35b25"/><stop offset="1" stop-color="#faaf3a"/></linearGradient><linearGradient id="h" x1="19.501" x2="28.784" y1="25.898" y2="32.487" gradientUnits="userSpaceOnUse"><stop stop-color="#da8927"/><stop offset="1" stop-color="#bb4026"/></linearGradient><linearGradient id="i" x1="10.476" x2="18.26" y1="33.397" y2="37.36" gradientUnits="userSpaceOnUse"><stop offset=".065" stop-color="#eea032"/><stop offset=".832" stop-color="#f16122"/></linearGradient><linearGradient id="j" x1="10.602" x2="15.577" y1="11.543" y2="7.799" gradientUnits="userSpaceOnUse"><stop offset=".065" stop-color="#eea032"/><stop offset=".832" stop-color="#f16122"/></linearGradient><linearGradient id="k" x1="24.566" x2="23.057" y1="37.446" y2="30.764" gradientUnits="userSpaceOnUse"><stop stop-color="#e35b25"/><stop offset="1" stop-color="#faaf3a"/></linearGradient></defs></svg>