<svg width="21" height="19" viewBox="0 0 21 19" fill="none" xmlns="http://www.w3.org/2000/svg">
<path d="M13.2139 15.0787H6.77744C6.52281 15.0787 6.29648 15.22 6.16916 15.4319L4.64139 18.2006C4.51408 18.4125 4.59895 18.695 4.82529 18.8221C4.89602 18.8645 4.96675 18.8786 5.03748 18.8786H13.2422C14.2465 18.8786 15.0812 18.1017 15.1377 17.0987C15.2085 15.9828 14.3173 15.0787 13.2139 15.0787Z" fill="#1D91E8"/>
<path d="M11.304 0.938676C10.4128 0.387765 9.2245 0.656158 8.68695 1.54609C8.68695 1.56022 8.68695 1.56022 8.67281 1.56022L0.694454 15.9687C0.142759 16.8586 0.411533 18.0311 1.30273 18.5961C1.5998 18.7797 1.95345 18.8786 2.3071 18.8786C2.97196 18.8786 3.58024 18.5396 3.91975 17.9746L11.8981 3.5661C12.4639 2.66204 12.1952 1.48959 11.304 0.938676Z" fill="#FF4072"/>
<path d="M20.1033 15.9829L16.7224 9.90879C16.1707 9.03298 14.9825 8.75046 14.1054 9.30137C13.2284 9.83816 12.9455 10.9965 13.4689 11.8864L16.8498 17.9747C17.1893 18.5397 17.7975 18.8788 18.4624 18.8788C19.3536 18.8788 20.1175 18.2713 20.3297 17.4238C20.4428 16.9153 20.358 16.4208 20.1033 15.9829ZM13.0162 5.26135C11.9694 5.26135 11.1348 6.10891 11.1348 7.1401C11.1348 8.1713 11.9835 9.01885 13.0162 9.01885C14.063 9.01885 14.8976 8.1713 14.8976 7.1401C14.9259 6.10891 14.0771 5.26135 13.0162 5.26135Z" fill="#FFCD27"/>
</svg>
