<svg xmlns="http://www.w3.org/2000/svg" width="22" height="21" fill="none" viewBox="0 0 22 21"><path fill="#fd855d" fill-rule="evenodd" d="M5.908 4.501h.18c.867 0 1.659 0 2.304.087.201.027.402.063.606.117v-.204c0-.942 0-1.413-.294-1.707S7.939 2.5 6.997 2.5h-.249V1a.75.75 0 0 0-1.5 0v1.5h-.249c-.942 0-1.413 0-1.707.294s-.294.765-.294 1.707v.204c.201-.054.405-.09.606-.117.645-.087 1.44-.087 2.304-.087m15.09 14.748h-.999V5.773c0-1.341 0-2.01-.357-2.526-.357-.513-.984-.75-2.238-1.221-2.454-.921-3.684-1.38-4.545-.786-.861.597-.861 1.908-.861 4.53V8.5h.09c.867 0 1.659 0 2.304.087.711.096 1.461.321 2.082.939.618.618.843 1.371.939 2.082.087.645.087 1.44.087 2.304v5.34H16v-5.25c0-1.887 0-2.829-.585-3.414s-1.53-.585-3.414-.585H10c-1.887 0-2.829 0-3.414.585s-.585 1.53-.585 3.414v5.25h-1.5v-5.34c0-.867 0-1.659.087-2.304.096-.711.321-1.461.939-2.082.618-.618 1.368-.843 2.079-.939C8.251 8.5 9.046 8.5 9.91 8.5h.072c-.039-.936-.165-1.509-.567-1.914-.585-.585-1.53-.585-3.414-.585s-2.829 0-3.414.585c-.588.585-.588 1.527-.588 3.414v9.249H1a.75.75 0 0 0 0 1.5h20.001a.75.75 0 1 0-.003-1.5M13 16.75H8.998a.75.75 0 0 1 0-1.5h3.999a.75.75 0 0 1 .003 1.5m0-3H8.998a.75.75 0 0 1 0-1.5h3.999a.75.75 0 0 1 .003 1.5" clip-rule="evenodd"/></svg>