<svg xmlns="http://www.w3.org/2000/svg" width="12" height="12" fill="none" viewBox="0 0 12 12"><g clip-path="url(#a)"><circle cx="6" cy="6" r="6" fill="#fff"/><path fill="#39980c" d="M6.031 0a6 6 0 1 0 0 12 6 6 0 0 0 0-12m2.78 4.34L5.937 8.733l-.003.002c-.014.023-.023.048-.042.07-.026.028-.06.043-.09.065l-.023.016a.5.5 0 0 1-.147.062l-.05.011a.5.5 0 0 1-.127.002l-.088-.014a1 1 0 0 1-.086-.034c-.024-.011-.05-.014-.072-.029-.016-.01-.025-.027-.04-.04l-.019-.011-1.673-1.548a.525.525 0 0 1 .712-.77l1.212 1.12 2.53-3.87a.525.525 0 1 1 .88.575"/></g><defs><clipPath id="a"><path fill="#fff" d="M0 0h12v12H0z"/></clipPath></defs></svg>