<svg width="48" height="49" viewBox="0 0 48 49" fill="none" xmlns="http://www.w3.org/2000/svg">
<rect y="0.539062" width="48" height="48" rx="24" fill="#39399A"/>
<path d="M26.5717 26.649C26.7431 25.7919 27.1717 25.1919 27.8574 24.5061C28.7146 23.7347 29.1431 22.6204 29.1431 21.5061C29.1431 20.1422 28.6013 18.8341 27.6368 17.8696C26.6724 16.9051 25.3642 16.3633 24.0003 16.3633C22.6363 16.3633 21.3282 16.9051 20.3637 17.8696C19.3993 18.8341 18.8574 20.1422 18.8574 21.5061C18.8574 22.3633 19.0289 23.3919 20.1431 24.5061C20.7431 25.1061 21.2574 25.7919 21.4289 26.649" stroke="#E6E6F2" stroke-width="1.5" stroke-linecap="round" stroke-linejoin="round"/>
<path d="M21.4297 30.0762H26.5725" stroke="#E6E6F2" stroke-width="1.5" stroke-linecap="round" stroke-linejoin="round"/>
<path d="M22.2871 33.5059H25.7157" stroke="#E6E6F2" stroke-width="1.5" stroke-linecap="round" stroke-linejoin="round"/>
</svg>
