<svg width="16" height="17" viewBox="0 0 16 17" fill="none" xmlns="http://www.w3.org/2000/svg">
<g clip-path="url(#clip0_29603_107363)">
<g clip-path="url(#clip1_29603_107363)">
<g clip-path="url(#clip2_29603_107363)">
<path fill-rule="evenodd" clip-rule="evenodd" d="M7.99871 12.8335C10.9442 12.8335 13.332 10.4457 13.332 7.50018C13.332 4.55464 10.9442 2.16682 7.99871 2.16682C5.05318 2.16682 2.66536 4.55464 2.66536 7.50018C2.66536 10.4457 5.05318 12.8335 7.99871 12.8335ZM7.99871 14.1668C11.6806 14.1668 14.6654 11.1821 14.6654 7.50018C14.6654 3.81826 11.6806 0.833496 7.99871 0.833496C4.3168 0.833496 1.33203 3.81826 1.33203 7.50018C1.33203 11.1821 4.3168 14.1668 7.99871 14.1668ZM7.99871 6.8335C8.36687 6.8335 8.66535 7.08934 8.66535 7.40492V10.2621C8.66535 10.5777 8.36687 10.8335 7.99871 10.8335C7.6305 10.8335 7.33203 10.5777 7.33203 10.2621V7.40492C7.33203 7.08934 7.6305 6.8335 7.99871 6.8335ZM7.99871 5.50016C8.36687 5.50016 8.66535 5.20169 8.66535 4.8335C8.66535 4.4653 8.36687 4.16683 7.99871 4.16683C7.6305 4.16683 7.33203 4.4653 7.33203 4.8335C7.33203 5.20169 7.6305 5.50016 7.99871 5.50016Z" fill="#E6E6F2"/>
</g>
</g>
</g>
<defs>
<clipPath id="clip0_29603_107363">
<rect width="16" height="16" fill="white" transform="translate(0 0.5)"/>
</clipPath>
<clipPath id="clip1_29603_107363">
<rect width="16" height="16" fill="white" transform="translate(0 0.5)"/>
</clipPath>
<clipPath id="clip2_29603_107363">
<rect width="16" height="16" fill="white" transform="translate(0 0.5)"/>
</clipPath>
</defs>
</svg>
