<svg width="16" height="16" viewBox="0 0 16 16" fill="none" xmlns="http://www.w3.org/2000/svg">
<path d="M12.616 9.71521L14.1244 9.71521C14.4241 9.71521 14.667 9.47229 14.667 9.17263L14.667 1.78266C14.667 1.483 14.4241 1.24008 14.1244 1.24008L12.616 1.24008C12.3164 1.24008 12.0734 1.483 12.0734 1.78266L12.0734 9.17263C12.0734 9.47229 12.3164 9.71521 12.616 9.71521Z" stroke="white"/>
<path d="M6.52545 9.71523C6.94098 9.71523 7.20229 10.1632 6.99774 10.5249L6.3431 12.8613C6.05543 13.37 6.42292 14 7.00732 14C7.1995 14 7.3846 13.9275 7.52565 13.7969L11.3531 10.2544C11.575 10.049 11.7012 9.76037 11.7012 9.45801L11.7012 2.32526C11.7012 1.72594 11.2153 1.2401 10.616 1.2401L4.69065 1.2401C4.23314 1.2401 3.82477 1.52704 3.66971 1.95747L1.39845 8.26228C1.14368 8.96948 1.6677 9.71523 2.41938 9.71523L6.52545 9.71523Z" stroke="white"/>
</svg>
