<svg width="33" height="33" viewBox="0 0 33 33" fill="none" xmlns="http://www.w3.org/2000/svg">
<path fill-rule="evenodd" clip-rule="evenodd" d="M14.7288 21.7292L2.51453 14.0952C2.2168 13.9095 2.03613 13.5833 2.03613 13.2321C2.03613 12.8809 2.2168 12.5547 2.51453 12.369L14.7288 4.73503C15.0591 4.52892 15.4774 4.52892 15.8077 4.73503L28.022 12.369C28.3197 12.5547 28.5004 12.8809 28.5004 13.2321V22.0574C29.6862 22.4768 30.5361 23.6076 30.5361 24.9375V26.9732C30.5361 27.5355 30.0806 27.991 29.5183 27.991H25.4468C24.8845 27.991 24.429 27.5355 24.429 26.9732V24.9375C24.429 23.6076 25.2789 22.4768 26.4647 22.0574V15.0683L15.8077 21.7292C15.4774 21.9353 15.0591 21.9353 14.7288 21.7292ZM8.14328 20.0136L13.6499 23.4555C14.6403 24.0743 15.8963 24.0743 16.8867 23.4555L22.3933 20.0136V24.9375C22.3933 25.7472 22.0716 26.5238 21.4991 27.0968C20.926 27.6694 20.1494 27.991 19.3397 27.991C17.0806 27.991 13.456 27.991 11.1968 27.991C10.3871 27.991 9.61052 27.6694 9.03746 27.0968C8.46492 26.5238 8.14328 25.7472 8.14328 24.9375V20.0136Z" fill="#333333"/>
</svg>
