
<svg width="24" height="24" viewBox="0 0 24 24" fill="none" xmlns="http://www.w3.org/2000/svg">
<path d="M11.9996 1.50085C6.20971 1.50085 1.5 6.21053 1.5 12.0004C1.5 17.7903 6.20971 22.5 11.9996 22.5C17.7895 22.5 22.4992 17.7903 22.4992 12.0004C22.4992 6.21053 17.7895 1.50085 11.9996 1.50085ZM11.9996 3.00082C12.5578 3.00082 13.1015 3.05915 13.6314 3.15609L11.9996 4.32795L10.3678 3.15609C10.8976 3.05943 11.4413 3.00082 11.9996 3.00082ZM15.4594 3.68921C16.7717 4.2346 17.9224 5.08345 18.8328 6.14564L17.8206 9.31987L15.7245 10.001L12.7496 7.86532V5.63449L15.4594 3.68921ZM8.5383 3.69077L11.2496 5.63596V7.86679L8.27463 10.001L6.17853 9.31987L5.16636 6.14564C6.07638 5.08391 7.22668 4.23622 8.5383 3.69077ZM4.08681 7.70131L4.70202 9.62895L3.08636 10.8169C3.23257 9.70153 3.57219 8.64833 4.08681 7.70131ZM19.9124 7.70131C20.427 8.64833 20.7666 9.70153 20.9128 10.8169L19.2972 9.62895L19.9124 7.70131ZM11.9996 9.17333L14.7212 11.1274L13.665 14.2504H10.3341L9.27801 11.1274L11.9996 9.17333ZM5.71419 10.7466L7.79565 11.4233L8.96894 14.8963L7.65064 16.7097L4.32411 16.6898C3.60621 15.5156 3.15056 14.1663 3.03656 12.7159L5.71419 10.7466ZM18.285 10.7466L20.9626 12.7152C20.8488 14.1661 20.3932 15.5161 19.6751 16.6906L16.3485 16.7105L15.0302 14.8972L16.2035 11.4241L18.285 10.7466ZM10.2023 15.7503H13.7969L15.1342 17.5915L14.0884 20.7467C13.4171 20.906 12.7203 21 11.9996 21C11.2789 21 10.5821 20.9057 9.9108 20.7467L8.86494 17.5915L10.2023 15.7503ZM5.47689 18.1965L7.48951 18.2078L8.12083 20.1149C7.12371 19.6389 6.22897 18.9881 5.47689 18.1965ZM18.5223 18.1965C17.7702 18.9881 16.8755 19.6389 15.8783 20.1153L16.5097 18.2082L18.5223 18.1965Z" fill="#606060"/>
</svg>
