<svg width="109" height="16" viewBox="0 0 109 16" fill="none" xmlns="http://www.w3.org/2000/svg">
<g clip-path="url(#clip0_30162_10655)">
<mask id="mask0_30162_10655" style="mask-type:luminance" maskUnits="userSpaceOnUse" x="0" y="0" width="109" height="16">
<path d="M108.411 0.8125H0.429688V15.0982H108.411V0.8125Z" fill="white"/>
</mask>
<g mask="url(#mask0_30162_10655)">
<path d="M70.2738 14.7933L69.3062 11.1626H64.6237L63.6562 14.7933H61.7266L65.5776 1.11719H68.4543L72.3233 14.7933H70.2751H70.2738ZM65.0619 9.60179H68.8694L66.9656 2.48207L65.0619 9.60179Z" fill="white"/>
<path d="M80.0779 14.7922L78.3158 7.81946H78.1844L76.4015 14.7922H74.4951L71.9844 5.0625H73.8951L75.5008 12.0543L75.6322 12.0557L77.4151 5.0625H79.2429L80.9858 12.0557L81.1179 12.0543L82.7837 5.0625H84.5158L82.0051 14.7922H80.0779Z" fill="white"/>
<path d="M87.9431 15.0301C86.1817 15.0301 84.9531 13.8897 84.9531 12.2567C84.9531 10.4047 86.616 9.66036 87.6067 9.38272L90.7145 8.50093V8.09407C90.7145 6.99724 90.0424 6.36855 88.871 6.36855C87.8053 6.36855 86.9838 7.0612 86.6396 7.74843L86.611 7.80422L85.1724 7.03942L85.2417 6.90199C85.7317 5.89907 86.9888 4.82812 89.0481 4.82812C91.3245 4.82812 92.631 5.9535 92.631 7.91715V13.1072C92.631 13.8135 92.6717 14.3496 92.7503 14.7007L92.771 14.7946H90.8588L90.851 14.7511C90.791 14.4721 90.7531 14.1972 90.7338 13.9115L90.7231 13.755L90.6153 13.8693C89.886 14.6463 89.0367 15.0151 87.9417 15.0314L87.9431 15.0301ZM88.4953 10.534C87.8217 10.7476 86.9274 11.1436 86.9274 12.1179C86.9274 12.9943 87.5646 13.6066 88.476 13.6066C89.4546 13.6066 90.2674 13.0229 90.6996 12.4759L90.7145 12.4568V9.85493L88.4953 10.5326V10.534Z" fill="white"/>
<path d="M94.7578 14.7929V5.06322H96.5364V7.03367L96.6557 6.8935C97.75 5.61707 98.84 4.97341 99.99 4.92578V6.70163C98.5664 6.72749 97.4835 7.54397 96.6964 8.25837L96.675 8.2788V14.7916H94.7593L94.7578 14.7929Z" fill="white"/>
<path d="M104.57 15.0289C101.958 15.0289 100.336 13.1265 100.336 10.0647C100.336 6.83276 101.951 4.82422 104.55 4.82422C105.29 4.82422 106.347 4.99704 107.184 5.82033C107.996 6.62048 108.408 7.8411 108.408 9.45232V10.311H102.212V10.4974C102.212 12.3481 103.161 13.5456 104.63 13.5456C105.586 13.5456 106.309 13.1156 106.781 12.2678L106.87 12.1045L108.363 12.7427L108.297 12.8761C107.582 14.305 106.329 15.0289 104.57 15.0289ZM104.55 6.34695C104.069 6.34695 102.475 6.53883 102.233 9.01275L102.226 9.0876H106.612V8.88075C106.612 7.29408 105.842 6.3456 104.55 6.3456V6.34695Z" fill="white"/>
<path d="M0.429688 8.23157C0.429688 3.29869 2.58112 0.8125 5.97496 0.8125C8.32369 0.8125 10.0995 1.95694 10.5922 4.54246L10.6711 4.95751L8.65847 5.3916L8.57954 5.01738C8.20397 3.281 7.23779 2.61012 5.9355 2.61012C4.09977 2.61012 2.63963 4.20907 2.63963 8.0955C2.63963 11.7656 3.96233 13.3046 5.81711 13.3046C7.13981 13.3046 8.6789 12.6147 8.6789 10.1871V9.77336H5.77765V8.05607H10.6915V14.8641H8.93469L8.81633 13.1863C8.16447 14.5471 6.88262 15.1009 5.38302 15.1009C2.3838 15.0982 0.429688 12.7114 0.429688 8.23157Z" fill="white"/>
<path d="M18.2664 13.9146C17.6541 14.5651 16.8457 15.0795 15.5434 15.0986C13.6887 15.0986 12.4844 13.8548 12.4844 12.2572C12.4844 10.5208 13.9254 9.67171 15.1883 9.31649L18.2474 8.44828V8.09313C18.2474 6.98817 17.5561 6.43568 16.4715 6.43568C15.4645 6.43568 14.6562 7.06709 14.301 7.77742L14.2412 7.89585L12.6817 7.06709L12.781 6.86978C13.2152 5.98117 14.4194 4.75781 16.6484 4.75781C18.8774 4.75781 20.2994 5.88319 20.2994 7.91485V13.105C20.2994 13.5976 20.3199 14.2494 20.4179 14.6835L20.4573 14.8618H18.4052L18.3848 14.7624C18.3249 14.4862 18.2855 14.2099 18.2664 13.9146ZM16.0755 13.5404C16.9832 13.5404 17.7929 13.007 18.246 12.4355V9.94928L16.115 10.6011C15.3067 10.8569 14.595 11.272 14.595 12.1211C14.595 12.9703 15.1679 13.5418 16.0755 13.5418V13.5404Z" fill="white"/>
<path d="M32.2174 6.53366C31.4091 6.53366 30.5599 7.08615 30.0863 7.55971V14.8604H28.0343V8.05231C28.0343 7.04532 27.5213 6.5323 26.5347 6.5323C25.7263 6.5323 24.8772 7.08478 24.4036 7.55835V14.859H22.3516V4.99459H24.3057V6.08051C25.0555 5.29125 26.121 4.75781 27.226 4.75781C28.6072 4.75781 29.4359 5.38923 29.8306 6.25742C30.5803 5.36881 31.7248 4.75781 32.9087 4.75781C34.9417 4.75781 35.7704 6.11998 35.7704 7.59917V14.8604H33.7183V8.05231C33.7183 7.04532 33.2053 6.5323 32.2188 6.5323L32.2174 6.53366Z" fill="white"/>
<path d="M39.9728 13.9553L39.7755 14.863H38.0391V1.05078H40.0912V5.80679C40.6831 5.13591 41.5908 4.76033 42.5379 4.76033C44.7873 4.76033 46.3073 6.4382 46.3073 9.79261C46.3073 13.147 44.7084 15.1011 42.459 15.1011C41.452 15.1011 40.5253 14.686 39.9728 13.9566V13.9553ZM42.0643 13.4423C43.2292 13.4423 44.2158 12.3768 44.2158 9.85111C44.2158 7.32545 43.1897 6.43684 42.0249 6.43684C41.2356 6.43684 40.5838 6.83148 40.0912 7.3445V12.4951C40.6042 13.0285 41.2751 13.4423 42.0643 13.4423Z" fill="white"/>
<path d="M48 1.05078H50.0521V14.863H48V1.05078Z" fill="white"/>
<path d="M51.8672 10.0663C51.8672 6.94871 53.4267 4.75781 56.1497 4.75781C58.0643 4.75781 60.0755 5.90225 60.0755 9.45395V10.3807H53.8798V10.499C53.8798 12.4137 54.8868 13.4792 56.2272 13.4792C57.0954 13.4792 57.8262 13.124 58.3188 12.2355L58.4372 12.0177L60.0552 12.709L59.9572 12.9063C59.2264 14.3665 57.9241 15.0972 56.1687 15.0972C53.6825 15.0972 51.8672 13.3404 51.8672 10.065V10.0663ZM58.1419 9.01981V8.88103C58.1419 7.08478 57.1948 6.41391 56.1497 6.41391C55.1045 6.41391 54.0771 7.20318 53.9003 9.01846H58.1433L58.1419 9.01981Z" fill="white"/>
</g>
</g>
<defs>
<clipPath id="clip0_30162_10655">
<rect width="108.571" height="15" fill="white" transform="translate(0.429688 0.574219)"/>
</clipPath>
</defs>
</svg>
