<svg width="24" height="24" viewBox="0 0 24 24" fill="none" xmlns="http://www.w3.org/2000/svg">
<circle cx="12" cy="12" r="10" stroke="#FD855D" stroke-width="2"/>
<path d="M12.4197 7.12C12.3447 7.04125 12.236 7 12.1235 7C12.011 7 11.9022 7.045 11.8272 7.12L7.90473 11.17C7.01598 12.0925 6.75348 13.435 7.24473 14.515C7.57098 15.2275 8.14848 15.7413 8.86848 15.9662C9.14223 16.0487 9.43473 16.0938 9.73473 16.0938C10.106 16.0938 10.4885 16.03 10.8785 15.8988C10.6535 16.2812 10.2972 16.735 9.79098 16.9338C9.61098 17.005 9.50223 17.2 9.53598 17.395C9.57348 17.5863 9.74223 17.725 9.93723 17.725H14.306C14.4013 17.7246 14.4936 17.6908 14.5667 17.6297C14.6399 17.5685 14.6894 17.4837 14.7067 17.3899C14.7241 17.2962 14.7081 17.1993 14.6617 17.116C14.6152 17.0327 14.5411 16.9683 14.4522 16.9338C13.946 16.735 13.5897 16.2812 13.3685 15.8988C13.7585 16.0262 14.141 16.0938 14.5122 16.0938C14.8122 16.0938 15.101 16.0525 15.3747 15.9662C16.0947 15.7413 16.6722 15.2275 16.9985 14.515C17.4935 13.435 17.2272 12.0888 16.3385 11.17L12.4197 7.12Z" fill="#FD855D"/>
</svg>
