<svg width="91" height="27" viewBox="0 0 91 27" fill="none" xmlns="http://www.w3.org/2000/svg">
<g clip-path="url(#clip0_30162_10671)">
<path d="M34.8582 6.72344C34.8398 6.76176 34.8135 6.79574 34.781 6.82313C34.7485 6.85051 34.7106 6.87068 34.6697 6.88228L32.9472 7.39294C32.7363 7.45388 32.6271 7.39294 32.5409 7.18209C32.4419 6.76413 32.1948 6.39623 31.8453 6.14659C31.4957 5.89694 31.0676 5.78247 30.6401 5.82441C29.0188 5.82441 28.4638 6.78478 28.4638 8.07787V11.0528C28.4638 12.3459 29.011 13.3063 30.6401 13.3063C31.9807 13.3063 32.6665 12.6823 32.6665 11.3242V10.918H30.9155C30.882 10.9208 30.8482 10.916 30.8168 10.9039C30.7853 10.8918 30.757 10.8728 30.734 10.8482C30.711 10.8236 30.6938 10.7941 30.6838 10.7619C30.6738 10.7298 30.6712 10.6957 30.6762 10.6624V9.05044C30.672 9.01726 30.6751 8.98356 30.6854 8.95174C30.6957 8.91992 30.7129 8.89076 30.7357 8.86634C30.7586 8.84193 30.7866 8.82287 30.8176 8.81052C30.8487 8.79817 30.8822 8.79284 30.9155 8.79491H34.8155C34.8488 8.78988 34.8829 8.79246 34.915 8.80246C34.9472 8.81246 34.9767 8.82962 35.0013 8.85264C35.0259 8.87567 35.0449 8.90396 35.057 8.9354C35.0691 8.96685 35.0739 9.00062 35.0711 9.03419V11.4928C35.0711 13.8434 33.3445 15.6146 30.6612 15.6146C27.4795 15.6146 25.9922 13.73 25.9922 11.1564V8.01287C25.9922 5.42303 27.4795 3.55469 30.6612 3.55469C33.2348 3.55469 34.3987 5.02206 34.8643 6.49309M43.619 9.41809V15.1868C43.6207 15.2187 43.6157 15.2506 43.6043 15.2805C43.5929 15.3103 43.5754 15.3374 43.5528 15.36C43.5302 15.3825 43.5031 15.4001 43.4733 15.4115C43.4435 15.4229 43.4116 15.4279 43.3797 15.4261H41.6206C41.5876 15.4297 41.5542 15.426 41.5227 15.4155C41.4912 15.4049 41.4623 15.3877 41.4381 15.365C41.4138 15.3423 41.3947 15.3146 41.3821 15.2839C41.3696 15.2531 41.3637 15.22 41.3651 15.1868V14.2423C41.1153 14.6628 40.7588 15.0097 40.3318 15.2482C39.9047 15.4866 39.4223 15.6079 38.9333 15.6C37.2717 15.6 36.1976 14.5299 36.1976 12.8846C36.1976 11.2393 37.2067 10.3253 39.667 10.153C40.1985 10.1125 40.7324 10.1125 41.2639 10.153V9.4965C41.2639 8.63322 40.8171 8.28059 40.048 8.28059C39.7809 8.24279 39.5092 8.30476 39.2849 8.45465C39.0606 8.60454 38.8994 8.83184 38.8321 9.09309C38.7509 9.28362 38.6903 9.31612 38.512 9.26737L36.7529 8.8205C36.5787 8.77175 36.5624 8.67466 36.5949 8.54912C36.8342 7.28447 38.0338 6.35537 40.1415 6.35537C42.3624 6.35537 43.6108 7.41162 43.6108 9.39494M41.2603 12.4146V11.6082C40.7909 11.5912 40.3209 11.6075 39.8538 11.6569C38.9621 11.7662 38.4799 12.038 38.4799 12.727C38.4799 13.3469 38.8862 13.6833 39.5825 13.6833C39.9605 13.6911 40.3304 13.5731 40.6341 13.3479C40.9377 13.1227 41.158 12.803 41.2603 12.439M49.9662 6.37975C50.4584 6.37087 50.9398 6.52479 51.3356 6.81762C51.7313 7.11044 52.0193 7.52576 52.1547 7.99906C52.8112 7.03869 53.6099 6.37772 54.7283 6.37772C56.2765 6.37772 57.1601 7.59362 57.1601 9.44572V15.1868C57.1576 15.2217 57.1481 15.2557 57.1321 15.2867C57.1161 15.3178 57.0941 15.3453 57.0672 15.3677C57.0403 15.39 57.0093 15.4067 56.9758 15.4168C56.9423 15.4268 56.9072 15.43 56.8725 15.4261H55.0366C55.0019 15.43 54.9667 15.4269 54.9332 15.4169C54.8998 15.4069 54.8686 15.3902 54.8418 15.3678C54.8149 15.3455 54.7928 15.3179 54.7769 15.2868C54.761 15.2557 54.7515 15.2217 54.749 15.1868V9.86497C54.749 9.05247 54.3964 8.58406 53.774 8.58406C53.1516 8.58406 52.6393 9.13128 52.4001 9.96206V15.1864C52.4023 15.2171 52.3982 15.2478 52.388 15.2768C52.3778 15.3057 52.3617 15.3323 52.3408 15.3548C52.3198 15.3772 52.2945 15.3951 52.2663 15.4073C52.2381 15.4195 52.2077 15.4258 52.177 15.4257H50.1884C50.0467 15.4257 49.9817 15.3286 49.9817 15.1864V9.86456C49.9817 9.05206 49.629 8.58366 49.0067 8.58366C48.3843 8.58366 47.8558 9.15931 47.6327 9.97791V15.186C47.6359 15.2182 47.6319 15.2507 47.6209 15.2812C47.61 15.3117 47.5925 15.3393 47.5696 15.3622C47.5467 15.3851 47.5191 15.4026 47.4886 15.4135C47.4581 15.4244 47.4256 15.4285 47.3934 15.4253H45.4434C45.4112 15.4285 45.3787 15.4244 45.3483 15.4135C45.3178 15.4026 45.2901 15.3851 45.2672 15.3622C45.2444 15.3393 45.2268 15.3117 45.2159 15.2812C45.205 15.2507 45.201 15.2182 45.2042 15.186V6.79697C45.2041 6.76626 45.2103 6.73587 45.2225 6.70769C45.2348 6.67951 45.2527 6.65416 45.2751 6.63323C45.2976 6.61229 45.3241 6.59622 45.3531 6.58601C45.3821 6.57581 45.4128 6.5717 45.4434 6.57394H47.3122C47.343 6.57106 47.374 6.57473 47.4032 6.5847C47.4325 6.59467 47.4593 6.61071 47.4819 6.63178C47.5045 6.65284 47.5223 6.67845 47.5343 6.70692C47.5463 6.73539 47.5522 6.76608 47.5515 6.79697V7.80203C47.8089 7.38359 48.1654 7.03498 48.5896 6.787C49.0137 6.53902 49.4924 6.39929 49.9833 6.38016M67.2127 6.57475C67.2615 6.78153 67.2128 6.94038 67.006 6.981L65.3119 7.47541C65.2738 7.49377 65.2318 7.5028 65.1895 7.50178C65.1472 7.50075 65.1057 7.48968 65.0685 7.46949C65.0313 7.4493 64.9994 7.42056 64.9755 7.38564C64.9515 7.35072 64.9362 7.31061 64.9308 7.26863C64.6871 6.45613 64.2743 5.82969 63.0909 5.82969C61.6357 5.82969 61.1738 6.79006 61.1738 8.08316V11.0581C61.1738 12.3512 61.702 13.3116 63.0909 13.3116C64.3393 13.3116 64.8175 12.6063 65.008 11.7272C65.0123 11.6842 65.027 11.643 65.051 11.607C65.075 11.5711 65.1074 11.5416 65.1455 11.5212C65.1835 11.5007 65.226 11.49 65.2692 11.4899C65.3124 11.4897 65.355 11.5002 65.3932 11.5204L67.0913 12.0717C67.1323 12.0836 67.1705 12.1037 67.2035 12.1309C67.2365 12.1582 67.2635 12.1919 67.2828 12.23C67.3022 12.2681 67.3136 12.3097 67.3162 12.3524C67.3188 12.395 67.3126 12.4378 67.2981 12.478C66.8918 14.2045 65.6523 15.6061 63.0625 15.6061C60.1566 15.6061 58.6852 13.7215 58.6852 11.1479V8.01287C58.6852 5.42303 60.1846 3.55469 63.0625 3.55469C65.5873 3.55469 66.7712 4.89531 67.2168 6.59019M75.7172 9.42094V15.1897C75.719 15.2216 75.714 15.2535 75.7026 15.2833C75.6912 15.3131 75.6736 15.3402 75.651 15.3628C75.6284 15.3854 75.6013 15.4029 75.5715 15.4143C75.5417 15.4257 75.5098 15.4307 75.4779 15.429H73.7188C73.6858 15.4325 73.6524 15.4289 73.6209 15.4183C73.5894 15.4078 73.5605 15.3906 73.5363 15.3679C73.512 15.3451 73.493 15.3175 73.4804 15.2867C73.4678 15.256 73.462 15.2229 73.4633 15.1897V14.2423C73.2135 14.6628 72.857 15.0097 72.43 15.2482C72.0029 15.4866 71.5205 15.6079 71.0315 15.6C69.3699 15.6 68.2999 14.5299 68.2999 12.8846C68.2999 11.2393 69.3049 10.3253 71.7652 10.153C72.2981 10.1124 72.8333 10.1124 73.3662 10.153V9.4965C73.3662 8.63322 72.9165 8.28059 72.1503 8.28059C71.8835 8.24497 71.6128 8.30782 71.389 8.45738C71.1652 8.60694 71.0036 8.83295 70.9344 9.09309C70.8572 9.28362 70.7926 9.31612 70.6143 9.26737L68.8593 8.8205C68.6809 8.77175 68.6647 8.67466 68.6968 8.54912C68.9361 7.28447 70.1357 6.35537 72.247 6.35537C74.468 6.35537 75.7123 7.41162 75.7123 9.39494M73.3658 12.4146V11.6082C72.8964 11.5911 72.4264 11.6074 71.9594 11.6569C71.0656 11.7662 70.5854 12.038 70.5854 12.727C70.5854 13.3469 70.9917 13.6833 71.688 13.6833C72.0658 13.6904 72.4354 13.5722 72.7389 13.347C73.0425 13.1219 73.2629 12.8026 73.3658 12.439M82.5621 6.73237V8.44269C82.5621 8.64947 82.4809 8.73031 82.2745 8.73031H82.0153C80.7384 8.73031 79.9889 9.30597 79.7334 10.2663V15.1868C79.7356 15.2165 79.7318 15.2462 79.7224 15.2744C79.7129 15.3026 79.6979 15.3286 79.6783 15.3508C79.6587 15.3731 79.6348 15.3913 79.608 15.4042C79.5813 15.4171 79.5522 15.4246 79.5225 15.4261H77.4962C77.4665 15.4246 77.4374 15.4171 77.4107 15.4042C77.3839 15.3913 77.36 15.3731 77.3404 15.3508C77.3208 15.3286 77.3058 15.3026 77.2963 15.2744C77.2868 15.2462 77.2831 15.2165 77.2853 15.1868V6.79697C77.2839 6.7659 77.2893 6.7349 77.3011 6.70611C77.3129 6.67732 77.3307 6.65143 77.3535 6.63023C77.3762 6.60902 77.4033 6.59301 77.4329 6.58329C77.4624 6.57357 77.4937 6.57038 77.5246 6.57394H79.3483C79.5388 6.57394 79.5875 6.69947 79.5875 6.82947V8.01287C79.8217 7.52956 80.1909 7.12452 80.6506 6.84684C81.1103 6.56916 81.6406 6.43076 82.1774 6.44841C82.4975 6.44841 82.5836 6.49716 82.5836 6.71978M85.7004 11.7167V12.053C85.7004 12.9813 86.1826 13.6337 87.3217 13.6337C88.4608 13.6337 88.7282 13.2275 89.0158 12.6933C89.1576 12.454 89.2226 12.4219 89.4777 12.5308L90.7371 13.171C90.9967 13.3006 91.0125 13.4266 90.8996 13.6654C90.3564 14.8813 88.9987 15.5988 87.3047 15.5988C84.7453 15.5988 83.4047 14.0831 83.4047 12.0039V9.97872C83.4047 7.95234 84.664 6.37975 87.2876 6.37975C89.7803 6.37975 90.9963 7.96413 90.9963 9.93038V11.3368C90.9963 11.5761 90.915 11.7431 90.59 11.7431L85.7004 11.7167ZM85.7004 9.84791V10.1522H88.7846V9.84831C88.8039 9.64214 88.7776 9.43425 88.7074 9.23941C88.6373 9.04457 88.5252 8.86756 88.3789 8.72095C88.2327 8.57433 88.056 8.46171 87.8614 8.39108C87.6667 8.32045 87.4589 8.29355 87.2527 8.31228C87.0455 8.29329 86.8366 8.31986 86.6408 8.3901C86.4449 8.46034 86.2668 8.57257 86.1189 8.71892C85.971 8.86527 85.8569 9.04219 85.7846 9.23728C85.7123 9.43238 85.6836 9.64052 85.7004 9.84791Z" fill="white"/>
<path d="M11.0446 0.074235H0.320437C0.277485 0.0738055 0.234874 0.0818947 0.195067 0.0980351C0.15526 0.114175 0.119048 0.138047 0.088524 0.168269C0.0579998 0.19849 0.0337694 0.234463 0.0172338 0.274108C0.000698163 0.313752 -0.00781465 0.356281 -0.0078125 0.399235V15.9952C-0.00651998 18.6677 1.05603 21.2303 2.94624 23.1196C4.83644 25.0089 7.39956 26.0702 10.0721 26.0702H11.0446C13.7167 26.0702 16.2793 25.0087 18.1687 23.1193C20.0582 21.2298 21.1196 18.6672 21.1196 15.9952V10.15C21.1196 8.82698 20.859 7.51687 20.3527 6.29451C19.8464 5.07216 19.1043 3.9615 18.1687 3.02595C17.2332 2.0904 16.1225 1.34828 14.9002 0.841961C13.6778 0.335645 12.3677 0.0750475 11.0446 0.0750475M17.8822 16.1646C17.8822 19.9581 15.0978 22.8238 10.7611 22.8238C5.62606 22.8238 3.22634 19.777 3.22634 15.6178V10.5392C3.22634 6.35486 5.62566 3.31286 10.7529 3.31286C14.9073 3.31286 16.7918 5.6878 17.5418 8.06314C17.5707 8.12618 17.5857 8.19471 17.5857 8.26405C17.5857 8.3334 17.5707 8.40194 17.5419 8.46498C17.513 8.52803 17.4708 8.58411 17.4183 8.62938C17.3658 8.67466 17.3041 8.70808 17.2375 8.72736L14.449 9.53986C14.1167 9.64102 13.9343 9.53986 13.8331 9.20349C13.3915 7.78486 12.4633 7.00974 10.7611 7.00974C8.12653 7.00974 7.25106 8.55795 7.25106 10.6575V15.4675C7.25106 17.5588 8.12653 19.1152 10.7611 19.1152C12.9292 19.1152 14.0643 18.106 14.0643 15.9131V15.285H11.1584C11.1033 15.2926 11.0471 15.2873 10.9944 15.2695C10.9417 15.2517 10.8938 15.222 10.8545 15.1827C10.8151 15.1434 10.7854 15.0955 10.7677 15.0427C10.7499 14.99 10.7446 14.9339 10.7521 14.8788V12.217C10.7477 12.1626 10.7552 12.1078 10.774 12.0565C10.7929 12.0052 10.8227 11.9586 10.8613 11.92C10.9 11.8813 10.9465 11.8516 10.9978 11.8327C11.0491 11.8139 11.1039 11.8064 11.1584 11.8108H17.4687C17.5218 11.8039 17.5759 11.8089 17.6269 11.8255C17.6778 11.8421 17.7245 11.8698 17.7634 11.9067C17.8023 11.9436 17.8325 11.9887 17.8518 12.0387C17.8711 12.0888 17.879 12.1425 17.8749 12.1959L17.8822 16.1646Z" fill="white"/>
<path d="M28.3683 18.876C28.3729 18.884 28.3756 18.893 28.3762 18.9023C28.3768 18.9116 28.3753 18.9208 28.3718 18.9294C28.3683 18.938 28.3628 18.9457 28.3559 18.9518C28.349 18.958 28.3407 18.9625 28.3318 18.965L28.0474 19.0539C28.0027 19.0539 27.9783 19.0539 27.9584 19.0174C27.9175 18.8598 27.8223 18.7218 27.6895 18.6276C27.5568 18.5334 27.3951 18.4892 27.2329 18.5026C27.1226 18.4876 27.0104 18.4982 26.905 18.5337C26.7995 18.5692 26.7037 18.6287 26.625 18.7073C26.5464 18.786 26.487 18.8818 26.4515 18.9872C26.4159 19.0927 26.4053 19.2049 26.4204 19.3151V20.3893C26.4053 20.4995 26.4159 20.6117 26.4515 20.7172C26.487 20.8226 26.5464 20.9184 26.625 20.9971C26.7037 21.0758 26.7995 21.1352 26.905 21.1707C27.0104 21.2062 27.1226 21.2168 27.2329 21.2018C27.6907 21.2018 27.9909 20.9909 27.9909 20.5168V20.1106H27.3267C27.2901 20.1106 27.2698 20.1106 27.2698 20.0496V19.8246C27.2698 19.784 27.2698 19.7636 27.3267 19.7636H28.3561C28.3646 19.7624 28.3733 19.7631 28.3814 19.7656C28.3896 19.7682 28.3971 19.7726 28.4034 19.7784C28.4096 19.7843 28.4145 19.7915 28.4175 19.7995C28.4206 19.8075 28.4218 19.816 28.4211 19.8246V20.5705C28.4226 20.7219 28.3919 20.872 28.3313 21.0108C28.2706 21.1495 28.1812 21.2739 28.0691 21.3757C27.957 21.4776 27.8246 21.5545 27.6806 21.6016C27.5366 21.6486 27.3843 21.6646 27.2337 21.6486C27.068 21.6681 26.9001 21.6503 26.7422 21.5964C26.5843 21.5426 26.4404 21.4541 26.3211 21.3375C26.2018 21.2209 26.1101 21.0791 26.0527 20.9225C25.9953 20.7659 25.9737 20.5984 25.9893 20.4323V19.2948C25.9737 19.1288 25.9954 18.9613 26.0529 18.8048C26.1103 18.6482 26.202 18.5065 26.3213 18.3899C26.4406 18.2733 26.5844 18.1849 26.7423 18.1311C26.9001 18.0773 27.068 18.0595 27.2337 18.0789C27.4845 18.0589 27.7344 18.1263 27.9412 18.2696C28.148 18.4128 28.2989 18.6232 28.3683 18.865M30.5568 20.8024V20.3962C30.3651 20.3841 30.1728 20.3841 29.9811 20.3962C29.6245 20.4368 29.4095 20.5623 29.4095 20.8581C29.4049 20.9201 29.4146 20.9824 29.4379 21.0401C29.4612 21.0978 29.4974 21.1494 29.5438 21.1909C29.5901 21.2324 29.6454 21.2626 29.7053 21.2794C29.7652 21.2961 29.8282 21.2989 29.8893 21.2875C30.037 21.2859 30.1806 21.2385 30.3003 21.1519C30.4199 21.0652 30.5097 20.9435 30.5572 20.8036M30.9635 19.7661V21.5373C30.9635 21.5739 30.9635 21.5901 30.9025 21.5901H30.6181C30.5775 21.5901 30.5572 21.5901 30.5572 21.5373V21.201C30.4793 21.3328 30.3684 21.442 30.2355 21.5181C30.1026 21.5942 29.9523 21.6344 29.7991 21.6348C29.6944 21.6455 29.5886 21.6337 29.4889 21.6002C29.3891 21.5667 29.2977 21.5121 29.2207 21.4403C29.1438 21.3685 29.083 21.2811 29.0427 21.1839C29.0023 21.0867 28.9832 20.982 28.9866 20.8768C28.9866 20.4027 29.3068 20.1431 29.9312 20.0947C30.1349 20.0806 30.3393 20.0806 30.543 20.0947V19.7961C30.543 19.4557 30.3443 19.3139 30.0242 19.3139C29.9103 19.295 29.7934 19.3195 29.6966 19.3825C29.5998 19.4455 29.5302 19.5425 29.5014 19.6544C29.5014 19.699 29.4689 19.7031 29.4201 19.695L29.1447 19.6178C29.1 19.6178 29.0878 19.5853 29.1 19.5487C29.1849 19.192 29.5062 18.9609 30.0344 18.9609C30.5625 18.9609 30.9586 19.2205 30.9586 19.7734M32.8229 18.9548C32.9634 18.9519 33.1009 18.9962 33.2133 19.0807C33.3257 19.1652 33.4065 19.2849 33.4428 19.4208C33.5179 19.2849 33.6267 19.1706 33.7588 19.089C33.8908 19.0074 34.0417 18.9612 34.1968 18.9548C34.2957 18.9556 34.3934 18.9774 34.4833 19.0187C34.5732 19.06 34.6534 19.1198 34.7185 19.1943C34.7836 19.2688 34.8323 19.3562 34.8612 19.4509C34.8901 19.5455 34.8986 19.6452 34.8862 19.7433V21.5308C34.8862 21.5715 34.8618 21.5877 34.8212 21.5877H34.5417C34.497 21.5877 34.4767 21.5877 34.4767 21.5308V19.8246C34.4767 19.5085 34.3349 19.3371 34.0705 19.3371C33.9384 19.3522 33.814 19.4068 33.7134 19.4938C33.6129 19.5808 33.5409 19.6961 33.507 19.8246V21.539C33.507 21.5796 33.507 21.5958 33.4501 21.5958H33.1393C33.0946 21.5958 33.0825 21.5958 33.0825 21.539V19.8246C33.0825 19.5085 32.9447 19.3371 32.6762 19.3371C32.5455 19.356 32.423 19.4119 32.3231 19.4983C32.2232 19.5847 32.1502 19.698 32.1127 19.8246V21.5186C32.1127 21.5593 32.1127 21.5755 32.0559 21.5755H31.7479C31.7032 21.5755 31.691 21.5755 31.691 21.5186V19.0543C31.691 19.0218 31.691 19.0015 31.7479 19.0015H32.0477C32.0924 19.0015 32.1046 19.0218 32.1046 19.0543V19.3948C32.1778 19.2662 32.2823 19.1583 32.4085 19.081C32.5347 19.0038 32.6783 18.9598 32.8261 18.9532M36.044 20.0029V20.603C36.0381 20.6895 36.0507 20.7762 36.0809 20.8575C36.1111 20.9388 36.1582 21.0127 36.2191 21.0744C36.28 21.1361 36.3534 21.1841 36.4343 21.2153C36.5152 21.2465 36.6018 21.2602 36.6883 21.2554C37.0613 21.2554 37.2843 21.0364 37.2843 20.603V19.9989C37.2843 19.569 37.0613 19.3383 36.6883 19.3383C36.602 19.3364 36.5162 19.3525 36.4365 19.3857C36.3567 19.4188 36.2848 19.4683 36.2253 19.5308C36.1658 19.5934 36.12 19.6677 36.0909 19.749C36.0618 19.8303 36.05 19.9168 36.0562 20.0029M36.0562 18.0655V19.3586C36.1356 19.2292 36.2481 19.1233 36.3821 19.0519C36.516 18.9805 36.6666 18.9461 36.8183 18.9524C36.9441 18.9504 37.0688 18.9753 37.1841 19.0253C37.2995 19.0754 37.4028 19.1495 37.4872 19.2428C37.5717 19.336 37.6352 19.4461 37.6736 19.5659C37.712 19.6856 37.7245 19.8122 37.71 19.9371V20.6545C37.724 20.7806 37.7108 20.9081 37.6711 21.0285C37.6315 21.1489 37.5664 21.2594 37.4802 21.3524C37.3941 21.4455 37.289 21.5189 37.1719 21.5677C37.0549 21.6165 36.9288 21.6395 36.8021 21.6352C36.6517 21.64 36.5028 21.6049 36.3704 21.5336C36.238 21.4622 36.1268 21.3572 36.0481 21.229V21.5288C36.0481 21.5654 36.0196 21.5775 35.9912 21.5775H35.6914C35.6548 21.5775 35.6345 21.5775 35.6345 21.5288V18.0655C35.6339 18.0584 35.6348 18.0513 35.6373 18.0446C35.6397 18.0379 35.6436 18.0318 35.6486 18.0268C35.6536 18.0218 35.6597 18.0179 35.6664 18.0155C35.6731 18.013 35.6802 18.0121 35.6873 18.0127H36.0075C36.044 18.0127 36.0562 18.0127 36.0562 18.0655ZM38.796 18.0655V21.5308C38.796 21.5715 38.796 21.5877 38.7391 21.5877H38.4311C38.3824 21.5877 38.3702 21.5877 38.3702 21.5308V18.0655C38.3702 18.029 38.3702 18.0086 38.4311 18.0086H38.7391C38.7469 18.0072 38.7549 18.0077 38.7625 18.01C38.77 18.0123 38.7769 18.0165 38.7825 18.0221C38.7881 18.0277 38.7923 18.0346 38.7946 18.0421C38.7969 18.0497 38.7974 18.0577 38.796 18.0655ZM39.9318 19.0568V21.5349C39.9318 21.5715 39.9318 21.5877 39.879 21.5877H39.5711C39.5223 21.5877 39.5101 21.5877 39.5101 21.5349V19.0568C39.5101 19.0202 39.5101 19.004 39.5711 19.004H39.879C39.9196 19.004 39.9318 19.004 39.9318 19.0568ZM39.9318 18.0818V18.5355C39.9318 18.5802 39.9318 18.6046 39.8628 18.6046H39.5784C39.569 18.606 39.5594 18.6051 39.5504 18.6021C39.5414 18.5991 39.5333 18.5941 39.5265 18.5874C39.5198 18.5807 39.5148 18.5725 39.5118 18.5635C39.5088 18.5545 39.508 18.5449 39.5093 18.5355V18.0818C39.508 18.0724 39.5088 18.0628 39.5118 18.0538C39.5148 18.0448 39.5198 18.0366 39.5265 18.0299C39.5333 18.0232 39.5414 18.0182 39.5504 18.0152C39.5594 18.0122 39.569 18.0113 39.5784 18.0127H39.8628C39.9156 18.0127 39.9318 18.0371 39.9318 18.0818ZM41.0868 19.8449V21.5349C41.0868 21.5715 41.0868 21.5877 41.034 21.5877H40.7423C40.6935 21.5877 40.6814 21.5877 40.6814 21.5349V19.0543C40.6814 19.0218 40.6814 19.0015 40.7382 19.0015H41.038C41.0827 19.0015 41.0949 19.0218 41.0949 19.0543V19.3948C41.1839 19.2603 41.3044 19.1497 41.4461 19.0727C41.5878 18.9957 41.7462 18.9546 41.9074 18.9532C42.0161 18.9503 42.1241 18.9711 42.2239 19.0144C42.3236 19.0576 42.4127 19.1221 42.485 19.2033C42.5572 19.2846 42.6108 19.3807 42.6419 19.4848C42.6731 19.589 42.6812 19.6987 42.6655 19.8063V21.5349C42.6655 21.5715 42.6655 21.5877 42.6045 21.5877H42.2966C42.256 21.5877 42.2357 21.5877 42.2357 21.5349V19.8733C42.2357 19.541 42.0858 19.3452 41.7616 19.3452C41.6157 19.3543 41.4758 19.4065 41.3596 19.4953C41.2435 19.584 41.1563 19.7053 41.1091 19.8437M43.6624 19.8843C43.6558 19.9612 43.6664 20.0386 43.6935 20.1109C43.7206 20.1831 43.7635 20.2485 43.8191 20.3021C43.8746 20.3557 43.9414 20.3962 44.0146 20.4207C44.0878 20.4452 44.1655 20.4531 44.2421 20.4437C44.3167 20.4535 44.3925 20.4461 44.4637 20.4222C44.535 20.3983 44.5998 20.3584 44.6534 20.3057C44.7069 20.2529 44.7477 20.1886 44.7727 20.1177C44.7977 20.0468 44.8062 19.9712 44.7975 19.8965C44.803 19.8186 44.7924 19.7404 44.7664 19.6668C44.7404 19.5932 44.6995 19.5257 44.6463 19.4686C44.5931 19.4115 44.5287 19.3659 44.4571 19.3348C44.3855 19.3036 44.3082 19.2875 44.2302 19.2875C44.1521 19.2875 44.0748 19.3036 44.0032 19.3348C43.9317 19.3659 43.8672 19.4115 43.814 19.4686C43.7608 19.5257 43.7199 19.5932 43.6939 19.6668C43.6679 19.7404 43.6573 19.8186 43.6628 19.8965M45.0205 21.842C45.0205 21.6555 44.9153 21.4813 44.533 21.4813H44.0589C43.7022 21.4813 43.593 21.6637 43.593 21.8501C43.593 22.1093 43.7961 22.28 44.2941 22.28C44.7922 22.28 45.0197 22.1016 45.0197 21.8424M45.426 21.814C45.426 22.2202 45.1099 22.5883 44.271 22.5883C43.4967 22.5883 43.1928 22.2966 43.1928 21.8912C43.1945 21.7674 43.2345 21.6472 43.3073 21.5471C43.38 21.4469 43.4819 21.3717 43.599 21.3318C43.5458 21.2944 43.5017 21.2455 43.4701 21.1886C43.4385 21.1318 43.4202 21.0685 43.4166 21.0035C43.4195 20.9234 43.4461 20.8459 43.4929 20.7809C43.5398 20.7158 43.6048 20.6661 43.6799 20.6379C43.5512 20.5638 43.4453 20.4558 43.3737 20.3258C43.3021 20.1957 43.2675 20.0485 43.2736 19.9001C43.2675 19.7752 43.2889 19.6505 43.3363 19.5348C43.3837 19.419 43.456 19.3152 43.548 19.2305C43.64 19.1458 43.7495 19.0823 43.8688 19.0447C43.988 19.007 44.1141 18.996 44.2381 19.0125H45.3675C45.4 19.0125 45.4162 19.0328 45.4162 19.0694V19.3005C45.4162 19.3452 45.3918 19.3615 45.3593 19.3615H44.9096C44.9969 19.4334 45.0662 19.5248 45.1119 19.6282C45.1576 19.7317 45.1785 19.8444 45.1729 19.9574C45.1729 20.4356 44.8527 20.7699 44.2385 20.7699H44.0268C43.8485 20.7699 43.7713 20.8512 43.7713 20.9483C43.7713 21.0454 43.8525 21.1266 44.0268 21.1266H44.5822C45.1915 21.1266 45.4292 21.4305 45.4292 21.8075M49.2959 18.8081C49.3 18.816 49.3021 18.8248 49.3019 18.8337C49.3017 18.8426 49.2992 18.8513 49.2948 18.859C49.2903 18.8667 49.284 18.8732 49.2764 18.8778C49.2688 18.8824 49.2601 18.885 49.2512 18.8853L48.988 18.9865C48.9797 18.9897 48.9709 18.9912 48.9621 18.9908C48.9532 18.9905 48.9445 18.9884 48.9365 18.9846C48.9286 18.9808 48.9214 18.9754 48.9156 18.9687C48.9098 18.9621 48.9054 18.9543 48.9026 18.9459C48.8578 18.8065 48.7676 18.6861 48.6464 18.6039C48.5252 18.5217 48.3801 18.4823 48.234 18.4921C47.8277 18.4921 47.5978 18.6826 47.5978 18.9946C47.5978 19.3066 47.768 19.4009 48.4103 19.6592C49.0525 19.9176 49.3264 20.1943 49.3264 20.6749C49.3228 20.8136 49.2904 20.95 49.2311 21.0754C49.1718 21.2009 49.087 21.3125 48.982 21.4033C48.8771 21.4941 48.7544 21.562 48.6217 21.6026C48.4891 21.6432 48.3494 21.6557 48.2116 21.6393C47.9598 21.665 47.7072 21.5999 47.4991 21.4558C47.2911 21.3116 47.1414 21.0979 47.077 20.8532C47.077 20.8045 47.077 20.7841 47.1176 20.7683L47.393 20.6793C47.4458 20.6793 47.4661 20.6793 47.4783 20.7281C47.5177 20.8878 47.6138 21.0278 47.7489 21.1218C47.8839 21.2157 48.0486 21.2573 48.212 21.2387C48.6183 21.2387 48.8807 21.0356 48.8807 20.7078C48.8807 20.3799 48.7267 20.2609 48.1389 20.035C47.4336 19.7555 47.1663 19.4797 47.1663 19.0015C47.1714 18.8691 47.204 18.7393 47.262 18.6201C47.3199 18.501 47.402 18.3952 47.503 18.3094C47.6039 18.2237 47.7217 18.1599 47.8486 18.122C47.9756 18.0841 48.109 18.0731 48.2405 18.0895C48.4726 18.0734 48.7036 18.1352 48.8967 18.2652C49.0897 18.3951 49.234 18.5858 49.3065 18.8069M49.9508 20.789V19.0568C49.9508 19.0202 49.9711 18.9999 50.0117 18.9999H50.3196C50.3603 18.9999 50.3806 19.0202 50.3806 19.0568V20.7143C50.3806 21.0506 50.5305 21.2452 50.8506 21.2452C50.9973 21.2367 51.1379 21.1842 51.2543 21.0945C51.3707 21.0049 51.4574 20.8823 51.503 20.7427V19.0568C51.503 19.0202 51.503 18.9999 51.564 18.9999H51.8679C51.9166 18.9999 51.9288 19.0202 51.9288 19.0568V21.5308C51.9288 21.5674 51.9288 21.5877 51.8719 21.5877H51.5721C51.5643 21.5892 51.5563 21.5887 51.5487 21.5864C51.5412 21.584 51.5343 21.5799 51.5287 21.5743C51.5231 21.5687 51.5189 21.5618 51.5166 21.5542C51.5142 21.5466 51.5138 21.5386 51.5152 21.5308V21.1945C51.4276 21.3305 51.3074 21.4426 51.1655 21.5207C51.0237 21.5987 50.8646 21.6402 50.7027 21.6413C50.5943 21.6435 50.4866 21.6222 50.3872 21.5787C50.2877 21.5353 50.1989 21.4708 50.1269 21.3897C50.0548 21.3086 50.0012 21.2128 49.9697 21.1089C49.9383 21.0051 49.9297 20.8957 49.9447 20.7882M54.305 20.6005V19.9826C54.3182 19.8989 54.3123 19.8133 54.2879 19.7321C54.2634 19.651 54.221 19.5764 54.1637 19.5139C54.1064 19.4514 54.0358 19.4027 53.9571 19.3713C53.8783 19.3399 53.7935 19.3267 53.709 19.3326C53.6237 19.3302 53.5389 19.3455 53.46 19.3778C53.3811 19.41 53.3097 19.4584 53.2506 19.5199C53.1915 19.5813 53.1458 19.6544 53.1166 19.7345C53.0874 19.8146 53.0752 19.9 53.0809 19.985V20.5944C53.0746 20.6804 53.0864 20.7667 53.1156 20.8478C53.1448 20.9288 53.1906 21.0029 53.2502 21.0652C53.3098 21.1274 53.3818 21.1765 53.4615 21.2092C53.5412 21.2419 53.6269 21.2575 53.713 21.255C54.086 21.255 54.309 21.0279 54.309 20.5985M52.712 22.5318C52.705 22.5324 52.6978 22.5315 52.6911 22.5291C52.6844 22.5266 52.6784 22.5228 52.6733 22.5177C52.6683 22.5127 52.6644 22.5066 52.662 22.4999C52.6596 22.4932 52.6586 22.4861 52.6592 22.479V19.0543C52.6592 19.0178 52.6796 19.0015 52.7161 19.0015H53.0159C53.0233 19.0002 53.0309 19.0007 53.0381 19.0028C53.0453 19.0049 53.0519 19.0087 53.0575 19.0138C53.063 19.0189 53.0672 19.0253 53.0699 19.0323C53.0725 19.0393 53.0735 19.0469 53.0728 19.0543V19.346C53.1529 19.2191 53.2643 19.115 53.3964 19.0439C53.5285 18.9727 53.6768 18.9368 53.8268 18.9398C53.953 18.9356 54.0786 18.9585 54.1951 19.007C54.3117 19.0554 54.4166 19.1283 54.5026 19.2207C54.5886 19.3131 54.6539 19.4228 54.6939 19.5426C54.734 19.6623 54.7479 19.7892 54.7348 19.9148V20.6411C54.7485 20.7659 54.7356 20.8922 54.6969 21.0117C54.6583 21.1311 54.5947 21.241 54.5104 21.3341C54.4261 21.4272 54.3231 21.5013 54.208 21.5516C54.093 21.6019 53.9686 21.6272 53.843 21.6259C53.6917 21.6333 53.5412 21.5995 53.4077 21.5279C53.2741 21.4563 53.1626 21.3498 53.085 21.2196V22.4599C53.0856 22.467 53.0847 22.4742 53.0822 22.4808C53.0798 22.4875 53.0759 22.4936 53.0709 22.4986C53.0659 22.5037 53.0598 22.5075 53.0531 22.51C53.0464 22.5124 53.0393 22.5134 53.0322 22.5127L52.712 22.5318ZM57.0516 20.6005V19.9826C57.0648 19.8989 57.059 19.8133 57.0345 19.7321C57.0101 19.651 56.9676 19.5764 56.9104 19.5139C56.8531 19.4514 56.7824 19.4027 56.7037 19.3713C56.625 19.3399 56.5402 19.3267 56.4556 19.3326C56.3704 19.3302 56.2856 19.3455 56.2067 19.3778C56.1277 19.41 56.0564 19.4584 55.9973 19.5199C55.9381 19.5813 55.8925 19.6544 55.8633 19.7345C55.834 19.8146 55.8219 19.9 55.8276 19.985V20.5944C55.8213 20.68 55.833 20.766 55.862 20.8468C55.8909 20.9276 55.9364 21.0014 55.9955 21.0636C56.0546 21.1258 56.1261 21.175 56.2053 21.2079C56.2846 21.2409 56.3698 21.2569 56.4556 21.255C56.8286 21.255 57.0516 21.0279 57.0516 20.5985M55.4546 22.5318C55.4476 22.5324 55.4404 22.5315 55.4337 22.5291C55.427 22.5266 55.421 22.5228 55.4159 22.5177C55.4109 22.5127 55.407 22.5066 55.4046 22.4999C55.4021 22.4932 55.4012 22.4861 55.4018 22.479V19.0543C55.4018 19.0178 55.4221 19.0015 55.4587 19.0015H55.7585C55.7659 19.0002 55.7735 19.0007 55.7807 19.0028C55.7879 19.0049 55.7945 19.0087 55.8001 19.0138C55.8056 19.0189 55.8098 19.0253 55.8125 19.0323C55.8151 19.0393 55.8161 19.0469 55.8154 19.0543V19.346C55.8955 19.2191 56.0069 19.115 56.139 19.0439C56.2711 18.9727 56.4194 18.9368 56.5694 18.9398C56.6959 18.935 56.822 18.9575 56.939 19.0057C57.0561 19.0539 57.1614 19.1267 57.2479 19.2191C57.3344 19.3116 57.4 19.4215 57.4403 19.5416C57.4806 19.6616 57.4946 19.7889 57.4814 19.9148V20.6411C57.4952 20.7661 57.4822 20.8926 57.4435 21.0122C57.4047 21.1318 57.3409 21.2418 57.2564 21.3349C57.1719 21.428 57.0686 21.5021 56.9533 21.5522C56.838 21.6024 56.7134 21.6275 56.5877 21.6259C56.4365 21.6325 56.2863 21.5982 56.1529 21.5267C56.0196 21.4552 55.9079 21.3492 55.8296 21.2196V22.4599C55.8302 22.467 55.8293 22.4742 55.8269 22.4808C55.8244 22.4875 55.8206 22.4936 55.8155 22.4986C55.8105 22.5037 55.8044 22.5075 55.7977 22.51C55.791 22.5124 55.7839 22.5134 55.7768 22.5127L55.4546 22.5318ZM58.5105 19.9785V20.635C58.5105 20.7995 58.5758 20.9573 58.6921 21.0736C58.8084 21.1899 58.9661 21.2552 59.1306 21.2552C59.2951 21.2552 59.4528 21.1899 59.5691 21.0736C59.6854 20.9573 59.7507 20.7995 59.7507 20.635V19.9785C59.7507 19.8141 59.6854 19.6563 59.5691 19.54C59.4528 19.4237 59.2951 19.3584 59.1306 19.3584C58.9661 19.3584 58.8084 19.4237 58.6921 19.54C58.5758 19.6563 58.5105 19.8141 58.5105 19.9785ZM60.1761 19.9582V20.635C60.1761 20.9124 60.0659 21.1784 59.8698 21.3745C59.6737 21.5706 59.4077 21.6807 59.1304 21.6807C58.8531 21.6807 58.5871 21.5706 58.391 21.3745C58.1949 21.1784 58.0847 20.9124 58.0847 20.635V19.9704C58.0847 19.6931 58.1949 19.4271 58.391 19.231C58.5871 19.0349 58.8531 18.9247 59.1304 18.9247C59.4077 18.9247 59.6737 19.0349 59.8698 19.231C60.0659 19.4271 60.1761 19.6931 60.1761 19.9704M62.1176 19.0141V19.3005C62.1176 19.3452 62.1175 19.3615 62.0526 19.3615H61.9997C61.8376 19.3559 61.6781 19.4031 61.5451 19.4959C61.4121 19.5887 61.3128 19.7221 61.262 19.8762V21.5227C61.262 21.5593 61.2376 21.5715 61.2092 21.5715H60.889C60.8825 21.5721 60.8759 21.5713 60.8697 21.569C60.8635 21.5668 60.8578 21.5632 60.8532 21.5586C60.8485 21.5539 60.845 21.5483 60.8427 21.5421C60.8405 21.5359 60.8397 21.5293 60.8403 21.5227V19.0543C60.8403 19.0137 60.8403 19.0015 60.8972 19.0015H61.1889C61.2295 19.0015 61.2498 19.0218 61.2498 19.0584V19.4646C61.3241 19.3143 61.4404 19.1888 61.5846 19.1032C61.7288 19.0176 61.8947 18.9757 62.0623 18.9824C62.1232 18.9824 62.1395 18.9824 62.1395 19.0434M63.3554 18.3934V19.0133H63.9067C63.9473 19.0133 63.9635 19.0336 63.9635 19.0783V19.3095C63.9635 19.3541 63.9636 19.3704 63.9067 19.3704H63.3554V20.8658C63.3554 21.097 63.4809 21.2022 63.7161 21.2022H63.9026C63.9432 21.2022 63.9635 21.2022 63.9635 21.259V21.5223C63.9635 21.567 63.9636 21.5832 63.9026 21.5832H63.6552C63.5631 21.5966 63.4692 21.5894 63.3802 21.562C63.2913 21.5347 63.2095 21.4879 63.1409 21.4251C63.0722 21.3622 63.0184 21.2849 62.9832 21.1987C62.9481 21.1126 62.9326 21.0197 62.9378 20.9267V19.3745H62.5851C62.5526 19.3745 62.5323 19.3745 62.5323 19.3135V19.0824C62.5323 19.0377 62.5526 19.0174 62.5851 19.0174H62.9418V18.3938C62.9418 18.3613 62.9418 18.341 63.0028 18.341H63.2945C63.3432 18.341 63.3554 18.3405 63.3554 18.3934ZM68 18.8354C68 18.8841 68.0001 18.9207 67.931 18.9406L67.4772 19.1067C67.4659 19.1127 67.4535 19.116 67.4407 19.1164C67.428 19.1169 67.4153 19.1145 67.4036 19.1095C67.3919 19.1044 67.3815 19.0968 67.3732 19.0872C67.3648 19.0776 67.3587 19.0662 67.3553 19.0539C67.3172 18.951 67.246 18.8637 67.1528 18.8057C67.0596 18.7478 66.9498 18.7225 66.8406 18.7338C66.5611 18.7338 66.3787 18.8675 66.3787 19.0702C66.3787 19.2729 66.5205 19.3578 67.1506 19.5768C67.7807 19.7957 68.0342 20.0955 68.0342 20.5924C68.0342 21.1884 67.5235 21.6421 66.7858 21.6421C66.5132 21.6752 66.2379 21.609 66.0102 21.4557C65.7824 21.3024 65.6175 21.0722 65.5455 20.8073C65.5418 20.7969 65.5402 20.7859 65.5408 20.7749C65.5415 20.7639 65.5444 20.7532 65.5493 20.7434C65.5543 20.7335 65.5612 20.7248 65.5696 20.7177C65.578 20.7106 65.5878 20.7053 65.5983 20.7021L66.0886 20.5396C66.1536 20.5193 66.1857 20.5396 66.202 20.6046C66.2288 20.7334 66.3036 20.8471 66.4114 20.9226C66.5191 20.998 66.6515 21.0296 66.7817 21.0108C67.114 21.0108 67.2883 20.869 67.2883 20.6582C67.2883 20.4474 67.1628 20.3738 66.6521 20.1963C65.9184 19.933 65.6389 19.641 65.6389 19.0994C65.6496 18.9553 65.689 18.8148 65.7549 18.6861C65.8207 18.5575 65.9117 18.4434 66.0223 18.3504C66.133 18.2575 66.2612 18.1877 66.3993 18.1451C66.5374 18.1025 66.6826 18.088 66.8264 18.1025C67.078 18.0774 67.3308 18.1378 67.544 18.2738C67.7572 18.4098 67.9184 18.6136 68.0017 18.8524M69.4609 18.4307V19.0145H69.9484C69.9589 19.0132 69.9695 19.0143 69.9795 19.0177C69.9894 19.0211 69.9985 19.0267 70.0059 19.0342C70.0134 19.0416 70.019 19.0507 70.0224 19.0607C70.0258 19.0706 70.0269 19.0813 70.0256 19.0917V19.5175C70.0263 19.5276 70.0247 19.5377 70.021 19.5472C70.0173 19.5566 70.0116 19.5652 70.0042 19.5722C69.9968 19.5791 69.988 19.5844 69.9784 19.5876C69.9687 19.5908 69.9585 19.5918 69.9484 19.5906H69.4609V20.7455C69.4609 20.8955 69.5422 20.9808 69.7364 20.9808H69.9472C69.996 20.9808 70.0244 21.0051 70.0244 21.0498V21.5308C70.0244 21.5796 69.996 21.5999 69.9472 21.5999H69.6206C69.0368 21.5999 68.7614 21.292 68.7614 20.8378V19.5784H68.4616C68.4515 19.5796 68.4412 19.5786 68.4316 19.5754C68.422 19.5722 68.4132 19.5669 68.4058 19.56C68.3984 19.553 68.3927 19.5445 68.389 19.535C68.3853 19.5256 68.3837 19.5154 68.3844 19.5053V19.0787C68.383 19.0683 68.3841 19.0576 68.3875 19.0477C68.3909 19.0377 68.3966 19.0286 68.404 19.0212C68.4115 19.0137 68.4205 19.0081 68.4305 19.0047C68.4405 19.0013 68.4511 19.0002 68.4616 19.0015H68.7735V18.4303C68.7723 18.4208 68.7732 18.4111 68.7762 18.4019C68.7792 18.3928 68.7842 18.3844 68.7908 18.3774C68.7974 18.3704 68.8055 18.365 68.8144 18.3615C68.8234 18.358 68.833 18.3565 68.8426 18.3572H69.3939C69.4386 18.3572 69.4589 18.3856 69.4589 18.4303M71.8988 20.7082V20.4644C71.7635 20.4564 71.6279 20.4564 71.4926 20.4644C71.2293 20.4969 71.0863 20.5778 71.0863 20.7805C71.0863 20.9832 71.2082 21.0649 71.4113 21.0649C71.5229 21.0664 71.6318 21.031 71.7212 20.9643C71.8105 20.8977 71.8754 20.8033 71.9057 20.696M72.5988 19.8043V21.5065C72.5988 21.5159 72.5969 21.5252 72.5932 21.5339C72.5895 21.5425 72.584 21.5503 72.5772 21.5568C72.5703 21.5633 72.5622 21.5683 72.5534 21.5715C72.5445 21.5747 72.5351 21.5761 72.5257 21.5755H72.0069C71.9975 21.5761 71.9881 21.5747 71.9792 21.5715C71.9704 21.5683 71.9623 21.5633 71.9554 21.5568C71.9486 21.5503 71.9431 21.5425 71.9394 21.5339C71.9357 21.5252 71.9338 21.5159 71.9338 21.5065V21.227C71.8613 21.3525 71.7566 21.4564 71.6304 21.5278C71.5043 21.5993 71.3613 21.6357 71.2163 21.6332C71.1074 21.642 70.9978 21.6271 70.8952 21.5894C70.7927 21.5517 70.6995 21.4921 70.6222 21.4148C70.5449 21.3375 70.4854 21.2444 70.4477 21.1418C70.41 21.0392 70.395 20.9296 70.4038 20.8207C70.4038 20.3466 70.7036 20.0667 71.4292 20.0082C71.5856 19.994 71.7429 19.994 71.8992 20.0082V19.8246C71.9062 19.7763 71.9017 19.7271 71.8861 19.6808C71.8706 19.6346 71.8444 19.5927 71.8098 19.5584C71.7751 19.5241 71.7328 19.4984 71.6864 19.4834C71.64 19.4684 71.5907 19.4645 71.5426 19.472C71.4636 19.4613 71.3835 19.4797 71.3171 19.5237C71.2508 19.5677 71.2027 19.6344 71.1818 19.7112C71.1574 19.7681 71.1412 19.7803 71.0888 19.764L70.57 19.6345C70.5172 19.6345 70.5131 19.5898 70.5253 19.5532C70.5944 19.1803 70.9315 18.9089 71.5669 18.9089C72.2023 18.9089 72.5923 19.2168 72.5923 19.8006M74.708 19.0145V19.5211C74.708 19.582 74.6837 19.6024 74.6231 19.6024H74.546C74.3979 19.5836 74.248 19.6193 74.1243 19.7028C74.0005 19.7863 73.9113 19.9118 73.8732 20.0561V21.5065C73.8744 21.5151 73.8737 21.5239 73.8711 21.5323C73.8686 21.5406 73.8643 21.5483 73.8585 21.5549C73.8527 21.5614 73.8456 21.5667 73.8376 21.5702C73.8297 21.5738 73.821 21.5756 73.8123 21.5755H73.2204C73.2116 21.5756 73.203 21.5738 73.195 21.5702C73.187 21.5667 73.1799 21.5614 73.1741 21.5549C73.1683 21.5483 73.164 21.5406 73.1615 21.5323C73.159 21.5239 73.1583 21.5151 73.1594 21.5065V19.034C73.1587 19.0249 73.1601 19.0158 73.1634 19.0074C73.1667 18.9989 73.1718 18.9912 73.1784 18.985C73.185 18.9788 73.193 18.9741 73.2016 18.9713C73.2103 18.9686 73.2195 18.9678 73.2285 18.969H73.7676C73.7772 18.9683 73.7868 18.9698 73.7958 18.9733C73.8047 18.9768 73.8128 18.9822 73.8194 18.9892C73.826 18.9962 73.831 19.0046 73.834 19.0137C73.837 19.0229 73.8379 19.0326 73.8366 19.0421V19.4191C73.9052 19.2777 74.0133 19.1591 74.1478 19.0779C74.2824 18.9966 74.4376 18.9561 74.5947 18.9613C74.6877 18.9613 74.708 18.9613 74.708 19.0425M76.0942 18.4307V19.0145H76.5817C76.5918 19.0138 76.602 19.0154 76.6114 19.0191C76.6209 19.0228 76.6294 19.0286 76.6364 19.0359C76.6434 19.0433 76.6486 19.0521 76.6518 19.0618C76.655 19.0714 76.656 19.0816 76.6548 19.0917V19.5175C76.6561 19.5274 76.6552 19.5375 76.652 19.547C76.6488 19.5564 76.6434 19.565 76.6363 19.5721C76.6293 19.5792 76.6207 19.5846 76.6112 19.5878C76.6017 19.591 76.5916 19.5919 76.5817 19.5906H76.0942V20.7455C76.0942 20.8955 76.1754 20.9808 76.3656 20.9808H76.5805C76.59 20.9795 76.5997 20.9804 76.6088 20.9834C76.618 20.9864 76.6264 20.9914 76.6334 20.998C76.6404 21.0046 76.6458 21.0127 76.6493 21.0216C76.6528 21.0306 76.6543 21.0402 76.6536 21.0498V21.5308C76.6536 21.5796 76.6251 21.5999 76.5805 21.5999H76.2522C75.6684 21.5999 75.397 21.292 75.397 20.8378V19.5784H75.0932C75.0833 19.5797 75.0732 19.5788 75.0637 19.5756C75.0542 19.5724 75.0456 19.567 75.0385 19.5599C75.0314 19.5529 75.0261 19.5442 75.0229 19.5348C75.0197 19.5253 75.0187 19.5152 75.0201 19.5053V19.0787C75.0188 19.0686 75.0199 19.0584 75.023 19.0488C75.0262 19.0391 75.0315 19.0303 75.0385 19.0229C75.0455 19.0156 75.054 19.0098 75.0634 19.0061C75.0729 19.0024 75.083 19.0008 75.0932 19.0015H75.4052V18.4303C75.4038 18.4204 75.4048 18.4103 75.408 18.4008C75.4112 18.3913 75.4166 18.3827 75.4236 18.3757C75.4307 18.3686 75.4393 18.3632 75.4488 18.36C75.4583 18.3568 75.4684 18.3559 75.4783 18.3572H76.0296C76.0388 18.3571 76.048 18.359 76.0565 18.3628C76.065 18.3666 76.0725 18.3721 76.0787 18.379C76.0848 18.3859 76.0894 18.3941 76.0922 18.403C76.0949 18.4118 76.0957 18.4211 76.0946 18.4303M79.1748 19.5609C79.1748 19.6015 79.1748 19.6381 79.1179 19.654L78.6844 19.8079C78.6357 19.8079 78.6113 19.8079 78.5914 19.7551C78.5585 19.6655 78.4967 19.5894 78.4158 19.5388C78.3349 19.4882 78.2395 19.466 78.1445 19.4756C77.9215 19.4756 77.7919 19.5609 77.7919 19.6905C77.7919 19.8201 77.8849 19.8689 78.3838 20.0025C78.9635 20.1565 79.1963 20.4088 79.1963 20.815C79.1963 21.3175 78.7901 21.6275 78.1425 21.6275C77.4949 21.6275 77.1537 21.3964 77.0196 20.9995C77.0196 20.9426 77.0196 20.9145 77.0887 20.8861L77.4697 20.6996C77.5266 20.6712 77.5587 20.6996 77.5871 20.7565C77.6292 20.8594 77.7033 20.9461 77.7984 21.0037C77.8935 21.0614 78.0046 21.0869 78.1153 21.0766C78.3785 21.0766 78.5215 20.9913 78.5215 20.8495C78.5215 20.7078 78.3757 20.6387 77.9097 20.5091C77.3381 20.3592 77.0972 20.1029 77.0972 19.6966C77.0972 19.2022 77.5035 18.8841 78.1104 18.8841C78.3312 18.8618 78.5534 18.9118 78.7434 19.0265C78.9334 19.1412 79.0811 19.3145 79.1642 19.5203M83.542 18.2036V21.5105C83.542 21.5511 83.542 21.5796 83.4688 21.5796H82.8932C82.8838 21.5801 82.8744 21.5788 82.8655 21.5755C82.8566 21.5723 82.8485 21.5673 82.8417 21.5608C82.8348 21.5544 82.8294 21.5466 82.8257 21.5379C82.8219 21.5293 82.82 21.5199 82.8201 21.5105V20.2052H81.6326V21.5186C81.6333 21.5282 81.6318 21.5379 81.6283 21.5468C81.6248 21.5558 81.6194 21.5639 81.6124 21.5705C81.6054 21.5771 81.597 21.5821 81.5879 21.585C81.5787 21.588 81.569 21.5889 81.5595 21.5877H80.9676C80.9581 21.5883 80.9487 21.5869 80.9399 21.5837C80.931 21.5804 80.9229 21.5754 80.9161 21.569C80.9092 21.5625 80.9038 21.5547 80.9 21.546C80.8963 21.5374 80.8944 21.5281 80.8944 21.5186V18.2036C80.8944 18.1938 80.8964 18.1841 80.9003 18.1752C80.9043 18.1662 80.9101 18.1582 80.9174 18.1517C80.9247 18.1452 80.9333 18.1403 80.9427 18.1373C80.952 18.1344 80.9619 18.1334 80.9716 18.1346H81.5595C81.569 18.1334 81.5787 18.1343 81.5879 18.1372C81.597 18.1402 81.6054 18.1452 81.6124 18.1518C81.6194 18.1584 81.6248 18.1665 81.6283 18.1754C81.6318 18.1844 81.6333 18.194 81.6326 18.2036V19.5166H82.8201V18.2036C82.82 18.1942 82.8219 18.1849 82.8257 18.1762C82.8294 18.1676 82.8348 18.1598 82.8417 18.1533C82.8485 18.1468 82.8566 18.1418 82.8655 18.1386C82.8744 18.1354 82.8838 18.134 82.8932 18.1346H83.481C83.5338 18.1346 83.5541 18.163 83.5541 18.2036M84.7944 19.9505V20.0395H85.7024V19.9505C85.7074 19.8879 85.6993 19.8249 85.6787 19.7655C85.6582 19.7061 85.6255 19.6517 85.5829 19.6055C85.5403 19.5594 85.4885 19.5225 85.431 19.4973C85.3734 19.4722 85.3112 19.4592 85.2484 19.4592C85.1856 19.4592 85.1234 19.4722 85.0659 19.4973C85.0083 19.5225 84.9566 19.5594 84.9139 19.6055C84.8713 19.6517 84.8387 19.7061 84.8181 19.7655C84.7975 19.8249 84.7895 19.8879 84.7944 19.9505ZM84.7944 20.5018V20.6005C84.7838 20.6648 84.7888 20.7308 84.809 20.7927C84.8291 20.8547 84.864 20.9109 84.9104 20.9566C84.9569 21.0023 85.0138 21.0362 85.0761 21.0553C85.1384 21.0744 85.2044 21.0782 85.2685 21.0665C85.3704 21.0822 85.4745 21.0636 85.5647 21.0138C85.6549 20.9639 85.7261 20.8856 85.767 20.791C85.8117 20.7179 85.832 20.7098 85.9047 20.7423L86.2776 20.9328C86.3548 20.9694 86.3589 21.006 86.3264 21.0787C86.2242 21.2668 86.0692 21.4208 85.8805 21.5219C85.6918 21.6229 85.4777 21.6666 85.2645 21.6474C85.1166 21.6671 84.9662 21.6541 84.8238 21.6094C84.6815 21.5647 84.5507 21.4894 84.4406 21.3887C84.3305 21.288 84.2438 21.1644 84.1866 21.0266C84.1294 20.8889 84.1031 20.7402 84.1095 20.5912V19.9826C84.1024 19.8345 84.1278 19.6865 84.1839 19.5493C84.2401 19.412 84.3257 19.2887 84.4346 19.188C84.5435 19.0873 84.6732 19.0117 84.8144 18.9665C84.9557 18.9213 85.1051 18.9076 85.2523 18.9264C85.3954 18.9121 85.5398 18.9289 85.6758 18.9757C85.8117 19.0226 85.936 19.0982 86.0399 19.1976C86.1439 19.2969 86.2251 19.4175 86.2781 19.5512C86.331 19.6849 86.3545 19.8285 86.3467 19.972V20.3783C86.3467 20.4474 86.3223 20.4957 86.2212 20.4957L84.7944 20.5018ZM88.4015 19.0145V19.5211C88.4015 19.582 88.3812 19.6024 88.3162 19.6024H88.2431C88.095 19.5836 87.9451 19.6193 87.8214 19.7028C87.6977 19.7863 87.6084 19.9118 87.5703 20.0561V21.5065C87.5709 21.515 87.5697 21.5236 87.567 21.5317C87.5642 21.5398 87.5599 21.5472 87.5542 21.5536C87.5485 21.5601 87.5417 21.5653 87.534 21.569C87.5263 21.5728 87.5179 21.575 87.5094 21.5755H86.9134C86.9047 21.5756 86.896 21.5738 86.8881 21.5702C86.8801 21.5667 86.873 21.5614 86.8672 21.5549C86.8614 21.5483 86.8571 21.5406 86.8546 21.5323C86.852 21.5239 86.8513 21.5151 86.8525 21.5065V19.034C86.8518 19.0249 86.8531 19.0158 86.8564 19.0074C86.8597 18.9989 86.8649 18.9912 86.8715 18.985C86.8781 18.9788 86.886 18.9741 86.8947 18.9713C86.9034 18.9686 86.9125 18.9678 86.9216 18.969H87.4606C87.5175 18.969 87.5297 19.0056 87.5297 19.0421V19.4191C87.5982 19.2777 87.7063 19.1591 87.8409 19.0779C87.9754 18.9966 88.1307 18.9561 88.2878 18.9613C88.3849 18.9613 88.4011 18.9613 88.4011 19.0425M89.4306 19.9505V20.0395H90.3393V19.9505C90.3443 19.8879 90.3362 19.8249 90.3157 19.7655C90.2951 19.7061 90.2625 19.6517 90.2198 19.6055C90.1772 19.5594 90.1255 19.5225 90.0679 19.4973C90.0103 19.4722 89.9482 19.4592 89.8854 19.4592C89.8225 19.4592 89.7604 19.4722 89.7028 19.4973C89.6452 19.5225 89.5935 19.5594 89.5509 19.6055C89.5082 19.6517 89.4756 19.7061 89.455 19.7655C89.4345 19.8249 89.4264 19.8879 89.4314 19.9505M89.4314 20.5018V20.6005C89.4207 20.6648 89.4257 20.7308 89.4459 20.7927C89.4661 20.8547 89.5009 20.9109 89.5474 20.9566C89.5939 21.0023 89.6507 21.0362 89.713 21.0553C89.7753 21.0744 89.8413 21.0782 89.9055 21.0665C90.0079 21.0824 90.1127 21.064 90.2036 21.0142C90.2944 20.9644 90.3663 20.8859 90.408 20.791C90.4486 20.7179 90.4689 20.7098 90.5416 20.7423L90.9146 20.9328C90.9918 20.9694 90.9958 21.006 90.9633 21.0787C90.8611 21.2668 90.7061 21.4208 90.5174 21.5219C90.3287 21.6229 90.1146 21.6666 89.9014 21.6474C89.7541 21.6658 89.6046 21.6519 89.4633 21.6066C89.322 21.5613 89.1922 21.4857 89.0831 21.3852C88.9739 21.2847 88.888 21.1616 88.8312 21.0244C88.7745 20.8873 88.7483 20.7394 88.7546 20.5912V19.9826C88.7474 19.8345 88.7728 19.6865 88.829 19.5493C88.8852 19.412 88.9707 19.2887 89.0796 19.188C89.1886 19.0873 89.3182 19.0117 89.4595 18.9665C89.6007 18.9213 89.7502 18.9076 89.8973 18.9264C90.0404 18.9121 90.1849 18.9289 90.3208 18.9757C90.4568 19.0226 90.581 19.0982 90.685 19.1976C90.7889 19.2969 90.8702 19.4175 90.9231 19.5512C90.9761 19.6849 90.9995 19.8285 90.9918 19.972V20.3783C90.9918 20.4474 90.9674 20.4957 90.8662 20.4957L89.4314 20.5018Z" fill="white"/>
</g>
<defs>
<clipPath id="clip0_30162_10671">
<rect width="90.998" height="26" fill="white" transform="translate(0 0.0742188)"/>
</clipPath>
</defs>
</svg>
