<svg width="29" height="28" viewBox="0 0 29 28" fill="none" xmlns="http://www.w3.org/2000/svg">
<path d="M17.7147 6.3631C17.7147 6.86233 17.913 7.34111 18.266 7.69412L26.2861 15.7142H20.2087C19.7095 15.7142 19.2307 15.5159 18.8777 15.1629L11.4089 7.69412C11.0559 7.34111 10.8576 6.86233 10.8576 6.3631V2.94112C10.8576 2.42132 10.4362 1.99994 9.91638 1.99994H3.22731C2.70751 1.99994 2.28613 2.42132 2.28613 2.94112V25.0588C2.28613 25.5786 2.70751 25.9999 3.22731 25.9999H9.91639C10.4362 25.9999 10.8576 25.5786 10.8576 25.0588V21.6368C10.8576 21.1375 10.6592 20.6588 10.3062 20.3058L2.28613 12.2857H8.36358C8.86281 12.2857 9.34159 12.484 9.6946 12.837L17.1634 20.3058C17.5164 20.6588 17.7147 21.1375 17.7147 21.6368V25.0588C17.7147 25.5786 18.1361 25.9999 18.6559 25.9999H25.345C25.8648 25.9999 26.2861 25.5786 26.2861 25.0588V2.94112C26.2861 2.42132 25.8648 1.99994 25.345 1.99994H18.6559C18.1361 1.99994 17.7147 2.42132 17.7147 2.94112V6.3631Z" fill="#FD6634"/>
</svg>
