<svg width="20" height="20" viewBox="0 0 20 20" fill="none" xmlns="http://www.w3.org/2000/svg">
<path fill-rule="evenodd" clip-rule="evenodd" d="M13.164 4.083L14.112 4.094C17.517 4.094 20 6.522 20 9.874V14.181C20 17.534 17.517 19.961 14.112 19.961C12.7448 19.9885 11.3774 20.0015 10.01 20C8.636 20 7.252 19.99 5.888 19.962C2.483 19.962 0 17.534 0 14.182V9.875C0 6.522 2.483 4.095 5.898 4.095C7.184 4.075 8.498 4.055 9.833 4.055V3.892C9.833 3.227 9.273 2.688 8.607 2.688H7.635C6.526 2.688 5.623 1.802 5.623 0.723C5.623 0.328 5.957 0 6.359 0C6.771 0 7.095 0.328 7.095 0.723C7.095 1.012 7.341 1.243 7.635 1.243H8.607C10.088 1.253 11.295 2.437 11.305 3.883V4.066C11.924 4.066 12.543 4.074 13.164 4.083ZM8.852 12.746H7.822V13.766C7.81885 13.9592 7.73974 14.1434 7.60181 14.2787C7.46388 14.414 7.27822 14.4896 7.085 14.489C6.98923 14.4901 6.89419 14.4722 6.80533 14.4365C6.71647 14.4007 6.63554 14.3478 6.56717 14.2807C6.4988 14.2137 6.44433 14.1338 6.40689 14.0456C6.36946 13.9574 6.34978 13.8628 6.349 13.767V12.746H5.31C5.21415 12.7471 5.11903 12.7292 5.0301 12.6934C4.94118 12.6576 4.8602 12.6046 4.79182 12.5374C4.72343 12.4702 4.66899 12.3902 4.63161 12.3019C4.59423 12.2136 4.57465 12.1189 4.574 12.023C4.574 11.628 4.908 11.301 5.31 11.301H6.35V10.289C6.35 9.894 6.674 9.566 7.086 9.566C7.489 9.566 7.822 9.894 7.822 10.289V11.301H8.852C9.255 11.301 9.589 11.628 9.589 12.023C9.58835 12.1189 9.56877 12.2136 9.53139 12.3019C9.49401 12.3902 9.43957 12.4702 9.37118 12.5374C9.3028 12.6046 9.22182 12.6576 9.1329 12.6934C9.04397 12.7292 8.94785 12.7471 8.852 12.746ZM13.022 11.117H13.121C13.2168 11.1181 13.3118 11.1002 13.4007 11.0645C13.4895 11.0287 13.5705 10.9758 13.6388 10.9087C13.7072 10.8417 13.7617 10.7618 13.7991 10.6736C13.8365 10.5855 13.8562 10.4908 13.857 10.395C13.8538 10.202 13.7749 10.0179 13.6372 9.88267C13.4995 9.74738 13.314 9.67171 13.121 9.672H13.023C12.8314 9.672 12.6476 9.74812 12.5121 9.88362C12.3766 10.0191 12.3005 10.2029 12.3005 10.3945C12.3005 10.5861 12.3766 10.7699 12.5121 10.9054C12.6476 11.0409 12.8304 11.117 13.022 11.117ZM14.701 14.432H14.799C14.8949 14.4331 14.99 14.4152 15.0789 14.3794C15.1678 14.3436 15.2488 14.2906 15.3172 14.2234C15.3856 14.1562 15.44 14.0762 15.4774 13.9879C15.5148 13.8996 15.5343 13.8049 15.535 13.709C15.5318 13.516 15.4529 13.3319 15.3152 13.1967C15.1775 13.0614 14.992 12.9857 14.799 12.986H14.7C14.5084 12.986 14.3246 13.0621 14.1891 13.1976C14.0536 13.3331 13.9775 13.5169 13.9775 13.7085C13.9775 13.9001 14.0536 14.0839 14.1891 14.2194C14.3246 14.3549 14.5084 14.431 14.7 14.431L14.701 14.432Z" fill="#FD855D"/>
</svg>
