<svg width="18" height="18" viewBox="0 0 18 18" fill="none" xmlns="http://www.w3.org/2000/svg">
<g clip-path="url(#clip0_30303_26569)">
<path d="M9 17.9995C13.9706 17.9995 18 13.9701 18 8.99951C18 4.02895 13.9706 -0.000488281 9 -0.000488281C4.02944 -0.000488281 0 4.02895 0 8.99951C0 13.9701 4.02944 17.9995 9 17.9995Z" fill="#F0F0F0"/>
<path d="M1.86097 3.52051C1.15402 4.4403 0.620941 5.50044 0.310547 6.65212H4.99259L1.86097 3.52051Z" fill="#0052B4"/>
<path d="M17.6898 6.65209C17.3794 5.50044 16.8463 4.4403 16.1394 3.52051L13.0078 6.65209H17.6898Z" fill="#0052B4"/>
<path d="M0.310547 11.3472C0.620977 12.4988 1.15405 13.559 1.86097 14.4787L4.99248 11.3472H0.310547Z" fill="#0052B4"/>
<path d="M14.4812 1.86003C13.5614 1.15307 12.5013 0.62 11.3496 0.30957V4.99157L14.4812 1.86003Z" fill="#0052B4"/>
<path d="M3.52148 16.1393C4.44128 16.8463 5.50141 17.3794 6.65306 17.6898V13.0078L3.52148 16.1393Z" fill="#0052B4"/>
<path d="M6.65303 0.30957C5.50138 0.62 4.44124 1.15307 3.52148 1.86L6.65303 4.99154V0.30957Z" fill="#0052B4"/>
<path d="M11.3496 17.6898C12.5013 17.3794 13.5614 16.8463 14.4812 16.1394L11.3496 13.0078V17.6898Z" fill="#0052B4"/>
<path d="M13.0078 11.3472L16.1394 14.4787C16.8463 13.559 17.3794 12.4988 17.6898 11.3472H13.0078Z" fill="#0052B4"/>
<path d="M17.9238 7.82561H10.174H10.1739V0.0756953C9.78964 0.025668 9.39786 -0.000488281 9 -0.000488281C8.60207 -0.000488281 8.21035 0.025668 7.8261 0.0756953V7.82554V7.82557H0.0761836C0.0261563 8.20987 0 8.60165 0 8.99951C0 9.39745 0.0261563 9.78916 0.0761836 10.1734H7.82603H7.82606V17.9233C8.21036 17.9734 8.60207 17.9995 9 17.9995C9.39786 17.9995 9.78964 17.9734 10.1739 17.9233V10.1735V10.1734H17.9238C17.9738 9.78916 18 9.39745 18 8.99951C18 8.60165 17.9738 8.20987 17.9238 7.82561Z" fill="#D80027"/>
<path d="M11.3477 11.3482L15.3638 15.3643C15.5485 15.1796 15.7247 14.9866 15.8928 14.7865L12.4544 11.3481H11.3477V11.3482Z" fill="#D80027"/>
<path d="M6.65286 11.3481H6.65279L2.63672 15.3642C2.82136 15.5489 3.0144 15.7251 3.21451 15.8932L6.65286 12.4548V11.3481Z" fill="#D80027"/>
<path d="M6.65061 6.65147V6.6514L2.6345 2.63525C2.44979 2.81989 2.27359 3.01294 2.10547 3.21305L5.54386 6.65143H6.65061V6.65147Z" fill="#D80027"/>
<path d="M11.3477 6.65211L15.3638 2.63593C15.1792 2.45122 14.9861 2.27502 14.786 2.10693L11.3477 5.54532V6.65211Z" fill="#D80027"/>
</g>
<rect x="0.458333" y="0.458333" width="17.0833" height="17.0833" rx="8.54167" stroke="white" stroke-width="0.916667"/>
<defs>
<clipPath id="clip0_30303_26569">
<rect width="18" height="18" rx="9" fill="white"/>
</clipPath>
</defs>
</svg>
