<svg width="16" height="16" viewBox="0 0 16 16" fill="none" xmlns="http://www.w3.org/2000/svg">
<path d="M9.63711 3.31961C9.82711 2.99711 10.1721 2.79961 10.5446 2.79961H10.5996C11.1521 2.79961 11.5996 3.24711 11.5996 3.79961C11.5996 4.35211 11.1521 4.79961 10.5996 4.79961H8.76711L9.63711 3.31961ZM6.36211 3.31961L7.23211 4.79961H5.39961C4.84711 4.79961 4.39961 4.35211 4.39961 3.79961C4.39961 3.24711 4.84711 2.79961 5.39961 2.79961H5.45461C5.82711 2.79961 6.17461 2.99711 6.36211 3.31961ZM8.60211 2.71211L7.99961 3.73711L7.39711 2.71211C6.99211 2.02211 6.25211 1.59961 5.45461 1.59961H5.39961C4.18461 1.59961 3.19961 2.58461 3.19961 3.79961C3.19961 4.15961 3.28711 4.49961 3.43961 4.79961H2.39961C1.95711 4.79961 1.59961 5.15711 1.59961 5.59961V6.39961C1.59961 6.84211 1.95711 7.19961 2.39961 7.19961H13.5996C14.0421 7.19961 14.3996 6.84211 14.3996 6.39961V5.59961C14.3996 5.15711 14.0421 4.79961 13.5996 4.79961H12.5596C12.7121 4.49961 12.7996 4.15961 12.7996 3.79961C12.7996 2.58461 11.8146 1.59961 10.5996 1.59961H10.5446C9.74711 1.59961 9.00711 2.02211 8.60211 2.70961V2.71211ZM13.5996 8.39961H8.59961V13.5996H11.9996C12.8821 13.5996 13.5996 12.8821 13.5996 11.9996V8.39961ZM7.39961 8.39961H2.39961V11.9996C2.39961 12.8821 3.11711 13.5996 3.99961 13.5996H7.39961V8.39961Z" fill="#FAFAFF"/>
</svg>
