<svg xmlns="http://www.w3.org/2000/svg" width="24" height="25" fill="none" viewBox="0 0 24 25"><g clip-path="url(#a)"><path fill="#fff8ee" d="M23.275 6.754c-.63-2.32-3.042-4.731-5.361-5.361A24 24 0 0 0 12 .667a24 24 0 0 0-5.913.726c-2.319.63-4.73 3.041-5.36 5.36A24 24 0 0 0 0 12.668c.007 2.586.371 4.491.726 5.913.63 2.32 3.042 4.731 5.361 5.361a24 24 0 0 0 5.914.726 24 24 0 0 0 5.913-.726c2.32-.63 4.73-3.041 5.36-5.36.356-1.422.72-3.328.727-5.914a24 24 0 0 0-.726-5.913"/><path fill="#fe852e" d="M12 4.695a7.972 7.972 0 1 0 0 15.943 7.972 7.972 0 0 0 0-15.943"/><path fill="url(#b)" d="M12.883 16.87a.883.883 0 1 1-1.766 0v-5.576a.883.883 0 1 1 1.766 0zm-.003-7.885a.51.51 0 0 1-.395.395c-.115.019-.271.037-.485.037s-.37-.018-.485-.037a.51.51 0 0 1-.395-.395 3 3 0 0 1-.038-.486c0-.213.018-.37.038-.485a.51.51 0 0 1 .395-.395c.115-.02.271-.037.485-.037s.37.018.485.037c.19.033.362.206.395.395.02.115.037.272.038.485 0 .214-.018.37-.038.486"/></g><defs><linearGradient id="b" x1="14.775" x2="9.225" y1="15.343" y2="9.792" gradientUnits="userSpaceOnUse"><stop stop-color="#ffe7dc"/><stop offset=".57" stop-color="#fff"/><stop offset="1" stop-color="#fff"/></linearGradient><clipPath id="a"><path fill="#fff" d="M0 .667h24v24H0z"/></clipPath></defs></svg>