<svg xmlns="http://www.w3.org/2000/svg" width="14" height="14" fill="none" viewBox="0 0 14 14"><path fill="#fff" d="M13.36 4.454a4.6 4.6 0 0 0-.297-1.573 3.27 3.27 0 0 0-1.872-1.868A4.7 4.7 0 0 0 9.637.715c-.684-.03-.9-.04-2.636-.04s-1.958 0-2.637.04a4.7 4.7 0 0 0-1.553.298A3.28 3.28 0 0 0 .939 2.88a4.6 4.6 0 0 0-.298 1.55c-.03.684-.04.9-.04 2.633s0 1.955.04 2.633c.011.53.111 1.055.298 1.552a3.27 3.27 0 0 0 1.872 1.868 4.7 4.7 0 0 0 1.554.319c.684.03.9.04 2.637.04 1.735 0 1.958 0 2.637-.04a4.7 4.7 0 0 0 1.553-.297 3.28 3.28 0 0 0 1.872-1.869c.187-.496.287-1.02.298-1.552.03-.682.04-.899.04-2.632-.002-1.733-.002-1.953-.042-2.632M6.997 10.34a3.283 3.283 0 0 1-3.286-3.28 3.289 3.289 0 0 1 5.61-2.32 3.278 3.278 0 0 1-2.324 5.6m3.416-5.917a.767.767 0 0 1-.708-1.058.765.765 0 1 1 .708 1.058"/><path fill="#fff" d="M6.983 9.192a2.131 2.131 0 1 0 0-4.262 2.131 2.131 0 0 0 0 4.262"/></svg>