<svg width="52" height="15" viewBox="0 0 52 15" fill="none" xmlns="http://www.w3.org/2000/svg">
<g clip-path="url(#clip0_30798_11999)">
<path d="M0.3796 9.29143C0.29784 9.26807 0.21024 9.11039 0.21024 9.01111C0.21024 6.89119 0.28032 4.78295 0 2.69223L2.56376 2.23671C2.5696 2.47615 2.55208 2.72143 2.56376 2.96671C2.5696 3.11855 2.52288 3.17111 2.73312 3.13607C3.0368 3.08351 3.55072 2.55791 3.90696 2.40607C5.01656 1.92719 6.47656 2.17247 6.99048 3.35799C7.8256 2.42359 8.95272 1.95639 10.1908 2.28927C11.8377 2.72727 11.5282 4.42671 11.534 5.76991C11.534 5.95679 11.4114 6.13783 11.4114 6.33055C11.4114 7.13063 11.6099 8.03583 11.534 8.91183C11.5223 9.02863 11.4873 9.29727 11.3588 9.29727H9.11624C9.04032 9.29727 8.95856 9.11623 8.94688 9.01695C8.89432 8.63735 8.9352 7.96575 8.94688 7.55695C8.97024 6.92039 8.98776 6.65759 8.94688 5.99183C8.91768 5.47791 9.12792 4.80047 8.6724 4.47343C7.98328 3.97703 7.20072 4.57271 7.07224 5.34359C6.94376 6.11447 7.01968 7.44599 7.04304 8.23439C7.05472 8.59063 7.2708 8.87679 7.04304 9.29727H4.74792C4.74792 9.29727 4.57856 9.13959 4.57856 9.12791V4.98151C4.57856 4.64279 4.11136 4.25735 3.75512 4.28071C3.49232 4.29823 2.67472 4.69535 2.67472 4.98151V9.12791C2.67472 9.12791 2.51704 9.29727 2.50536 9.29727C2.00896 9.29727 0.75336 9.39655 0.3796 9.29727V9.29143Z" fill="#058CCE"/>
<path d="M13.6538 8.39792C12.334 7.39344 12.3749 5.44872 12.9238 4.0296C12.9939 3.84856 13.1866 3.71424 13.21 3.52152C13.2742 3.0368 12.7953 1.49504 12.7603 0.829282C12.7486 0.595682 12.9121 0.362082 12.8713 0.110962C13.5429 0.134322 13.8699 0.905202 14.267 1.34904C14.4422 1.54176 15.0905 2.23088 15.2773 2.2484C15.4467 2.26008 15.7037 2.13744 15.9431 2.12576C16.6381 2.08488 17.2045 2.48784 17.6834 1.96224C17.9345 1.68776 18.2382 1.29648 18.466 1.01032C18.9157 1.1096 18.9857 0.870162 19.1376 0.508082L19.0266 0.449682C19.0792 0.379602 18.8981 0.140162 19.3595 0.227762C19.3128 0.484722 19.4705 0.724162 19.4821 0.957762C19.5055 1.68192 18.9799 2.96672 19.1609 3.6208C19.2077 3.77848 19.4413 4.02376 19.5289 4.25736C19.7741 4.91144 19.8209 5.9276 19.6982 6.61088H19.4763L19.5873 6.8328C19.1025 8.92352 17.0644 9.73528 15.0729 9.27392C14.7926 9.20968 14.1736 8.86512 13.9867 8.62568C14.0977 8.6432 14.2495 8.59648 14.3605 8.62568C14.4481 8.64904 14.4364 8.98776 14.7693 8.85344L14.6525 8.2928L13.648 8.40376L13.6538 8.39792ZM17.2396 4.81216C17.2396 4.81216 16.9242 4.4384 16.9009 4.42088C16.5271 4.16976 15.8905 4.2632 15.5168 4.49096C14.524 5.08664 14.6933 7.03136 15.8905 7.16568V7.49856C16.1125 7.53944 16.2351 7.36424 16.2293 7.16568C16.4453 7.1832 16.6965 7.13648 16.9009 7.16568C16.9125 7.16568 16.9417 7.33504 17.1228 7.27664L17.0118 6.94376C17.4381 6.31888 17.6484 5.80496 17.3505 5.03992H17.5725L17.4615 4.59024L17.2396 4.81216ZM14.8861 7.27664H14.5532V7.49856H14.8861V7.27664ZM16.7899 7.3876C16.6322 7.30584 16.4921 7.45768 16.568 7.49856C16.7257 7.58032 16.8658 7.42848 16.7899 7.3876ZM17.1286 7.60952H16.7957V7.72048H17.1286V7.60952ZM16.1183 7.83728C15.9957 7.71464 15.7737 7.93656 15.8964 8.0592C16.019 8.18184 16.2409 7.95992 16.1183 7.83728Z" fill="#058CCE"/>
<path d="M20.9949 9.29144C20.9131 9.26808 20.8255 9.1104 20.8255 9.01112C20.7671 7.68544 20.9073 6.29552 20.8255 4.97568C20.808 4.63112 20.7438 4.10552 20.7029 3.75512C20.6678 3.48064 20.37 2.76232 20.5978 2.62216L22.998 2.24256C23.3192 2.32432 23.0272 3.21784 23.4477 3.13024C23.5528 3.10688 24.131 2.64552 24.3295 2.55208C25.223 2.1316 26.3385 2.05568 27.1502 2.6864C27.3546 2.84408 27.7634 3.41056 27.7634 3.63832V9.12792C27.7634 9.12792 27.6058 9.29728 27.5941 9.29728H25.4683C25.4683 9.29728 25.2698 9.12208 25.2464 9.07536C25.042 8.6724 25.2873 8.17016 25.3048 7.79056C25.3398 7.04304 25.4041 5.36112 25.1062 4.73624C24.7091 3.90696 23.29 4.71872 23.29 4.98736V9.13376C23.29 9.13376 23.1323 9.30312 23.1206 9.30312C22.6242 9.30312 21.3686 9.4024 20.9949 9.30312V9.29144Z" fill="#058CCE"/>
<path d="M41.8851 6.60504C42.0019 7.14817 42.6618 7.45185 43.1699 7.50441C44.0284 7.58616 44.5949 7.23576 45.2957 6.8328C45.8096 7.67376 46.563 8.28696 45.4358 8.98193C44.3087 9.67688 41.9844 9.57176 40.8806 8.78336C39.0177 7.45768 39.0235 4.0588 40.8398 2.70392C42.7553 1.27312 45.5877 2.10824 46.2242 4.45008C46.4462 5.26184 46.5571 6.11448 45.5176 6.26632C44.7642 6.37728 43.9291 6.43568 43.1758 6.49992L41.8851 6.61088V6.60504ZM41.7742 5.26184C41.8676 5.34944 43.5203 5.15088 43.7247 5.02824C44.2036 4.7304 43.4094 3.87192 42.948 3.80768C42.1012 3.69672 41.634 4.49096 41.78 5.26184H41.7742Z" fill="#058CCE"/>
<path d="M34.491 0.27448C34.4968 0.22776 34.6311 0.11096 34.6078 0L37.0664 0.32704C37.1598 0.4088 36.7627 2.1024 37.0022 2.46448C37.265 2.85576 38.7133 2.1608 38.8476 2.63968L38.7425 4.7012H37.119C36.9963 4.7012 36.9554 4.97568 36.9438 5.08664C36.9087 5.49544 36.897 6.53496 37.0839 6.862C37.446 7.51024 38.8534 6.92624 38.9702 7.04888C38.9235 7.81976 39.1513 8.68408 38.3278 9.04032C37.1131 9.56592 34.7304 9.74112 34.4968 7.99496C34.4267 7.46352 34.5902 7.0956 34.6019 6.6576C34.6136 6.26048 34.672 5.18008 34.5844 4.8764C34.4851 4.54352 33.8778 4.88808 33.8135 4.41504C33.7785 4.16392 33.7726 3.06016 33.831 2.8616C33.9011 2.61048 34.2749 2.68056 34.491 2.68056C34.5727 1.93888 34.38 0.98112 34.491 0.27448Z" fill="#058CCE"/>
<path d="M47.4329 9.29143C47.3512 9.26807 47.2636 9.11039 47.2636 9.01111C47.1935 6.92039 47.4855 4.78295 46.9365 2.74479L47.1117 2.58127C47.5556 2.65135 49.1557 2.10823 49.401 2.27759C49.582 2.40023 49.4886 2.79735 49.5061 3.01343C49.658 3.16527 51.1355 2.14327 51.7896 2.35351C52.1633 2.47615 51.8713 3.03095 51.8596 3.28791C51.8304 3.86607 51.8888 4.45007 51.8596 5.02823C51.2056 5.08079 50.0434 4.77711 49.7806 5.58303C49.6521 5.98015 49.7047 7.28831 49.728 7.77887C49.7397 8.03583 50.0376 9.28559 49.6755 9.28559C49.1557 9.28559 47.8242 9.38487 47.4329 9.28559V9.29143Z" fill="#058CCE"/>
<path d="M33.1484 3.57995C32.4125 3.41643 31.1861 3.97707 31.7526 4.80635C32.1789 5.42539 32.7863 5.69987 32.9848 6.59923C33.3995 8.46219 31.2387 9.50171 29.6911 9.50171C29.4224 8.90603 28.7333 8.43299 28.7742 7.72635C29.2764 7.69715 30.4561 7.53947 30.4503 6.88539C30.4503 6.38315 29.4166 5.59475 29.1655 5.03995C28.5873 3.77851 29.6035 2.58131 30.7306 2.11995C31.0635 1.98563 32.068 1.66443 32.3016 1.90387C32.4592 2.06739 33.2652 3.45731 33.1425 3.58579L33.1484 3.57995Z" fill="#058CCE"/>
<path d="M36.477 10.5471C38.229 10.1791 39.613 11.4639 38.9181 13.2159C38.3516 14.6467 35.9046 14.6351 35.3323 13.0991C34.9819 12.1589 35.4141 10.769 36.477 10.5471ZM37.6041 11.5574C37.4873 11.4347 37.0902 11.388 36.9208 11.4406C36.1674 11.6625 36.401 13.7707 37.4055 13.2743C37.9194 13.0174 37.9545 11.9195 37.6041 11.5632V11.5574Z" fill="#058CCE"/>
<path d="M31.3554 14.2204C30.9758 14.2029 30.2925 14.343 30.1757 13.8934C30.0589 13.4437 30.0706 11.9603 30.1231 11.4698C30.1874 10.8566 30.6721 10.6814 31.2152 10.547C31.7992 10.4069 32.8971 10.4478 33.341 10.8916C33.4111 10.9617 33.7089 11.534 33.7089 11.5866V14.051C33.7089 14.273 32.8563 14.2905 32.6343 14.1153C32.2255 13.7941 32.6927 12.1414 32.3715 11.6041C32.1788 11.2887 31.3554 11.4289 31.3554 11.6975V14.2204Z" fill="#058CCE"/>
<path d="M19.7043 11.8669C19.8386 10.9266 18.0574 11.7442 17.8472 11.423C17.6077 11.061 17.9406 10.6288 18.3202 10.5412C18.6239 10.477 19.5466 10.477 19.862 10.5237C20.3058 10.5879 20.8606 11.0201 20.9249 11.4756C20.9657 11.7559 20.9599 13.6422 20.8781 13.7707C20.4343 14.419 17.9173 14.4598 17.6194 13.5488C17.1405 12.0771 18.6122 11.8844 19.6985 11.861L19.7043 11.8669ZM19.8211 12.6494C19.4941 12.5969 18.5597 12.6494 18.7057 13.1458C19.0152 13.5488 19.3948 13.4145 19.8094 13.3152V12.6494H19.8211Z" fill="#058CCE"/>
<path d="M25.4216 11.534C25.3165 11.645 23.9383 11.1544 23.7397 11.5924C23.6521 11.791 23.9324 11.7968 24.0492 11.8377C24.8726 12.118 25.7486 12.1297 25.6435 13.2743C25.6026 13.7357 25.299 14.0394 24.861 14.1737C24.3354 14.3314 22.7294 14.3898 22.6184 13.7182C22.449 12.7195 23.1265 13.2802 23.5645 13.3327C23.7455 13.3503 24.3646 13.3795 24.4113 13.1575C24.4814 12.8305 23.4302 12.7137 23.179 12.6027C22.5016 12.2932 22.3031 11.4406 22.8403 10.915C23.5061 10.2667 25.7194 10.1616 25.4216 11.534Z" fill="#058CCE"/>
<path d="M14.4073 10.547C14.9387 10.4594 16.1184 10.401 16.1301 11.1369C16.1359 11.8143 15.5519 11.3997 15.1723 11.4114C14.0861 11.4464 13.9634 13.2218 15.184 13.321C15.4643 13.3444 15.9082 13.0641 16.0717 13.321C16.4746 14.3489 15.1256 14.3255 14.4365 14.1737C12.5618 13.7649 12.6553 10.8449 14.4131 10.5529L14.4073 10.547Z" fill="#058CCE"/>
<path d="M28.4412 14.051C28.3595 14.3606 27.209 14.273 27.209 13.8291V10.6346C27.4776 10.4653 28.4412 10.6171 28.4412 10.915V14.051Z" fill="#058CCE"/>
<path d="M13.6543 8.39792L14.6588 8.28696L14.7756 8.8476C14.4427 8.98192 14.4544 8.6432 14.3668 8.61984C14.25 8.59064 14.104 8.6432 13.993 8.61984C13.6952 8.56728 13.7653 8.47968 13.6543 8.39792Z" fill="#058CCE"/>
<path d="M19.0323 0.443848L19.1433 0.502248C18.9914 0.864328 18.9155 1.10377 18.4717 1.00449C18.5009 0.969448 18.5067 0.800088 18.6294 0.659928C18.7812 0.484728 19.0148 0.461368 19.0323 0.443848Z" fill="#058CCE"/>
<path d="M19.7043 6.60504C19.6635 6.82112 19.5934 6.81528 19.5934 6.82696L19.4824 6.60504H19.7043Z" fill="#058CCE"/>
<path d="M17.2393 4.81216L17.4612 4.59024L17.5721 5.03992H17.3502C17.3502 5.03992 17.2509 4.83552 17.2393 4.818V4.81216Z" fill="#058CCE"/>
<path d="M16.2362 7.16569C16.2479 7.37009 16.1252 7.53945 15.9033 7.49857V7.16569C16.0143 7.17737 16.1311 7.15401 16.2362 7.16569Z" fill="#058CCE"/>
<path d="M14.8866 7.27664H14.5537V7.49856H14.8866V7.27664Z" fill="#058CCE"/>
<path d="M17.0186 6.93793L17.1296 7.27081C16.9427 7.32921 16.9193 7.15985 16.9076 7.15985C16.8784 7.03137 16.9777 6.99633 17.0186 6.93793Z" fill="#058CCE"/>
<path d="M16.1181 7.83729C16.2407 7.95993 16.0188 8.18185 15.8962 8.05921C15.7735 7.93657 15.9954 7.71465 16.1181 7.83729Z" fill="#058CCE"/>
<path d="M17.1288 7.60953H16.7959V7.72049H17.1288V7.60953Z" fill="#058CCE"/>
<path d="M16.79 7.3876C16.866 7.42848 16.7258 7.58032 16.5681 7.49856C16.4922 7.45768 16.6324 7.30584 16.79 7.3876Z" fill="#058CCE"/>
</g>
<defs>
<clipPath id="clip0_30798_11999">
<rect width="51.976" height="14.273" fill="white"/>
</clipPath>
</defs>
</svg>
