<svg width="16" height="16" viewBox="0 0 16 16" fill="none" xmlns="http://www.w3.org/2000/svg">
<path d="M3.38397 5.61804H1.87559C1.57593 5.61804 1.33301 5.86096 1.33301 6.16062V13.5506C1.33301 13.8503 1.57593 14.0932 1.87559 14.0932H3.38397C3.68363 14.0932 3.92655 13.8503 3.92655 13.5506V6.16062C3.92655 5.86096 3.68363 5.61804 3.38397 5.61804Z" stroke="white"/>
<path d="M9.47455 5.61802C9.05902 5.61802 8.79771 5.17005 9.00226 4.80835L9.6569 2.47196C9.94457 1.96327 9.57708 1.33325 8.99268 1.33325C8.8005 1.33325 8.6154 1.40577 8.47435 1.53631L4.64688 5.07885C4.42498 5.28423 4.29883 5.57288 4.29883 5.87525V13.008C4.29883 13.6073 4.78467 14.0932 5.38399 14.0932H11.3094C11.7669 14.0932 12.1752 13.8062 12.3303 13.3758L14.6016 7.07097C14.8563 6.36378 14.3323 5.61802 13.5806 5.61802H9.47455Z" stroke="white"/>
</svg>
