<svg xmlns="http://www.w3.org/2000/svg" width="17" height="17" fill="none" viewBox="0 0 17 17"><g clip-path="url(#a)"><path fill="#181818" d="M4.683 14.539H1.78V5.192h2.903zM3.23 3.917A1.695 1.695 0 0 1 1.549 2.22a1.68 1.68 0 0 1 3.362 0c0 .928-.753 1.697-1.681 1.697m12.316 10.622H12.65v-4.55c0-1.085-.022-2.475-1.51-2.475-1.509 0-1.74 1.178-1.74 2.397v4.628H6.5V5.192h2.784v1.275h.041c.388-.734 1.334-1.51 2.746-1.51 2.938 0 3.478 1.935 3.478 4.447v5.135z"/></g><defs><clipPath id="a"><path fill="#fff" d="M.549.54h16v16h-16z"/></clipPath></defs></svg>