<svg xmlns="http://www.w3.org/2000/svg" width="24" height="24" fill="none" viewBox="0 0 24 24"><path fill="#8d8dc5" d="M21 2.25H10A1.75 1.75 0 0 0 8.25 4v2c0 .966.784 1.75 1.75 1.75h11A1.75 1.75 0 0 0 22.75 6V4A1.75 1.75 0 0 0 21 2.25m-16 0H3A1.75 1.75 0 0 0 1.25 4v2c0 .966.784 1.75 1.75 1.75h2A1.75 1.75 0 0 0 6.75 6V4A1.75 1.75 0 0 0 5 2.25m16 14H10A1.75 1.75 0 0 0 8.25 18v2c0 .966.784 1.75 1.75 1.75h11A1.75 1.75 0 0 0 22.75 20v-2A1.75 1.75 0 0 0 21 16.25m-16 0H3A1.75 1.75 0 0 0 1.25 18v2c0 .966.784 1.75 1.75 1.75h2A1.75 1.75 0 0 0 6.75 20v-2A1.75 1.75 0 0 0 5 16.25"/><path fill="#b2b2d8" d="M17 9.25h-7A1.75 1.75 0 0 0 8.25 11v2c0 .966.784 1.75 1.75 1.75h7A1.75 1.75 0 0 0 18.75 13v-2A1.75 1.75 0 0 0 17 9.25m-12 0H3A1.75 1.75 0 0 0 1.25 11v2c0 .966.784 1.75 1.75 1.75h2A1.75 1.75 0 0 0 6.75 13v-2A1.75 1.75 0 0 0 5 9.25"/></svg>