<svg xmlns="http://www.w3.org/2000/svg" width="243" height="32" fill="none" viewBox="0 0 243 32"><path fill="#fd6634" d="M20.571 5.818c0 .665.265 1.304.735 1.774L32 18.286h-8.103a2.5 2.5 0 0 1-1.775-.735l-9.958-9.959a2.5 2.5 0 0 1-.735-1.774V1.255C11.429.562 10.867 0 10.174 0h-8.92C.563 0 0 .562 0 1.255v29.49C0 31.438.562 32 1.255 32h8.919c.693 0 1.255-.562 1.255-1.255v-4.562a2.5 2.5 0 0 0-.735-1.775L0 13.714h8.103a2.5 2.5 0 0 1 1.775.735l9.958 9.959c.471.47.735 1.109.735 1.774v4.563c0 .693.562 1.255 1.255 1.255h8.92c.692 0 1.254-.562 1.254-1.255V1.255C32 .562 31.438 0 30.745 0h-8.919c-.693 0-1.255.562-1.255 1.255z"/><path fill="#fff" d="M59.985 29.49q-2.72 0-5.067-.994a12.7 12.7 0 0 1-4.115-2.776 12.8 12.8 0 0 1-2.754-4.18q-.986-2.4-.986-5.244t.952-5.243q.952-2.433 2.686-4.181a12 12 0 0 1 4.047-2.741q2.347-.994 5.101-.994t4.931.925q2.21.926 3.741 2.467a9.3 9.3 0 0 1 1.748 2.403c.283.568 0 1.232-.57 1.51l-2.392 1.16c-.676.328-1.477-.017-1.875-.653a6.4 6.4 0 0 0-1.672-1.78q-1.599-1.235-3.91-1.235-2.245 0-3.946 1.063-1.7 1.062-2.652 2.947-.918 1.85-.918 4.352t.986 4.387 2.686 2.947q1.735 1.062 3.98 1.062a8 8 0 0 0 3.23-.651q1.53-.685 2.449-1.954.952-1.267.952-3.05v-2.124l2.414 2.056h-7.927a1.255 1.255 0 0 1-1.255-1.255V15.77c0-.693.562-1.255 1.255-1.255h9.529c.693 0 1.255.562 1.255 1.255v1.452q0 3.12-1.02 5.45-1.02 2.296-2.755 3.837a11.5 11.5 0 0 1-3.843 2.262q-2.108.72-4.285.72m14.7-.413a1.255 1.255 0 0 1-1.19-1.654l7.728-23.02c.171-.512.65-.856 1.19-.856h5.2c.54 0 1.018.344 1.19.856l7.727 23.02a1.255 1.255 0 0 1-1.19 1.654h-3.09a1.25 1.25 0 0 1-1.193-.865l-1.418-4.344h-9.284l-1.418 4.344c-.169.516-.65.865-1.193.865zm7.131-9.835h6.36L84.298 7.18h1.428zm19.157 9.835a1.255 1.255 0 0 1-1.255-1.255V4.804c0-.693.562-1.255 1.255-1.255h3.218c.395 0 .768.186 1.005.503l9.111 12.176h-2.38l8.84-12.162a1.25 1.25 0 0 1 1.015-.517h3.207c.693 0 1.255.562 1.255 1.255v23.02c0 .694-.562 1.255-1.255 1.255h-2.761a1.255 1.255 0 0 1-1.255-1.255V9.409l2.108.48-9.555 12.413a.682.682 0 0 1-1.09-.01l-9.215-12.403 1.768-.48v18.415c0 .694-.561 1.255-1.255 1.255zm31.018 0a1.254 1.254 0 0 1-1.254-1.255V4.804c0-.693.561-1.255 1.254-1.255h14.528c.693 0 1.255.562 1.255 1.255V6.92c0 .693-.562 1.255-1.255 1.255h-10.511v5.792h9.831c.693 0 1.255.562 1.255 1.255v2.116c0 .693-.562 1.255-1.255 1.255h-9.831v5.86h10.511c.693 0 1.255.562 1.255 1.255v2.116c0 .694-.562 1.255-1.255 1.255zm27.987.412a11.8 11.8 0 0 1-4.489-.857 10.8 10.8 0 0 1-3.604-2.502 10.3 10.3 0 0 1-1.825-2.744c-.268-.589.03-1.263.619-1.53l2.14-.967c.63-.285 1.363 0 1.73.587a7.7 7.7 0 0 0 2.029 2.187q1.7 1.2 3.74 1.2 1.088 0 1.871-.343.781-.343 1.224-.926.442-.615.442-1.439 0-.89-.544-1.508-.545-.65-1.7-1.028l-4.965-1.645q-3.027-.993-4.557-2.81-1.531-1.85-1.531-4.42 0-2.262 1.089-3.976 1.122-1.713 3.094-2.673 2.007-.96 4.591-.96 2.279 0 4.217.789a9.6 9.6 0 0 1 3.333 2.227 9 9 0 0 1 1.7 2.402c.285.584-.011 1.266-.603 1.536l-2.043.932c-.652.297-1.407-.022-1.795-.623a5.7 5.7 0 0 0-1.544-1.608q-1.428-1.028-3.265-1.028-1.054 0-1.87.343t-1.258.994a2.4 2.4 0 0 0-.443 1.439q0 .891.579 1.576.577.651 1.734 1.028l4.863 1.577q3.06.994 4.557 2.775 1.53 1.783 1.53 4.353 0 2.227-1.156 3.975-1.156 1.713-3.197 2.707-2.006.96-4.693.96"/><path fill="#fd6634" d="M174.467 29.078a1.255 1.255 0 0 1-1.255-1.255V4.804c0-.693.562-1.255 1.255-1.255h2.762c.693 0 1.255.562 1.255 1.255v9.78h9.862v-9.78c0-.693.562-1.255 1.255-1.255h2.761c.693 0 1.255.562 1.255 1.255v23.02c0 .694-.562 1.255-1.255 1.255h-2.761a1.255 1.255 0 0 1-1.255-1.255V19.21h-9.862v8.615c0 .693-.562 1.254-1.255 1.254zm33.719.412q-2.993 0-5.339-1.268t-3.707-3.462q-1.326-2.227-1.326-5.037V4.803c0-.693.562-1.255 1.255-1.255h2.761c.693 0 1.255.562 1.255 1.255V19.38q0 1.509.646 2.742a5.04 5.04 0 0 0 1.837 1.885q1.156.684 2.618.685 1.497 0 2.619-.685a4.8 4.8 0 0 0 1.802-1.885q.68-1.234.68-2.742V4.803c0-.693.562-1.255 1.255-1.255h2.762c.693 0 1.255.562 1.255 1.255v14.92q0 2.81-1.361 5.038-1.326 2.193-3.673 3.46-2.346 1.269-5.339 1.269m15.798-.412a1.255 1.255 0 0 1-1.255-1.255V4.804c0-.693.562-1.255 1.255-1.255h9.457q2.619 0 4.489.89 1.87.892 2.857 2.571.986 1.645.986 4.01 0 1.68-.918 3.22-.918 1.508-3.027 2.537V14.17q2.007.789 3.095 1.885t1.496 2.399q.408 1.267.408 2.673 0 3.77-2.482 5.86t-6.904 2.09zM228 24.452h6.053q1.599 0 2.551-.925.952-.926.952-2.399 0-1.508-.952-2.433t-2.551-.925H228zm0-11.309h5.815q1.224 0 1.939-.685.748-.72.748-1.885t-.748-1.85q-.715-.72-1.939-.72H228z"/></svg>