<svg width="107" height="39" viewBox="0 0 107 39" fill="none" xmlns="http://www.w3.org/2000/svg">
<mask id="mask0_30781_48289" style="mask-type:luminance" maskUnits="userSpaceOnUse" x="0" y="0" width="107" height="39">
<path d="M106.8 0H0V38.6513H106.8V0Z" fill="white"/>
</mask>
<g mask="url(#mask0_30781_48289)">
<path fill-rule="evenodd" clip-rule="evenodd" d="M0.964853 3.80199H0.978698L2.27423 22.0675C2.31023 22.574 2.79467 22.9711 3.38707 22.9758L5.74562 22.9948C6.37401 22.9996 6.88337 22.5621 6.8806 22.0247L6.77541 3.94228L7.11313 3.9494L9.91461 3.97318C10.5153 3.97794 11.0053 4.38691 11.0274 4.90049L11.8164 22.1246C11.8413 22.6381 12.3285 23.0471 12.9292 23.0519L15.739 23.0757C16.3397 23.0804 16.8379 22.681 16.874 22.1674L18.0505 4.95993C18.0865 4.44634 18.5847 4.04452 19.1855 4.05164L20.863 4.06591C21.4831 4.07067 21.9814 4.50817 21.9759 5.04077L21.7959 22.1627C21.7904 22.6953 22.2887 23.1327 22.9087 23.1375L25.2867 23.1565C25.8763 23.1612 26.3718 22.7737 26.4189 22.2672L28.3982 1.25309C28.4508 0.694326 27.9414 0.21403 27.2882 0.209274L1.89776 3.57142e-05C1.24445 -0.0047197 0.72402 0.466066 0.762775 1.02483L0.96209 3.80199H0.964853ZM48.5372 1.39813L50.0597 22.4646C50.0957 22.9711 50.5802 23.3657 51.1725 23.3705L53.5283 23.3895C54.1567 23.3943 54.6688 22.9544 54.6633 22.4147L54.6467 20.988C54.6412 20.415 55.2142 19.9632 55.8786 20.018L58.6191 20.2414C59.2005 20.289 59.6434 20.7098 59.6379 21.2115L59.624 22.4741C59.6185 23.0067 60.1168 23.4443 60.7368 23.449L63.1148 23.468C63.7044 23.4728 64.1999 23.0852 64.247 22.5811L66.2373 1.56694C66.29 1.00818 65.7806 0.527887 65.1273 0.523131L49.6472 0.394735C49.0105 0.38998 48.5012 0.851258 48.5399 1.39813H48.5372ZM59.8122 5.46638L59.7099 14.6634C59.7043 15.196 59.1949 15.6263 58.5748 15.6192L55.6903 15.5954C55.0785 15.5907 54.583 15.1651 54.5775 14.6396L54.4778 5.7945C54.4723 5.30232 54.8958 4.88622 55.4661 4.82678L58.5527 4.50104C59.2282 4.4297 59.8205 4.88622 59.815 5.46876L59.8122 5.46638ZM81.996 0.656281L83.7899 0.670547V0.672925L104.136 0.489841C104.768 0.482708 105.28 0.922585 105.274 1.4647L105.235 4.79111C105.23 5.34512 104.685 5.78024 104.042 5.74695L87.7345 4.90049C87.1084 4.86719 86.5721 5.2833 86.5442 5.82304L85.6945 22.7095C85.6666 23.2302 85.1651 23.6392 84.5591 23.6344L81.8133 23.6107C81.3784 23.6059 80.9852 23.3871 80.8026 23.0471L75.7534 13.5957C75.2441 12.6423 73.5776 12.9728 73.6081 14.0214L73.8461 22.5479C73.8628 23.0947 73.3478 23.5417 72.7111 23.5369L69.0681 23.506C68.4397 23.5013 67.9387 23.0519 67.9553 22.5121L68.6529 1.49561C68.6695 0.967761 69.1761 0.551661 69.7879 0.556417L72.6364 0.580194C73.0378 0.582572 73.4032 0.768032 73.6025 1.06525L78.8345 8.91645C79.4103 9.77953 80.9465 9.42054 80.9357 8.42666L80.8606 1.63114C80.8552 1.0914 81.3675 0.651525 81.996 0.656281ZM90.9323 23.6844L94.0078 23.7034C94.6254 23.7082 95.1316 23.2849 95.1424 22.7547L95.1594 21.9534C95.1702 21.4089 95.705 20.9809 96.3358 21.0071L99.0406 21.1164C99.6442 21.1402 100.117 21.5706 100.112 22.0889L100.103 22.7856C100.098 23.3182 100.596 23.7557 101.216 23.7604L103.628 23.7794C104.203 23.7842 104.69 23.4133 104.757 22.9235L106.584 9.0995C106.659 8.53125 106.144 8.02956 105.476 8.02476L90.5144 7.89876C89.8496 7.89404 89.3264 8.37904 89.3822 8.94737L89.8194 22.7975C89.869 23.2944 90.3511 23.6748 90.9292 23.6796L90.9323 23.6844ZM96.4991 11.8624L99.0932 11.8838C99.7131 11.8886 100.212 12.326 100.206 12.8587L100.181 15.4028C100.175 15.9069 99.7185 16.323 99.1342 16.3587L96.5045 16.5132C95.8459 16.5512 95.2894 16.0971 95.3034 15.5312L95.3645 12.8111C95.3753 12.2809 95.8815 11.8577 96.4991 11.8624ZM44.4192 0.589708C45.0006 0.594464 45.4767 0.989166 45.4988 1.48848L46.4594 21.8939C46.4843 22.429 45.9805 22.8736 45.3577 22.8688L30.3759 22.7452C29.742 22.7404 29.2465 22.2744 29.2991 21.7322L31.2313 1.35057C31.2784 0.860766 31.7573 0.485089 32.3303 0.489845L44.4192 0.589708ZM43.2178 18.3465C43.3368 18.3369 43.4476 18.3036 43.5278 18.2489H43.5251C43.6054 18.1942 43.6524 18.1182 43.6414 18.0254C43.6133 17.6724 43.5846 17.3189 43.556 16.9651C43.5251 16.5849 43.4943 16.2042 43.4642 15.8237C43.4362 15.4707 43.4075 15.1172 43.3789 14.7634C43.348 14.3831 43.3172 14.0025 43.287 13.6219C43.2787 13.5506 43.2483 13.4935 43.1874 13.4555C43.1265 13.4151 43.0379 13.3961 42.9188 13.4032C42.3458 13.4341 41.7728 13.4602 41.1998 13.4792C41.0198 13.4864 40.9229 13.3532 40.9174 13.2177C40.9091 13.0821 40.9949 12.9443 41.172 12.9395C41.7423 12.9205 42.3099 12.8944 42.8774 12.8611C42.9964 12.8539 43.0794 12.8254 43.132 12.7802C43.1846 12.735 43.2067 12.6732 43.2012 12.6043C43.1732 12.2513 43.1445 11.8978 43.1159 11.544C43.085 11.1637 43.0541 10.7831 43.024 10.4025C43.1181 8.85221 43.1929 7.30435 43.2538 5.75409C43.2455 5.66136 43.1957 5.59002 43.1237 5.54485C43.0517 5.49967 42.9576 5.47827 42.8607 5.48303C42.2821 5.52107 41.7008 5.55198 41.1223 5.57576C41.0198 5.57813 40.9201 5.61618 40.8455 5.67562C40.7707 5.73506 40.7236 5.81591 40.7236 5.90388C40.7554 6.61638 40.788 7.32888 40.8205 8.04138C40.853 8.75311 40.8856 9.46483 40.9174 10.1766C41.8503 10.1671 42.6171 10.462 42.6697 11.1396C42.7086 11.6565 42.2601 11.6326 41.6208 11.5985C41.3956 11.5865 41.1466 11.5732 40.8869 11.5818C40.6282 11.5905 40.3823 11.62 40.1595 11.6466C39.5245 11.7227 39.0792 11.776 39.071 11.2585C39.0682 11.1467 39.0932 11.0445 39.1292 10.9518V10.9446C39.2675 10.6022 39.6385 10.3763 40.1312 10.2622L39.9319 4.44634C39.9319 4.35124 39.8987 4.28228 39.8405 4.23711C39.7824 4.19193 39.7022 4.17054 39.5997 4.17054H39.1292H38.6558C38.5893 4.16815 38.5312 4.19431 38.4841 4.23711C38.437 4.27991 38.4066 4.3441 38.4038 4.41781C38.4249 7.47609 38.436 8.80451 38.4443 9.80412C38.4524 10.7746 38.4579 11.4351 38.4675 13.0679H38.4786L38.5086 13.065L38.5506 13.0608C38.5531 13.0608 38.5598 13.0597 38.5702 13.0582C38.5821 13.0563 38.599 13.0538 38.6198 13.0513C38.7332 13.0346 38.8385 13.0109 38.9326 12.9823L38.9587 12.9741L38.9679 12.9712L38.9758 12.9688L38.9852 12.9656C38.9921 12.9633 38.9997 12.9609 39.0073 12.9585C39.0149 12.9561 39.0226 12.9537 39.0295 12.9514C39.2122 12.8825 39.4336 12.93 39.5333 13.0584C39.633 13.1868 39.5637 13.3484 39.3811 13.4198L39.378 13.4223L39.376 13.4236C39.3749 13.4242 39.3739 13.4246 39.3727 13.4246C39.3516 13.4329 39.3342 13.4389 39.3213 13.4433C39.3123 13.4464 39.3053 13.4488 39.3007 13.4507C39.2731 13.4602 39.2482 13.4673 39.2233 13.4744C39.0905 13.5149 38.9409 13.5482 38.7804 13.5743C38.7745 13.5754 38.7656 13.5764 38.7534 13.5777C38.737 13.5796 38.7148 13.5821 38.6862 13.5862L38.6619 13.5896C38.6234 13.5948 38.599 13.5981 38.5921 13.5981C38.4288 13.6171 38.2571 13.6267 38.08 13.6267C37.9554 13.6267 37.8335 13.6219 37.7201 13.6124C37.6785 13.6076 37.6703 13.6076 37.6647 13.6076C37.5706 13.5981 37.4737 13.5862 37.3824 13.572L37.3658 13.5691C37.3427 13.5653 37.3177 13.5611 37.291 13.5553C37.2677 13.552 37.2456 13.5475 37.226 13.5434L37.2024 13.5387C37.0502 13.5078 36.909 13.4673 36.7844 13.4198C36.5961 13.3508 36.527 13.1892 36.6238 13.0584C36.718 12.9276 36.9449 12.8777 37.1304 12.9466C37.2107 12.9775 37.3048 13.0037 37.4101 13.0251C37.4322 13.0299 37.4543 13.0346 37.4737 13.037C37.485 13.0402 37.4988 13.0423 37.5152 13.0449C37.5227 13.046 37.5315 13.0474 37.5402 13.0489C37.5665 13.0529 37.5946 13.0562 37.6234 13.0595C37.646 13.0621 37.6692 13.0647 37.6924 13.0679C37.702 11.4339 37.7075 10.773 37.7156 9.80102C37.724 8.80135 37.735 7.47265 37.7561 4.41781C37.7533 4.3441 37.7229 4.28228 37.6758 4.23711C37.6315 4.19431 37.5706 4.17054 37.507 4.17054H37.0336H36.5602C36.4606 4.17054 36.3775 4.19193 36.3193 4.23711C36.2612 4.28228 36.228 4.35362 36.228 4.44634C36.1945 5.43016 36.1604 6.41398 36.1261 7.39749L36.126 7.40227L36.1254 7.41853L36.1252 7.42424L36.1251 7.4297L36.1248 7.43517L36.1247 7.44039L36.1231 7.48411L36.1225 7.50203C36.0901 8.43516 36.0577 9.36797 36.0259 10.3002C36.3553 10.3977 36.6156 10.5523 36.7734 10.7615C36.7851 10.7655 36.7968 10.7692 36.8083 10.7727C36.824 10.7775 36.8393 10.7822 36.8536 10.7877C37.0308 10.8567 37.1027 11.0183 37.0086 11.1491C36.9893 11.1776 36.9616 11.199 36.9339 11.2181V11.2585C36.9257 11.7757 36.4826 11.7215 35.8478 11.6438C35.6247 11.6166 35.3778 11.5863 35.1179 11.5771C34.8594 11.5685 34.6115 11.5814 34.3871 11.5931C33.7464 11.6267 33.297 11.6502 33.338 11.1325C33.3933 10.4334 34.2099 10.1409 35.1844 10.1742C35.1954 10.1742 35.2058 10.1749 35.2162 10.1754C35.2265 10.176 35.237 10.1766 35.2481 10.1766C35.2799 9.46414 35.3125 8.75164 35.345 8.03914C35.3775 7.32736 35.41 6.61562 35.4418 5.90388C35.4446 5.81353 35.3947 5.73506 35.32 5.67562C35.2453 5.61618 35.1428 5.58051 35.0432 5.57576C34.4618 5.55198 33.8833 5.52107 33.3047 5.48303C33.2106 5.47827 33.1137 5.49967 33.0417 5.54485C32.967 5.59002 32.9172 5.66136 32.9116 5.75409C32.9725 7.30435 33.0473 8.85221 33.1414 10.4025C33.1134 10.7555 33.0847 11.109 33.056 11.4628C33.0252 11.8431 32.9944 12.2237 32.9643 12.6043C32.9587 12.6756 32.9808 12.735 33.0334 12.7802C33.0861 12.8254 33.1691 12.8539 33.2881 12.8611C33.8556 12.892 34.4259 12.9181 34.9934 12.9395C35.1705 12.9443 35.2536 13.0821 35.2481 13.2177C35.2425 13.3532 35.1456 13.4864 34.9657 13.4792C34.3927 13.4602 33.8197 13.4341 33.2466 13.4032C33.1275 13.3984 33.039 13.4174 32.9781 13.4555C32.9172 13.4935 32.8839 13.553 32.8784 13.6219C32.8504 13.9747 32.8218 14.3279 32.7931 14.6816C32.7623 15.062 32.7314 15.4429 32.7013 15.8237C32.6733 16.1766 32.6445 16.5301 32.6159 16.884C32.585 17.2642 32.5542 17.6449 32.5241 18.0254C32.513 18.1182 32.56 18.1942 32.6404 18.2489C32.7206 18.3036 32.8314 18.3393 32.9504 18.3465C33.4182 18.3702 33.8833 18.3916 34.3511 18.4082C34.4757 18.413 34.603 18.3845 34.6999 18.3321C34.7996 18.2798 34.8688 18.2037 34.8743 18.1158C34.8868 17.8839 34.8986 17.6515 34.9103 17.4191C34.9221 17.1867 34.9339 16.9543 34.9463 16.7225C34.9574 16.5298 35.1788 16.4514 35.3947 16.4562C35.6134 16.4609 35.8239 16.5465 35.8183 16.6892C35.7913 17.4836 35.767 18.2804 35.7427 19.075V19.076V19.0773L35.7408 19.1382C35.7352 19.2333 35.7712 19.3046 35.8432 19.3522C35.9152 19.3997 36.0176 19.4259 36.1477 19.4306C36.3498 19.4378 36.5491 19.4425 36.7512 19.4473C36.8522 19.4496 36.9526 19.4514 37.0529 19.4533C37.1533 19.455 37.2537 19.4568 37.3547 19.4591C37.4377 19.4615 37.5152 19.4378 37.5734 19.395C37.6315 19.3522 37.6703 19.288 37.6758 19.2143L37.6924 15.5645C36.8619 15.5288 35.9844 15.3957 35.2895 15.0628C35.0985 14.9701 34.9823 14.8084 35.1484 14.6563C35.3006 14.5136 35.536 14.535 35.7214 14.6229C36.9449 15.215 39.2233 15.215 40.4468 14.6229C40.6295 14.5374 40.8648 14.5159 41.0198 14.6563C41.1859 14.8084 41.0669 14.9724 40.8787 15.0628C40.1838 15.398 39.3091 15.5288 38.4758 15.5645L38.4925 19.2143C38.4952 19.288 38.5367 19.3522 38.5948 19.395C38.653 19.4378 38.7333 19.4615 38.8136 19.4591C39.0104 19.4568 39.2045 19.4523 39.4013 19.4476L39.417 19.4473C39.6191 19.4425 39.8184 19.4378 40.0205 19.4306C40.1506 19.4259 40.253 19.3997 40.325 19.3522C40.397 19.3022 40.433 19.2309 40.4274 19.1382C40.4005 18.3445 40.3762 17.5485 40.3519 16.7547L40.3519 16.7539L40.3518 16.7501L40.3499 16.6892C40.3443 16.5465 40.5576 16.4609 40.7735 16.4562C40.9894 16.4514 41.2108 16.5298 41.2219 16.7225C41.2343 16.9543 41.2461 17.1867 41.2579 17.4191C41.2696 17.6515 41.2814 17.8839 41.2939 18.1158C41.3022 18.2037 41.3714 18.2798 41.4683 18.3321C41.5652 18.3845 41.6925 18.413 41.8171 18.4082C42.2849 18.3916 42.7528 18.3702 43.2178 18.3465ZM14.2138 34.9811C9.93412 41.1679 0.297881 36.6551 2.31593 30.1045C2.83914 28.1 4.62742 26.3025 7.01088 25.8437C9.57154 25.2183 13.0401 26.2787 13.9038 28.5328C13.9398 28.666 13.8678 28.8015 13.7267 28.8633C13.0705 29.1938 12.348 29.4173 11.5951 29.5219C11.4567 29.5552 11.31 29.5219 11.2103 29.4316C10.7259 28.7349 9.85386 28.3069 8.90992 28.3045C6.22747 28.2023 4.62742 31.2576 5.88697 33.4522C6.58734 34.6625 8.10985 35.4852 9.61581 34.8718C10.2469 34.5769 10.7812 34.1537 11.1715 33.6354C11.1744 33.6324 11.1806 33.6253 11.1896 33.6147C11.2614 33.5317 11.5117 33.2422 11.6616 33.2169C12.4256 33.0933 14.0948 33.8945 14.3772 34.5151C14.4298 34.6269 14.3439 34.7886 14.2138 34.9763V34.9811ZM26.6876 37.9102C26.8758 38.0195 29.6662 37.2896 29.5915 36.7142C29.5306 36.2268 24.7498 26.7992 24.4343 26.4021C23.9747 25.8219 21.7684 25.8766 21.2259 26.1334C20.7802 26.345 15.7586 36.1935 15.7475 36.5882C15.7337 37.0638 18.2278 38.0338 18.6791 37.8508C18.8399 37.7858 19.0058 37.4587 19.2547 36.9681C19.37 36.7409 19.5031 36.4786 19.6618 36.1911C20.2514 36.203 23.7864 36.203 25.6384 36.1483C25.9347 36.757 26.2862 37.3467 26.6876 37.9102ZM23.5477 31.48C23.942 32.2834 24.3582 33.1316 24.6086 33.6089C23.659 33.5752 22.4665 33.5919 21.6347 33.6035H21.6339C21.176 33.6099 20.8274 33.6148 20.6888 33.6089C21.5525 31.8232 22.6349 29.65 22.6349 29.65C22.805 29.9669 23.1661 30.7026 23.5477 31.48ZM41.4673 34.7288C41.1572 38.6972 35.3882 38.2193 32.213 37.2302C31.9915 37.1564 31.7756 37.0566 31.784 36.99C31.9639 36.2244 32.2683 35.4849 32.6947 34.793C32.7473 34.7085 32.9625 34.7556 33.2638 34.8214C33.3271 34.8353 33.3941 34.8499 33.4643 34.8643C33.6568 34.9018 33.8542 34.9428 34.055 34.9846C35.298 35.2434 36.6719 35.5294 37.8325 35.1282C38.1343 35.0332 38.3253 34.774 38.2949 34.4982C38.2644 34.2223 38.0235 33.9965 37.7052 33.9489C37.2589 33.8325 36.7917 33.7475 36.3216 33.6621C35.1791 33.4545 34.0194 33.2437 33.1016 32.5698C31.1943 31.255 31.3825 28.4541 33.1653 27.1178C34.8151 25.8505 38.3032 25.898 40.18 26.7707C40.2824 26.8206 40.3351 26.9204 40.3156 27.0179C40.1136 27.8406 39.7676 28.6323 39.2914 29.3647C39.2444 29.417 39.0035 29.4027 38.9121 29.3861C38.7535 29.3587 38.5697 29.3181 38.369 29.2739C37.544 29.0919 36.434 28.8469 35.6124 29.1912C35.0726 29.417 34.876 30.2563 35.5238 30.5559C36.2602 30.8056 37.0242 30.9911 37.8021 31.1147C40.3046 31.6307 41.7108 32.8385 41.47 34.7264L41.4673 34.7288ZM44.2327 37.8199C45.0688 37.972 46.6383 37.9268 47.347 37.8531H47.3498C47.5325 37.8365 47.5131 37.1042 47.5131 37.1042V26.8396C47.5131 26.8396 47.5131 26.1406 47.3498 26.1239C46.5 26.0454 44.9276 25.9527 44.2383 26.0858C44.0694 26.1192 44.075 26.8396 44.075 26.8396V37.1089C44.075 37.1779 44.0777 37.7913 44.2327 37.8199ZM62.1985 26.7017C62.0934 30.1089 61.9882 33.5637 61.8913 36.971C61.8913 36.971 61.8857 37.7081 61.703 37.7248C60.9943 37.7794 59.422 37.7913 58.5888 37.6177C58.5796 37.6177 58.5682 37.6116 58.5529 37.6033C58.5447 37.599 58.5355 37.5941 58.5251 37.5892C58.3562 37.4988 58.0102 37.0423 58.0102 37.0423C57.374 36.1885 56.7302 35.3218 56.0853 34.4535L56.0783 34.444C55.2636 33.3472 54.4472 32.2479 53.6419 31.1694C53.5984 32.1475 53.5521 33.1647 53.5058 34.181C53.4608 35.1706 53.4157 36.16 53.3734 37.1113C53.3734 37.1113 53.3485 37.8555 53.1768 37.8674C51.6847 37.9768 50.929 37.9078 50.0653 37.7271C49.9103 37.6938 49.9352 36.9948 49.9352 36.9948C50.0116 35.3357 50.088 33.651 50.1644 31.9663C50.2458 30.1718 50.3272 28.3772 50.4086 26.6137C50.4086 26.6137 50.4225 25.8695 50.6107 25.8576C51.0425 25.8267 53.0052 25.7459 53.7775 26.0526C53.9602 26.1025 54.3229 26.5946 54.3229 26.5946L55.2125 27.7921L55.2249 27.8088C56.3447 29.316 57.4813 30.8459 58.5888 32.3345C58.6235 31.3098 58.6542 30.2603 58.6847 29.213L58.6848 29.2114C58.7102 28.3422 58.7355 27.4737 58.7631 26.6233C58.7631 26.6233 58.777 25.9028 58.9459 25.8743C59.6435 25.7578 61.2601 25.7078 62.0601 25.9789C62.2013 26.0264 62.1985 26.7017 62.1985 26.7017ZM64.7344 34.5933C65.9192 37.0447 69.3851 38.3739 72.3443 37.7841C76.314 37.0043 78.0273 33.6208 77.2745 30.3824C76.624 26.1477 71.3256 24.4714 67.2535 26.5661C64.2001 28.1735 63.4527 31.878 64.7344 34.5933ZM70.9772 28.6299C70.978 28.6299 70.9788 28.63 70.9796 28.63L70.9772 28.6299C70.9771 28.6299 70.9773 28.6299 70.9772 28.6299ZM68.0313 30.0709C68.5376 29.1062 69.7876 28.6235 70.9772 28.6299C73.6012 28.5351 74.1852 30.7867 73.9388 32.5984C73.7229 34.6289 71.0654 35.5587 69.1 34.5529C67.2895 33.7135 67.2978 31.5047 68.0313 30.0709Z" fill="url(#paint0_linear_30781_48289)"/>
<path fill-rule="evenodd" clip-rule="evenodd" d="M25.3689 1.23732C25.2508 1.26661 25.138 1.29459 25.0283 1.28953V1.28807C24.9118 1.2837 24.7059 1.18902 24.7091 1.13803C24.7155 1.02878 24.7969 0.881646 24.9054 0.820461C25.199 0.65439 25.5277 0.837939 25.5277 1.20067C25.4737 1.21134 25.4208 1.22446 25.3689 1.23732ZM24.6132 1.60742C24.5435 1.66662 24.4925 1.70994 24.4314 1.72506C24.2575 1.76877 24.1729 1.67554 24.1649 1.53569C24.1585 1.41915 24.1984 1.30407 24.3628 1.32009C24.4338 1.32676 24.5007 1.36463 24.5881 1.41408C24.6343 1.4402 24.6862 1.46956 24.7474 1.49927C24.6942 1.53866 24.651 1.57537 24.6132 1.60742ZM22.0729 3.61011C21.7968 3.38141 21.7617 3.38431 21.5127 3.66547C21.7096 3.81309 21.8962 3.79464 22.0729 3.61011ZM22.8182 3.46298C22.6251 3.4688 22.5996 3.35663 22.6012 3.20804V3.20659C22.7359 3.19733 22.8574 3.18807 22.9933 3.17773L23.0352 3.17454C23.0719 3.37411 22.9889 3.4586 22.8182 3.46298ZM25.0158 2.80507C25.0216 2.81411 25.0275 2.82325 25.033 2.83221C25.1527 2.82347 25.2724 2.81472 25.3905 2.80599C25.3957 2.79586 25.4007 2.78573 25.4055 2.77572C25.4126 2.76121 25.4196 2.74693 25.4271 2.73315C25.4044 2.72033 25.3812 2.70402 25.358 2.68768C25.3046 2.65019 25.2511 2.61255 25.2022 2.6166C25.1504 2.62062 25.1017 2.66345 25.053 2.70637C25.031 2.72567 25.009 2.745 24.9867 2.76083H24.9883C24.9972 2.77601 25.0065 2.79064 25.0158 2.80507ZM26.7137 2.41537C26.6698 2.44978 26.6262 2.48394 26.5747 2.4957C26.4694 2.52046 26.3258 2.52046 26.3386 2.38498C26.3416 2.3503 26.3837 2.31682 26.4383 2.2733C26.4687 2.24918 26.5029 2.22198 26.5364 2.18978L26.6424 2.26729C26.6937 2.30477 26.7364 2.33586 26.779 2.3675C26.7565 2.38181 26.7351 2.39862 26.7137 2.41537ZM23.5984 1.61145C23.5075 1.59782 23.4142 1.59051 23.3216 1.58326L23.2728 1.5794C23.2699 1.59901 23.2665 1.61863 23.2632 1.63838C23.2593 1.66117 23.2555 1.68418 23.2521 1.70759C23.362 1.71633 23.4725 1.72509 23.584 1.73382L23.5875 1.71121C23.5941 1.66838 23.6026 1.61267 23.5999 1.61145H23.5984ZM27.4938 2.51171C27.3533 2.52191 27.2592 2.52919 27.165 2.53647C27.2879 2.69381 27.3885 2.69526 27.4938 2.51171Z" fill="black"/>
<path fill-rule="evenodd" clip-rule="evenodd" d="M57.9397 19.2011C58.0582 19.1733 58.1714 19.1468 58.281 19.1532V19.1547C58.3974 19.1606 58.6019 19.2579 58.598 19.3088C58.5901 19.418 58.5066 19.5641 58.3973 19.6239C58.1013 19.7862 57.7752 19.5984 57.7803 19.2357C57.8346 19.2257 57.8876 19.2133 57.9397 19.2011ZM58.7007 18.8407C58.7712 18.7824 58.8228 18.7397 58.8841 18.7254C59.0587 18.6839 59.1419 18.7782 59.1479 18.9182C59.1526 19.0347 59.1111 19.1493 58.947 19.1312C58.8761 19.1236 58.8097 19.0849 58.723 19.0343C58.6772 19.0076 58.6257 18.9776 58.565 18.9471C58.6188 18.9084 58.6625 18.8722 58.7007 18.8407ZM61.269 16.8706C61.5419 17.1029 61.5771 17.1004 61.8299 16.8224C61.6353 16.6723 61.4483 16.6884 61.269 16.8706ZM60.5217 17.0082C60.7148 17.0048 60.7388 17.1174 60.7351 17.2659L60.735 17.2674C60.6002 17.2749 60.4784 17.2826 60.3424 17.2912L60.3006 17.2939C60.2668 17.0938 60.3509 17.0104 60.5217 17.0082ZM58.3149 17.638C58.3093 17.6288 58.3036 17.6197 58.2982 17.6107C58.1783 17.6178 58.0585 17.6251 57.9403 17.6323C57.935 17.6424 57.9298 17.6524 57.9248 17.6624C57.9175 17.6768 57.9103 17.691 57.9026 17.7047C57.9252 17.7178 57.9481 17.7344 57.9712 17.751C58.024 17.7892 58.077 17.8275 58.126 17.8241C58.1777 17.8207 58.227 17.7786 58.2764 17.7362C58.2986 17.7172 58.3209 17.6982 58.3434 17.6826H58.3418C58.3332 17.6673 58.324 17.6526 58.3149 17.638ZM56.6118 18.006C56.6561 17.9721 56.7002 17.9386 56.7519 17.9274C56.8575 17.904 57.0012 17.9059 56.9864 18.0412C56.9829 18.0758 56.9404 18.1087 56.8851 18.1515C56.8544 18.1753 56.8199 18.2021 56.7858 18.2339L56.6809 18.1549C56.6301 18.1168 56.588 18.0852 56.5458 18.0531C56.5685 18.039 56.5901 18.0224 56.6118 18.006ZM59.7155 18.8497C59.8062 18.8644 59.8993 18.8729 59.9918 18.8814L60.0405 18.8858C60.0438 18.8663 60.0473 18.8467 60.051 18.827C60.0552 18.8042 60.0593 18.7813 60.0631 18.7579C59.9532 18.7478 59.843 18.7376 59.7316 18.7275L59.7278 18.75C59.7206 18.7928 59.7112 18.8484 59.7139 18.8496L59.7155 18.8497ZM55.833 17.8997C55.9736 17.8913 56.0679 17.8852 56.1621 17.8791C56.0414 17.7203 55.941 17.7175 55.833 17.8997Z" fill="black"/>
<path fill-rule="evenodd" clip-rule="evenodd" d="M99.2443 10.6128C99.2938 10.6972 99.3425 10.7778 99.3263 10.8515L99.3232 10.8512C99.3077 10.9295 99.1119 11.0549 99.0128 11.0452C98.8 11.0246 98.5183 10.9476 98.4053 10.8648C98.0989 10.6411 98.4758 10.4456 99.1816 10.4997C99.1994 10.5378 99.2218 10.5756 99.2443 10.6128ZM99.9206 11.1801C100.032 11.2361 100.113 11.2772 100.14 11.3208C100.215 11.4452 100.028 11.4887 99.7558 11.4733C99.5283 11.4602 99.3062 11.4161 99.3472 11.307C99.3642 11.2599 99.4416 11.2202 99.543 11.1683C99.5964 11.1409 99.6567 11.1101 99.7179 11.073C99.7914 11.115 99.8611 11.1498 99.9206 11.1801ZM103.674 13.2003C103.214 13.3534 103.217 13.3776 103.75 13.5882C104.049 13.4768 104.024 13.3475 103.674 13.2003ZM103.431 12.6732C103.432 12.8049 103.212 12.8055 102.923 12.7823L102.92 12.7821C102.909 12.6894 102.899 12.6056 102.886 12.5119L102.882 12.4831C103.273 12.488 103.433 12.5568 103.431 12.6732ZM102.188 11.0977C102.218 11.094 102.248 11.0897 102.276 11.0856C102.294 11.083 102.312 11.0804 102.33 11.078C102.32 10.9957 102.31 10.9131 102.3 10.8318C102.28 10.8267 102.261 10.8219 102.242 10.8171C102.214 10.8101 102.186 10.8032 102.16 10.796C102.133 10.8096 102.101 10.8229 102.067 10.8362C101.992 10.8668 101.915 10.8975 101.92 10.9312C101.925 10.9669 102.006 11.0063 102.086 11.0457C102.122 11.0635 102.159 11.0813 102.188 11.0988V11.0977ZM101.615 9.87668C101.68 9.91154 101.743 9.94617 101.763 9.98289C101.805 10.058 101.797 10.1553 101.534 10.1264C101.467 10.1193 101.404 10.0857 101.322 10.0422C101.277 10.0181 101.226 9.99085 101.165 9.96326L101.322 9.90296C101.399 9.87374 101.462 9.84947 101.526 9.82535C101.552 9.84266 101.584 9.85975 101.615 9.87668ZM99.8711 11.8686C99.8394 11.9282 99.8193 11.9903 99.7999 12.052L99.7898 12.0845C99.8278 12.0895 99.8657 12.0946 99.9036 12.0998H99.9044C99.9485 12.1058 99.9926 12.1119 100.038 12.1177C100.062 12.0445 100.085 11.9709 100.108 11.8966L100.065 11.8909C99.9818 11.88 99.8734 11.8659 99.8711 11.8675V11.8686ZM101.848 9.3623C101.859 9.45901 101.868 9.52394 101.877 9.58888C102.19 9.52897 102.199 9.4611 101.848 9.3623Z" fill="black"/>
<path fill-rule="evenodd" clip-rule="evenodd" d="M67.3774 4.2882C67.3976 4.1342 67.3713 3.97226 67.3438 3.80284C67.3318 3.7284 67.3195 3.6525 67.3107 3.57521C66.7958 3.53581 66.4959 3.97878 66.6967 4.41028C66.7706 4.56973 66.9698 4.70032 67.1241 4.72117C67.1962 4.73121 67.3551 4.45161 67.3753 4.28805L67.3774 4.2882ZM67.9243 5.17597C67.9101 5.08831 67.8546 5.01177 67.7789 4.9072C67.7379 4.85059 67.6909 4.78577 67.6414 4.70652C67.5919 4.7895 67.5441 4.85937 67.5014 4.92153C67.4208 5.03924 67.3591 5.12935 67.3411 5.22861C67.2988 5.45832 67.4574 5.527 67.6236 5.53067C67.8231 5.53462 67.9656 5.42565 67.9243 5.17597ZM70.1997 7.63633C70.1849 7.9089 70.0227 7.93263 69.8118 7.91423L69.8098 7.91408C69.8128 7.72337 69.8141 7.55117 69.8156 7.3587L69.8161 7.29939C70.1038 7.26939 70.2139 7.39541 70.1997 7.63633ZM69.4614 4.5043C69.484 4.49355 69.5059 4.48188 69.5275 4.4704C69.5411 4.46315 69.5546 4.45598 69.5681 4.44914C69.5699 4.27965 69.5718 4.11017 69.5735 3.94294C69.5597 3.93449 69.5459 3.92642 69.5323 3.91842C69.5126 3.90687 69.4931 3.89546 69.4744 3.88334C69.4535 3.91399 69.4276 3.94489 69.4017 3.97584C69.3421 4.04689 69.2823 4.11821 69.2822 4.18753C69.2817 4.2608 69.3367 4.33403 69.3918 4.4074C69.4166 4.44041 69.4414 4.47346 69.4612 4.50655L69.4614 4.5043ZM69.1768 2.03713C69.2204 2.10268 69.2637 2.16774 69.2742 2.24157C69.2968 2.39256 69.2797 2.5948 69.0889 2.56211C69.04 2.55401 68.9975 2.49114 68.9422 2.40942C68.9116 2.36413 68.877 2.31304 68.8353 2.26227C68.8816 2.2093 68.9216 2.16331 68.9578 2.12166C69.0172 2.05343 69.0666 1.99653 69.1166 1.94001C69.1342 1.9732 69.1556 2.00522 69.1768 2.03713ZM67.5907 6.72332L67.5794 6.79163C67.6069 6.79794 67.6344 6.80472 67.662 6.81156C67.694 6.81945 67.7262 6.82741 67.759 6.83477L67.7591 6.83394C67.7846 6.68012 67.8101 6.52628 67.8358 6.37022L67.8041 6.36289C67.7441 6.34894 67.666 6.33082 67.6639 6.33446L67.6638 6.3367C67.6336 6.46325 67.6121 6.59373 67.5907 6.72332ZM69.4066 0.949219C69.4044 1.14807 69.4035 1.28144 69.4026 1.41481C69.6406 1.25887 69.6547 1.11746 69.4066 0.949219Z" fill="black"/>
<path fill-rule="evenodd" clip-rule="evenodd" d="M5.90676 26.5405C5.957 26.6248 6.00501 26.7055 5.98886 26.7791L5.98602 26.7789C5.97082 26.8572 5.77464 26.9827 5.67556 26.9729C5.46319 26.9523 5.1814 26.8752 5.06851 26.7926C4.76202 26.5688 5.13827 26.3733 5.84452 26.4273C5.86219 26.4656 5.88469 26.5034 5.90676 26.5405ZM6.58376 27.1078C6.69502 27.1639 6.77645 27.2049 6.80239 27.2486C6.87749 27.373 6.69111 27.4164 6.41837 27.4009C6.1911 27.388 5.96932 27.3437 6.00995 27.2347C6.02702 27.1876 6.10458 27.1479 6.20589 27.096C6.2594 27.0686 6.31955 27.0379 6.3809 27.0007C6.45454 27.0427 6.52353 27.0774 6.58376 27.1078ZM10.3373 29.128C9.87618 29.2811 9.87982 29.3053 10.413 29.5159C10.7116 29.4045 10.6865 29.2752 10.3373 29.128ZM10.0941 28.6009C10.0944 28.7326 9.87456 28.7333 9.58535 28.71L9.58248 28.7098C9.57219 28.6171 9.56112 28.5333 9.54882 28.4396L9.54503 28.4108C9.9357 28.4157 10.0954 28.4845 10.0941 28.6009ZM8.85129 27.0253C8.8814 27.0216 8.91042 27.0174 8.93905 27.0133C8.95709 27.0107 8.97504 27.0081 8.99284 27.0057C8.9827 26.9233 8.97256 26.8409 8.96235 26.7595C8.94292 26.7545 8.9235 26.7496 8.90431 26.7448C8.87652 26.7378 8.84905 26.731 8.82266 26.7238C8.79635 26.7373 8.7633 26.7506 8.7301 26.7639C8.6541 26.7945 8.57772 26.8252 8.58282 26.859C8.58762 26.8946 8.66826 26.934 8.74898 26.9735C8.78536 26.9912 8.82173 27.009 8.85122 27.0264L8.85129 27.0253ZM8.27775 25.8044C8.34221 25.8393 8.40622 25.8739 8.42618 25.9105C8.46836 25.9857 8.46008 26.083 8.19703 26.0542C8.1297 26.0469 8.06693 26.0134 7.98536 25.9699C7.94009 25.9457 7.88909 25.9185 7.82834 25.891L7.98536 25.8306C8.06121 25.8014 8.12428 25.7772 8.18828 25.753C8.21491 25.7704 8.2464 25.7874 8.27775 25.8044ZM6.53364 27.7963C6.50189 27.8559 6.48232 27.918 6.46288 27.9797L6.45255 28.0122C6.49057 28.0171 6.52856 28.0223 6.56683 28.0275C6.61098 28.0335 6.65559 28.0395 6.70096 28.0453C6.72427 27.9721 6.74767 27.8986 6.77107 27.8243L6.72725 27.8185C6.64424 27.8077 6.53628 27.7936 6.53374 27.7953L6.53364 27.7963ZM8.51023 25.29C8.52199 25.3867 8.53074 25.4517 8.53956 25.5165C8.85292 25.4567 8.86151 25.3888 8.51023 25.29Z" fill="black"/>
</g>
<defs>
<linearGradient id="paint0_linear_30781_48289" x1="27.2183" y1="25.9271" x2="57.6189" y2="-18.084" gradientUnits="userSpaceOnUse">
<stop stop-color="#1D3964"/>
<stop offset="0.5" stop-color="#4F6B96"/>
<stop offset="1" stop-color="#5481C7"/>
</linearGradient>
</defs>
</svg>
