<svg width="16" height="16" viewBox="0 0 16 16" fill="none" xmlns="http://www.w3.org/2000/svg">
<path fill-rule="evenodd" clip-rule="evenodd" d="M3.25452 2.91157C3.27187 2.75191 3.32304 2.59888 3.40394 2.46465C3.48484 2.33042 3.59325 2.21868 3.72054 2.13833C3.84784 2.05798 3.99051 2.01122 4.13722 2.00178C4.28394 1.99234 4.43064 2.02048 4.56567 2.08395C5.24823 2.40318 6.77791 3.16189 8.71892 4.38751C10.6606 5.61382 12.0264 6.68474 12.6196 7.17062C13.1261 7.58619 13.1273 8.4103 12.6202 8.82728C12.0328 9.31035 10.6837 10.3672 8.71892 11.609C6.7522 12.8508 5.24052 13.6003 4.56438 13.9154C3.98208 14.1875 3.33036 13.7747 3.25452 13.0877C3.16582 12.2847 3 10.4614 3 7.99895C3 5.53788 3.16518 3.71528 3.25452 2.91157Z" fill="#39399A"/>
</svg>
