<svg width="32" height="27" viewBox="0 0 32 27" fill="none" xmlns="http://www.w3.org/2000/svg">
<path d="M18.0513 27V19.2984C18.0513 14.1049 19.2274 9.85574 21.5795 6.55082C23.9316 3.18689 27.4051 1.00328 32 0V6.63934C30.0855 7.11147 28.4991 7.99672 27.241 9.29508C26.0376 10.5344 25.2444 12.0098 24.8615 13.7213H30.359V27H18.0513ZM0 27V19.2984C0 14.1049 1.17607 9.85574 3.52821 6.55082C5.88034 3.18689 9.35385 1.00328 13.9487 0V6.63934C12.0342 7.11147 10.4479 7.99672 9.18974 9.29508C7.98632 10.5344 7.19316 12.0098 6.81026 13.7213H12.3077V27H0Z" fill="#8D8DC5"/>
</svg>
