<svg width="123" height="34" viewBox="0 0 123 34" fill="none" xmlns="http://www.w3.org/2000/svg">
<path d="M31.2201 29.4798C30.9037 29.4269 30.3236 29.0565 30.0071 28.739C29.1633 27.9454 29.1106 26.8343 29.9017 25.8819C30.5345 25.0353 30.3236 24.5062 29.5325 25.0353C28.7414 25.5644 26.4737 25.5644 25.8936 24.9824C25.4717 24.612 25.3662 24.6121 24.3114 25.1411C23.0457 25.7761 21.3053 25.8819 20.4088 25.4586C18.4575 24.4004 18.4575 20.8554 20.4088 19.8502C20.7252 19.6914 21.9382 19.4269 23.1512 19.2681L25.2607 18.9507L25.208 17.9454C25.1552 16.6226 24.7333 16.1994 23.6258 16.1994C22.9402 16.1994 22.6765 16.3581 22.3074 16.993C22.0437 17.5221 21.78 17.7867 21.5163 17.6279C21.2526 17.5221 20.6725 17.4692 20.1978 17.4692C19.2486 17.4692 19.2486 17.4692 19.4068 16.6226C19.6177 15.4586 20.567 14.665 22.3074 14.2946C23.8895 13.9242 25.5771 14.1359 26.7374 14.7179C27.8976 15.3528 28.214 16.4639 28.214 20.0618C28.214 22.9718 28.2668 23.2364 28.7414 23.5009C29.1633 23.7126 29.427 23.6068 30.3236 22.6544L31.3783 21.5433L30.5873 20.7496C29.9544 20.0089 29.7962 19.5856 29.7962 18.5274C29.7962 16.7285 30.3763 15.6174 31.642 14.8766C32.8023 14.2417 33.5933 14.1888 37.5487 14.4533C38.8671 14.5592 41.0294 14.5592 42.3479 14.6121H44.8265L44.8793 19.0565C44.9848 23.448 44.9848 23.448 45.5649 23.5539C46.0395 23.6597 46.1977 23.8184 46.0923 24.5062L45.9868 25.3528L43.1389 25.4057L40.2911 25.4586L40.2383 26.4639C40.1329 27.8396 39.1308 28.8978 37.4959 29.321C36.5467 29.6385 32.4331 29.6914 31.2201 29.4798ZM36.7576 27.4163C37.3905 26.9401 37.3377 26.2523 36.6521 26.0935C36.283 25.9877 35.2282 25.9348 34.3317 25.8819C31.9057 25.7232 31.1674 26.2523 32.1694 27.3634C32.5386 27.7337 32.9605 27.8396 34.4371 27.8396C35.5446 27.7866 36.4412 27.6279 36.7576 27.4163ZM40.9767 23.5009C41.5568 23.3951 41.5568 23.2893 41.6095 20.2205L41.715 16.993L40.7657 16.5697C40.2911 16.3052 39.6055 16.1465 39.3418 16.1994C38.8671 16.3052 38.8671 16.411 39.1836 18.3687C39.5527 20.5909 38.0233 21.9666 34.859 22.1782C31.8002 22.4427 32.1167 23.2364 35.2809 23.2364C37.4432 23.2364 39.289 23.7126 39.6055 24.4004C39.9219 24.9824 39.9219 24.9824 40.1329 24.2946C40.2911 23.8713 40.6075 23.5539 40.9767 23.5009ZM24.8388 22.8131C25.1025 22.5486 25.2607 22.1253 25.1025 21.6491C24.997 21.0142 24.8388 20.9084 24.2059 20.9084C22.8875 20.9084 22.0964 21.3316 22.0964 22.1782C22.0964 22.6015 22.2546 23.0777 22.4656 23.2364C22.8875 23.7126 24.2587 23.3951 24.8388 22.8131ZM36.072 19.5327C36.9158 18.739 36.8631 17.6808 35.9665 16.993C35.07 16.3052 34.2789 16.3052 33.3824 16.993C32.5913 17.6279 32.4331 18.8978 33.1187 19.6385C33.7515 20.3263 35.2809 20.2734 36.072 19.5327Z" fill="#241F20"/>
<path d="M103.894 25.5121C101.837 24.5598 100.729 22.6021 100.729 19.7979C100.729 17.0465 101.995 15.0889 104.316 14.401C105.845 13.8719 107.005 14.0307 108.324 14.8243C109.537 15.5122 109.959 16.4116 110.381 18.5809L110.697 20.5386L110.75 18.9513C110.802 17.0995 111.699 15.3534 112.965 14.6656C114.072 14.0836 116.076 14.0836 116.92 14.6656C117.342 14.9301 117.658 15.0889 117.764 15.0889C117.817 15.0889 117.869 14.3481 117.869 13.4487C117.869 11.8614 117.817 11.7555 117.131 11.3323C116.498 10.9619 116.393 10.8032 116.498 10.2741C116.709 9.42751 116.92 9.32169 118.924 9.3746L120.717 9.42751L120.77 16.3058L120.823 23.1841L121.614 23.4486C122.405 23.7132 122.563 24.0836 122.247 24.9301C122.036 25.565 119.082 25.5121 118.397 24.8772C117.975 24.5068 117.817 24.4539 117.447 24.7714C116.445 25.5121 115.127 25.9354 114.23 25.7767C112.437 25.565 111.33 24.2952 110.802 21.9143L110.486 20.5915H107.374C104.263 20.5915 104.263 20.5915 104.263 21.2264C104.263 21.5968 104.527 22.1788 104.843 22.5492C105.37 23.1841 105.476 23.237 106.9 23.1312C107.744 23.0254 108.693 22.8666 109.062 22.8137C109.642 22.655 109.8 22.7079 110.064 23.4486C110.381 24.5068 110.275 24.6656 109.062 25.1947C107.48 25.8825 105.001 26.0412 103.894 25.5121ZM117.078 22.8137C117.606 22.3904 117.658 22.1259 117.658 19.9037C117.658 17.0995 117.447 16.6762 116.024 16.6762C114.494 16.6762 113.914 17.5756 113.914 19.9037C113.914 22.3375 114.389 23.2899 115.602 23.2899C116.076 23.2899 116.762 23.0783 117.078 22.8137ZM107.005 18.528C107.48 18.2635 107.216 17.4169 106.478 16.782C106.056 16.4116 105.845 16.3587 105.212 16.5704C104.368 16.8878 103.788 18.1577 104.368 18.528C104.896 18.8455 106.531 18.8455 107.005 18.528Z" fill="#241F20"/>
<path d="M48.6242 25.3003C46.8839 24.5066 45.8818 22.6548 45.8818 20.168C45.8818 17.4167 46.7784 15.7236 48.677 14.8241C50.681 13.8717 54.9001 14.1892 55.1637 15.3532C55.2692 15.6178 55.2692 16.3056 55.2692 16.9934L55.2165 18.1574H54.0562C52.9487 18.1574 52.896 18.1045 52.7378 17.3638C52.4214 15.6178 50.2064 15.9881 49.4153 17.8929C48.7297 19.586 49.0989 22.1786 50.1536 22.9193C50.7865 23.3426 53.3706 23.4484 53.6343 23.0252C53.7398 22.9193 53.898 22.7606 54.0562 22.7606C54.4254 22.7606 55.1637 24.3479 55.0055 24.7183C54.6891 25.6177 50.2064 25.9881 48.6242 25.3003Z" fill="#241F20"/>
<path d="M0.210952 25.2467C0.0527381 25.1409 0 24.7176 0 24.3472C0 23.7123 0.105476 23.6065 0.738334 23.5536L1.42393 23.4477L1.52941 17.7335L1.58214 11.9663L0.896548 11.8605C0.263691 11.8076 0.105476 11.6488 0.105476 10.9081L0 10.0615L2.74238 10.1673L5.43203 10.2732L7.11965 14.8234C8.06893 17.3631 8.91274 19.4266 8.96548 19.4266C9.17643 19.4266 9.33465 19.0033 11.3387 13.871L12.7626 10.2732L15.4523 10.1673C17.7727 10.1144 18.1419 10.1673 18.3001 10.5377C18.5638 11.1726 18.0364 11.8605 17.2454 11.9134L16.5598 12.0192L16.6125 17.7864L16.718 23.5007L17.4036 23.6065C18.1947 23.7123 18.6166 24.5589 18.1419 25.088C17.6673 25.67 12.0243 25.67 11.5496 25.088C10.9695 24.4001 11.3387 23.7652 12.3935 23.6594L13.3955 23.5536V19.4266C13.3955 17.1515 13.3427 15.3525 13.29 15.4054C13.1318 15.5642 10.8641 20.9081 10.6531 21.7017C10.4421 22.2308 10.2839 22.2837 8.80727 22.2837H7.11965L6.645 21.3313C6.38131 20.8022 5.74845 19.2149 5.27381 17.8922C4.74643 16.4636 4.27179 15.3525 4.16631 15.3525C4.06083 15.3525 4.0081 17.2044 4.06083 19.4266L4.11357 23.4477L5.06286 23.5536C6.11762 23.6594 6.48679 24.1885 6.06488 25.035C5.85393 25.4054 5.32655 25.4583 3.11155 25.4583C1.58214 25.4054 0.263691 25.3525 0.210952 25.2467Z" fill="#241F20"/>
<path d="M87.5978 25.0355C87.1231 24.4005 87.4923 23.6069 88.3361 23.5011L89.0744 23.3953L89.1272 17.681L89.1799 11.9667L88.4943 11.8609C87.6505 11.7551 87.1759 11.1201 87.3868 10.4852C87.545 10.0619 88.0197 10.0619 92.1332 10.1149C96.0886 10.2207 96.7742 10.2736 97.5653 10.7498C99.9385 12.1783 100.097 16.0408 97.829 17.8397C97.1434 18.3688 97.0379 18.5804 97.2488 18.8979C97.4598 19.0566 97.9344 20.1148 98.3563 21.2259C99.2002 23.2894 99.4638 23.6069 100.413 23.6069C100.941 23.6069 100.993 23.7127 100.941 24.5064L100.888 25.3529L99.2002 25.4587C96.9852 25.5646 96.405 25.4058 96.1941 24.6122C96.1413 24.2418 95.6667 23.0249 95.1921 21.8609C94.3482 19.6386 93.7681 19.0566 92.8188 19.3212C92.3442 19.4799 92.2915 19.6916 92.3442 21.1201C92.3969 23.5011 92.5024 23.6598 93.399 23.6598C94.1373 23.6598 94.19 23.7127 94.1373 24.5593L94.0846 25.4058L91.0257 25.5116C88.4943 25.4058 87.8087 25.3529 87.5978 25.0355ZM95.3503 16.517C96.4578 15.8291 96.616 14.0302 95.614 13.0778C95.1393 12.5487 94.7174 12.4429 93.6099 12.4429H92.2915V14.6651C92.2915 16.1995 92.3969 16.9402 92.6079 17.0461C93.0825 17.2577 94.6647 16.9402 95.3503 16.517Z" fill="#241F20"/>
<path d="M82.5892 13.661C84.8042 12.6557 86.2281 11.2271 86.2281 10.0631C86.2281 8.74036 84.646 7.25888 82.5365 6.62396C80.1632 5.88322 73.5182 5.56576 74.0456 6.14777C74.4675 6.67687 75.4168 7.04724 77.1044 7.41761C79.003 7.78798 79.8468 8.15835 79.8468 8.58163C79.8468 9.74565 76.4188 12.2324 73.5182 13.1848C70.143 14.2959 63.2343 14.4546 62.0213 13.4493C62.0213 13.4493 62.0213 13.4493 61.9686 13.3964C61.2303 12.6557 62.0213 11.1742 63.7617 10.2747C64.8164 9.74565 66.6095 7.78798 66.1349 7.68216C65.713 7.57634 61.7049 9.42819 60.07 10.4864C58.5933 11.4388 57.0639 12.8673 56.8002 13.4493C56.3783 13.8726 56.1147 14.4017 56.0619 14.9837C56.0092 15.0366 56.0092 15.0896 55.9564 15.1954C55.3236 16.8885 56.5893 18.5816 58.6988 18.8991C59.068 18.952 59.6481 19.0049 60.1755 18.952C60.2282 19.0049 60.3337 19.0049 60.4392 18.952C60.8083 18.952 61.1248 18.8991 61.3885 18.8991L62.8651 18.7403L63.287 20.2747C64.0781 22.9731 64.4473 25.4599 64.6055 28.6345C64.8164 32.1266 65.0801 32.6557 66.8732 33.1318C67.3479 33.2377 69.0882 33.2906 70.7231 33.2377C75.0476 33.0789 79.0557 31.9149 82.0618 29.9573C84.0659 28.6345 84.3295 28.0525 83.1693 25.0895C83.1166 24.8779 83.0638 24.7192 82.9584 24.5604C82.9056 24.4017 82.8001 24.243 82.7474 24.0842C82.6947 23.9255 82.5892 23.7668 82.4837 23.6081C82.4837 23.3964 82.431 23.079 82.22 22.5499C81.9563 21.9149 81.5872 20.3276 81.2707 19.1107C81.1653 18.6874 81.0598 18.3171 81.007 17.9996C81.0598 17.6292 80.9543 16.8885 80.6379 15.407C80.6906 14.6134 80.7961 14.5075 82.5892 13.661ZM63.7617 18.7403C64.1309 18.37 67.7698 17.4176 74.0984 16.0948C76.788 15.5128 79.2667 14.9837 79.5831 14.9308C80.0578 14.825 80.1632 14.8779 80.1632 15.407C80.1632 16.2007 79.3722 16.9414 78.001 17.6292C77.9482 17.6821 77.8428 17.6821 77.79 17.7351C76.8407 18.1054 75.575 18.5816 74.1511 19.0049C72.569 19.534 71.6724 19.7456 70.6176 19.9044C70.5122 19.9044 70.354 19.9044 70.1957 19.9044C69.5629 19.9044 69.0882 19.9573 68.7191 20.0631C68.3499 20.0631 67.928 20.0631 67.4533 20.116C66.8205 20.116 66.3459 20.116 65.9239 20.1689C65.6075 20.0631 65.1856 19.9573 64.6582 19.9573C63.9726 19.8514 63.3398 19.1636 63.7617 18.7403Z" fill="#C60600"/>
<path d="M42.0847 11.6504C41.7155 12.0737 41.7155 12.2854 41.9792 12.7086C42.4011 13.5023 43.6668 13.3436 43.7723 12.4441C43.825 11.4917 42.7175 10.9626 42.0847 11.6504Z" fill="#C60600"/>
<path d="M67.5058 8.8451L66.7147 10.1149C66.2928 10.8557 66.0291 11.4377 66.1346 11.5435C66.2401 11.5964 66.8729 11.5435 67.6113 11.4377C69.1407 11.1731 69.4571 11.279 70.3009 12.3901C70.6701 12.9192 71.092 13.2895 71.2502 13.2895C71.4084 13.2895 71.5666 12.7075 71.6721 11.9668C71.883 10.4853 72.1467 10.2208 73.5179 9.74457C74.0453 9.58584 74.5199 9.26838 74.5199 9.10965C74.5199 8.95092 73.9926 8.58055 73.3597 8.26309C72.1995 7.68108 72.1995 7.62817 71.9358 6.14669C71.8303 5.30013 71.6194 4.6123 71.5139 4.6123C71.4084 4.6123 70.9865 5.03558 70.4591 5.56468C69.5098 6.56997 68.7715 6.7287 67.2948 6.1996C66.8202 6.04087 66.3455 5.98796 66.2401 6.09378C66.1346 6.1996 66.3983 6.88743 66.7674 7.57526L67.5058 8.8451Z" fill="#C60600"/>
<path d="M47.4642 5.93518C47.4642 5.35317 47.3587 5.30026 46.884 5.40608C46.5676 5.45899 46.093 5.45899 45.8293 5.30026C45.4074 5.08862 45.3546 5.14153 45.3546 5.72353C45.3546 6.0939 45.2492 6.35845 45.0909 6.35845C44.669 6.35845 44.8272 6.88755 45.4601 7.41665C46.093 7.94575 46.3039 8.05157 46.5676 7.6812C46.6731 7.57538 46.9895 7.41665 47.3059 7.41665C47.6751 7.41665 47.7806 7.31083 47.6751 6.99337C47.5696 6.78173 47.4642 6.25264 47.4642 5.93518Z" fill="#C60600"/>
<path d="M60.649 4.24238C61.5983 4.24238 61.8093 4.3482 62.3894 5.30058L63.1277 6.35878L63.6551 5.24767C64.077 4.40111 64.3934 4.08365 64.8681 4.03074C65.6591 3.92492 66.0283 3.87201 66.0283 3.66037C66.2393 3.55455 66.2393 3.50164 65.8701 3.34291C65.7646 3.18418 65.5537 3.02545 65.3427 2.81381C64.4462 2.02016 64.3934 1.86143 64.6044 0.961965C64.8681 -0.149144 64.4989 -0.307873 63.2859 0.538686C62.6003 1.06779 62.4948 1.06779 61.7038 0.644506C60.5435 0.0624967 60.3326 0.115407 60.5963 0.909056C61.0182 2.07308 60.9127 2.7609 60.1744 3.23709C59.3306 3.92492 59.436 4.24238 60.649 4.24238Z" fill="#C60600"/>
<path d="M54.6905 2.49638C55.007 1.70273 54.8488 1.49109 53.9522 1.91437C53.3721 2.17892 53.1611 2.17892 52.792 1.80855C52.1064 1.17363 51.9482 1.27945 51.9482 2.12601C51.9482 2.6022 51.7372 3.02548 51.368 3.23712C50.7352 3.6604 50.8934 4.24241 51.6845 4.24241C51.9482 4.24241 52.2646 4.55987 52.4755 5.08897L52.792 5.98844L53.4248 5.19479C53.8467 4.61278 54.1632 4.45405 54.5851 4.55987C55.3761 4.77151 55.5344 4.45405 54.9015 3.71331C54.4796 3.18421 54.4268 2.91966 54.6905 2.49638Z" fill="#C60600"/>
</svg>
