<svg width="27" height="27" viewBox="0 0 27 27" fill="none" xmlns="http://www.w3.org/2000/svg">
<path d="M13.3333 0C5.96933 0 0 5.96933 0 13.3333C0 20.6973 5.96933 26.6667 13.3333 26.6667C20.6973 26.6667 26.6667 20.6973 26.6667 13.3333C26.6667 5.96933 20.6973 0 13.3333 0ZM8.32533 3.164L12.336 5.564V8.488L8.61467 11.192L5.88933 10.2493L5.10667 5.53733C6.0304 4.56169 7.12025 3.75807 8.32533 3.164ZM2.16133 15.252L5.264 12.1493L7.984 13.0893L9.42667 17.5333L8.13333 19.6333L3.74267 19.3747C2.95036 18.1174 2.41305 16.7166 2.16133 15.252ZM11.3733 24.4973L9.79467 20.752L11.0787 18.6627H15.5747L16.7907 20.7707L15.404 24.4773C14.0722 24.7219 12.7075 24.7287 11.3733 24.4973ZM22.5227 19.968L18.4907 19.7147L17.24 17.5493L18.6893 13.0893L21.3733 12.1613L24.456 15.5213C24.1399 17.1257 23.4804 18.6426 22.5227 19.968ZM21.5627 5.54133L20.7773 10.252L18.0573 11.192L14.336 8.488V5.56267L18.3387 3.16267C19.5461 3.7578 20.6378 4.56327 21.5627 5.54133Z" fill="#5A5AAB"/>
</svg>
