<svg width="31" height="30" viewBox="0 0 31 30" fill="none" xmlns="http://www.w3.org/2000/svg">
<path fill-rule="evenodd" clip-rule="evenodd" d="M7.10534 11.1133C8.71067 11.004 10.174 12.064 10.418 13.7667C10.5547 14.7207 10.6667 16.086 10.6667 18C10.6667 19.9147 10.5547 21.28 10.418 22.234C10.1627 24.0167 8.57001 25.0947 6.87801 24.8633C5.3 24.6473 3.74534 24.218 2.74 23.9047C1.60534 23.5513 0.655338 22.6467 0.372004 21.3907C0.12391 20.2775 -0.000842451 19.1404 4.28132e-06 18C4.28132e-06 16.608 0.186671 15.4347 0.372004 14.61C0.620671 13.5067 1.38334 12.6753 2.33334 12.2493C2.38134 5.46 8.2 0 15.3333 0C22.4667 0 28.2853 5.46 28.3333 12.2493C29.2833 12.6753 30.046 13.5067 30.2947 14.6093C30.4807 15.4347 30.6667 16.608 30.6667 18C30.6667 19.392 30.48 20.5653 30.2947 21.3907C30.026 22.5827 29.1573 23.4573 28.1 23.846C27.3947 26.1587 25.9933 27.7573 23.82 28.7273C21.6667 29.6873 18.8253 29.9987 15.3333 29.9987C14.9797 29.9987 14.6406 29.8582 14.3905 29.6081C14.1405 29.3581 14 29.019 14 28.6653C14 28.3117 14.1405 27.9726 14.3905 27.7225C14.6406 27.4725 14.9797 27.332 15.3333 27.332C18.7533 27.332 21.1193 27.012 22.7333 26.292C23.6 25.9053 24.2667 25.3967 24.7667 24.704C24.444 24.7644 24.1182 24.8178 23.7893 24.864C22.0967 25.0947 20.504 24.0167 20.2493 22.234C20.112 21.28 20 19.914 20 18.0007C20 16.086 20.112 14.7207 20.2487 13.766C20.4927 12.064 21.956 11.004 23.562 11.1133C22.9267 7.476 19.5047 4.66667 15.3333 4.66667C11.162 4.66667 7.73934 7.476 7.10534 11.1133ZM7.23867 13.7787C7.422 13.754 7.54667 13.8013 7.62 13.8547C7.68934 13.9047 7.756 13.99 7.778 14.144C7.89334 14.9507 8 16.1873 8 18C8 19.8133 7.89334 21.0493 7.778 21.856C7.756 22.01 7.68867 22.096 7.62 22.146C7.54667 22.1993 7.422 22.246 7.23867 22.2213C5.87067 22.0347 4.47534 21.652 3.53334 21.3587C3.21134 21.2587 3.026 21.0367 2.97334 20.8047C2.76861 19.8838 2.66577 18.9433 2.66667 18C2.66667 16.8427 2.822 15.8687 2.97334 15.196C3.026 14.964 3.21134 14.742 3.53334 14.6413C4.47534 14.348 5.87067 13.966 7.23867 13.7787ZM23.0467 13.8547C22.978 13.9047 22.9107 13.99 22.8887 14.144C22.7733 14.9507 22.6667 16.1873 22.6667 18C22.6667 19.8133 22.7733 21.0493 22.8887 21.856C22.9107 22.01 22.978 22.096 23.0467 22.146C23.12 22.1993 23.2447 22.246 23.428 22.2213C24.796 22.0347 26.1913 21.652 27.1333 21.3587C27.4553 21.2587 27.6407 21.0367 27.6933 20.8047C27.8447 20.1313 28 19.158 28 18C28.0009 17.0569 27.898 16.1166 27.6933 15.196C27.6407 14.964 27.4553 14.742 27.1333 14.6413C26.1913 14.348 24.796 13.966 23.428 13.7787C23.2447 13.754 23.12 13.8013 23.0467 13.8547Z" fill="#5A5AAB"/>
</svg>
