<svg width="27" height="27" viewBox="0 0 27 27" fill="none" xmlns="http://www.w3.org/2000/svg">
<path fill-rule="evenodd" clip-rule="evenodd" d="M8.942 26.3573L11.6087 23.6907C12.1287 23.1707 12.1287 22.3253 11.6087 21.8053C11.0887 21.2853 10.2433 21.2853 9.72333 21.8053L7.05667 24.472C6.53667 24.992 6.53667 25.8373 7.05667 26.3573C7.57667 26.8773 8.422 26.8773 8.942 26.3573ZM3.60867 25.024L7.60867 21.024C8.12867 20.504 8.12867 19.6587 7.60867 19.1387C7.08867 18.6187 6.24333 18.6187 5.72333 19.1387L1.72333 23.1387C1.20333 23.6587 1.20333 24.504 1.72333 25.024C2.24333 25.544 3.08867 25.544 3.60867 25.024ZM20.2273 13.9293L24.2434 9.91334C25.7447 8.41067 26.5873 6.37467 26.586 4.25067C26.586 2.80534 26.5847 1.33201 26.5847 1.33201C26.5847 0.977344 26.4434 0.637343 26.1914 0.38801C25.9407 0.137343 25.5993 -0.00132381 25.2447 9.5268e-06C25.2447 9.5268e-06 23.7754 0.00666887 22.3354 0.0133355C20.226 0.0226689 18.206 0.86534 16.7153 2.35601L12.638 6.43334L10.89 5.85068C8.494 5.05201 5.85266 5.67468 4.06733 7.46134L3.57001 7.95867C3.04868 8.47867 3.04868 9.324 3.57001 9.844L16.7687 23.044C17.0193 23.2933 17.358 23.4347 17.7113 23.4347C17.7113 23.4347 18.1807 23.5173 18.6607 23.0373L19.182 22.516C20.9487 20.7507 21.5793 18.144 20.8167 15.7667L20.2273 13.9293ZM2.27534 19.6907L4.942 17.024C5.462 16.504 5.462 15.6587 4.942 15.1387C4.422 14.6187 3.57667 14.6187 3.05667 15.1387L0.39 17.8053C-0.13 18.3253 -0.13 19.1707 0.39 19.6907C0.91 20.2107 1.75534 20.2107 2.27534 19.6907Z" fill="#5A5AAB"/>
</svg>
