<svg width="20" height="18" viewBox="0 0 20 18" fill="none" xmlns="http://www.w3.org/2000/svg">
<path d="M17.3638 0.253906H2.63622C2.00356 0.254613 1.39702 0.506252 0.949672 0.953611C0.502321 1.40097 0.250695 2.00752 0.25 2.64017V11.4069C0.250707 12.0395 0.502339 12.6461 0.949688 13.0934C1.39704 13.5408 2.00357 13.7924 2.63622 13.7931H6.83116V17.3728C6.83116 17.447 6.85316 17.5195 6.89437 17.5812C6.93558 17.6428 6.99415 17.6909 7.06267 17.7193C7.13119 17.7477 7.20659 17.7551 7.27933 17.7406C7.35207 17.7261 7.41889 17.6904 7.47133 17.638L11.3162 13.7931H17.3638C17.9964 13.7924 18.603 13.5408 19.0503 13.0934C19.4977 12.6461 19.7493 12.0395 19.75 11.4069V2.64017C19.7493 2.00752 19.4977 1.40097 19.0503 0.953611C18.603 0.506252 17.9964 0.254613 17.3638 0.253906ZM12.4512 10.5414L10 9.25273L7.54877 10.5414L8.01691 7.81198L6.03386 5.87891L8.77436 5.48066L10 2.99741L11.2256 5.48066L13.9661 5.87891L11.9831 7.81198L12.4512 10.5414Z" fill="#FD855D"/>
</svg>
