<svg width="27" height="26" viewBox="0 0 27 26" fill="none" xmlns="http://www.w3.org/2000/svg">
<path d="M5.33333 21.3333L1.13333 25.5333C0.911111 25.7556 0.666667 25.8111 0.4 25.7C0.133333 25.5889 0 25.3778 0 25.0667V2.66667C0 1.93333 0.261333 1.30578 0.784 0.784C1.30667 0.262222 1.93422 0.000888889 2.66667 0H24C24.7333 0 25.3613 0.261333 25.884 0.784C26.4067 1.30667 26.6676 1.93422 26.6667 2.66667V18.6667C26.6667 19.4 26.4058 20.028 25.884 20.5507C25.3622 21.0733 24.7342 21.3342 24 21.3333H5.33333ZM13.3333 13.9667L15.8667 15.5C16.1111 15.6556 16.3556 15.6502 16.6 15.484C16.8444 15.3178 16.9333 15.0898 16.8667 14.8L16.2 11.9L18.4667 9.93333C18.6889 9.73333 18.7556 9.49467 18.6667 9.21733C18.5778 8.94 18.3778 8.78978 18.0667 8.76667L15.1 8.53333L13.9333 5.8C13.8222 5.53333 13.6222 5.4 13.3333 5.4C13.0444 5.4 12.8444 5.53333 12.7333 5.8L11.5667 8.53333L8.6 8.76667C8.28889 8.78889 8.08889 8.93911 8 9.21733C7.91111 9.49556 7.97778 9.73422 8.2 9.93333L10.4667 11.9L9.8 14.8C9.73333 15.0889 9.82222 15.3169 10.0667 15.484C10.3111 15.6511 10.5556 15.6564 10.8 15.5L13.3333 13.9667Z" fill="#5A5AAB"/>
</svg>
