<svg width="127" height="29" viewBox="0 0 127 29" fill="none" xmlns="http://www.w3.org/2000/svg">
<path d="M34.1656 27.9681C33.6449 27.7481 33.3646 27.4482 33.3646 27.0483C33.3646 26.6684 33.9653 26.7284 34.4059 27.1283C34.6863 27.3682 34.8865 27.4082 35.1068 27.2682C35.6074 26.9483 35.4673 26.7084 34.5661 26.3685C33.3646 25.9286 33.0041 25.1688 33.685 24.5089C34.3458 23.8291 35.9679 23.969 36.2483 24.7089C36.4085 25.1288 35.8277 25.2887 35.247 24.9888C34.8865 24.7888 34.7063 24.7689 34.5461 24.9288C34.2257 25.2487 34.466 25.5087 35.1869 25.6686C35.5474 25.7286 35.9479 25.8886 36.1081 26.0085C36.4285 26.2885 36.4485 27.2082 36.1281 27.6481C35.8077 28.068 34.8064 28.248 34.1656 27.9681Z" fill="black"/>
<path d="M0.562598 26.6484C-0.158322 24.229 -0.158322 24.189 0.402393 24.189C0.82293 24.189 0.903032 24.309 1.02319 25.0488C1.26349 26.4285 1.44372 26.5084 1.70405 25.2887C1.92434 24.329 2.02446 24.169 2.38492 24.229C2.78543 24.289 2.90559 24.5289 3.226 25.8886L3.3862 26.4884L3.52638 25.8886C3.60648 25.5687 3.74666 25.0488 3.80674 24.7489C3.88684 24.369 4.06707 24.189 4.3274 24.189C4.82804 24.189 4.82804 24.229 4.30738 26.2885C3.92689 27.7881 3.82676 27.9881 3.42625 27.9881C3.06579 27.9881 2.94564 27.8081 2.74538 26.8683C2.46502 25.6087 2.30482 25.6287 2.02446 26.9483C1.86426 27.6682 1.72408 27.9081 1.40367 27.9481C1.02319 28.0081 0.923058 27.8281 0.562598 26.6484Z" fill="black"/>
<path d="M5.16945 26.1485L5.22953 24.289L6.59126 24.229C7.83285 24.169 7.93298 24.209 7.93298 24.5889C7.93298 24.9288 7.81282 24.9888 7.03183 24.9888C6.37098 24.9888 6.13068 25.0688 6.13068 25.2888C6.13068 25.5087 6.35096 25.5887 6.9317 25.5887C7.59254 25.5887 7.73272 25.6487 7.73272 25.9886C7.73272 26.3285 7.59254 26.3885 6.9317 26.3885C6.27086 26.3885 6.13068 26.4485 6.13068 26.7684C6.13068 27.1083 6.29088 27.1683 7.07188 27.2283C7.7928 27.2683 8.05313 27.3682 8.09318 27.6482C8.15326 27.9481 7.97303 27.9881 6.63132 27.9881H5.10938L5.16945 26.1485Z" fill="black"/>
<path d="M9.93359 26.0885V24.189H10.4943C11.015 24.189 11.0951 24.289 11.4155 25.2887C11.5957 25.8886 11.836 26.3885 11.9361 26.3885C12.0363 26.3885 12.2766 25.8886 12.4568 25.2887C12.7772 24.289 12.8573 24.189 13.378 24.189H13.9387V26.0885C13.9387 27.8281 13.8987 27.9881 13.5582 27.9881C13.2178 27.9881 13.1577 27.8281 13.0976 26.9483L13.0376 25.8886L12.6771 26.9483C12.3567 27.8081 12.2165 28.0081 11.8961 27.9481C11.5957 27.9081 11.3955 27.5882 11.1351 26.7884L10.7747 25.6886L10.7546 26.8484C10.7346 27.8481 10.6946 27.9881 10.3341 27.9881C9.95362 27.9881 9.93359 27.8481 9.93359 26.0885Z" fill="black"/>
<path d="M14.4003 27.7481C14.4404 27.6082 14.7407 26.7484 15.0611 25.8486C15.6018 24.249 15.6619 24.189 16.2427 24.189C16.8234 24.189 16.8835 24.249 17.4242 25.8486C17.7446 26.7484 18.045 27.6082 18.085 27.7481C18.1451 27.9081 18.0049 27.9881 17.6444 27.9881C17.284 27.9881 17.0637 27.8681 17.0036 27.5882C16.9235 27.2882 16.7233 27.1883 16.2427 27.1883C15.742 27.1883 15.5418 27.2882 15.4416 27.5882C15.3615 27.8481 15.1413 27.9881 14.8008 27.9881C14.4804 27.9881 14.3402 27.8881 14.4003 27.7481ZM16.6031 26.2685C16.7633 26.0885 16.3228 25.1888 16.1225 25.3087C15.8421 25.4687 15.9222 26.3885 16.2026 26.3885C16.3628 26.3885 16.523 26.3285 16.6031 26.2685Z" fill="black"/>
<path d="M18.5449 26.0885C18.5449 24.329 18.5649 24.189 18.9454 24.189C19.2658 24.189 19.3459 24.329 19.3459 24.7889C19.3459 25.1288 19.426 25.3887 19.5462 25.3887C19.6463 25.3887 19.9267 25.1288 20.187 24.7889C20.5074 24.349 20.7878 24.189 21.2283 24.189H21.8291L21.1883 24.8488C20.8278 25.2088 20.5475 25.5687 20.5475 25.6686C20.5475 25.7486 20.8078 26.1885 21.1082 26.6484C22.0294 28.0081 22.0294 27.9881 21.3885 27.9881C20.928 27.9881 20.7477 27.8681 20.5475 27.3882C20.207 26.5684 19.7665 26.2285 19.5262 26.6084C19.426 26.7684 19.3459 27.1283 19.3459 27.4482C19.3459 27.8481 19.2458 27.9881 18.9454 27.9881C18.5649 27.9881 18.5449 27.8481 18.5449 26.0885Z" fill="black"/>
<path d="M22.3496 26.0885V24.189H23.5511C24.212 24.189 24.8128 24.189 24.9129 24.189C24.993 24.189 25.0531 24.349 25.0531 24.5489C25.0531 24.8089 24.8328 24.9088 24.1719 24.9888C22.9304 25.1288 22.8302 25.5887 24.0318 25.5887C24.8128 25.5887 24.9529 25.6486 24.9529 25.9686C24.9529 26.2885 24.7927 26.3685 24.1119 26.4285C23.5111 26.4684 23.2508 26.5884 23.2508 26.7884C23.2508 27.0083 23.5111 27.1083 24.212 27.1483C24.993 27.2083 25.1532 27.2683 25.1532 27.6082C25.1532 27.9481 25.013 27.9881 23.7514 27.9881H22.3496V26.0885Z" fill="black"/>
<path d="M27.0964 27.8481C26.8962 27.6682 26.9362 24.549 27.1165 24.229C27.2166 24.0891 27.4369 24.0291 27.6171 24.1091C27.8975 24.209 27.9575 24.549 27.9575 26.1086C27.9575 27.7882 27.9175 27.9881 27.5971 27.9881C27.3968 27.9881 27.1565 27.9281 27.0964 27.8481Z" fill="black"/>
<path d="M29.559 26.5084V24.9888H28.9783C28.5778 24.9888 28.3775 24.8688 28.2974 24.5889C28.1973 24.209 28.2974 24.189 29.7793 24.189C30.6404 24.189 31.4214 24.189 31.5215 24.189C31.6017 24.189 31.6617 24.349 31.6617 24.5289C31.6617 24.7689 31.4615 24.9288 31.061 24.9888C30.4602 25.0888 30.4602 25.0888 30.4602 26.4884C30.4602 27.7881 30.4201 27.8881 30.0196 27.9481C29.5791 28.0081 29.559 27.9481 29.559 26.5084Z" fill="black"/>
<path d="M36.809 26.1885C36.7889 24.6289 36.829 24.369 37.1494 24.209C37.3497 24.089 37.5699 24.0691 37.65 24.129C37.7101 24.189 37.7702 25.0888 37.7702 26.1285C37.7702 27.9281 37.7502 27.9881 37.3096 27.9881C36.8891 27.9881 36.869 27.9081 36.809 26.1885Z" fill="black"/>
<path d="M38.3711 26.0885V24.189H38.9719C39.5125 24.189 39.5927 24.269 39.873 25.2887C40.0532 25.8886 40.2735 26.4285 40.3736 26.4884C40.4537 26.5484 40.6941 26.0486 40.8943 25.3887C41.2147 24.289 41.2948 24.189 41.8155 24.189H42.3762V26.0885C42.3762 27.8481 42.3562 27.9881 41.9757 27.9881C41.6353 27.9881 41.5752 27.8481 41.5552 26.9483L41.5351 25.8886L41.1947 26.8883C40.9344 27.6082 40.7141 27.9081 40.4337 27.9481C40.0933 28.0081 39.9531 27.8081 39.6527 26.8484L39.2722 25.6886L39.2122 26.8484C39.1521 27.8281 39.092 27.9881 38.7716 27.9881C38.4111 27.9881 38.3711 27.8481 38.3711 26.0885Z" fill="black"/>
<path d="M43.0171 26.0486L43.0772 24.109L44.1786 24.169C45.7005 24.249 45.9809 24.449 45.9809 25.3687C45.9809 26.2685 45.7005 26.5684 44.6993 26.7284C44.0584 26.8284 43.9783 26.9083 43.9783 27.4082C43.9783 27.8881 43.8982 27.9881 43.4777 27.9881H42.957L43.0171 26.0486ZM44.9796 25.6886C45.3 25.3087 45.0597 24.9888 44.4589 24.9888C44.0785 24.9888 43.9783 25.0888 43.9783 25.4887C43.9783 26.0686 44.5591 26.1885 44.9796 25.6886Z" fill="black"/>
<path d="M46.3809 26.1085C46.3809 24.4289 46.4209 24.229 46.7613 24.129C46.9816 24.069 47.2019 24.089 47.262 24.149C47.3221 24.209 47.3821 24.9088 47.3821 25.7286V27.1882H48.2833C48.864 27.1882 49.1844 27.2682 49.1844 27.4482C49.1844 27.6081 49.2645 27.5881 49.3847 27.3882C49.5048 27.2282 49.5849 26.5084 49.5649 25.7886C49.5649 25.0688 49.5649 24.4089 49.5649 24.289C49.5849 24.169 50.1657 24.109 50.9267 24.109C52.1082 24.149 52.2884 24.189 52.2884 24.5089C52.2884 24.8088 52.1082 24.9088 51.3472 24.9488C50.0856 25.0288 50.0055 25.5286 51.2471 25.6286C51.8278 25.6686 52.0881 25.7886 52.0881 25.9885C52.0881 26.1885 51.8278 26.3085 51.2471 26.3484C50.5462 26.4084 50.386 26.4884 50.386 26.8083C50.386 27.1283 50.5261 27.1882 51.3872 27.1882C52.2483 27.1882 52.3885 27.2482 52.3885 27.5881C52.3885 27.968 52.2483 27.988 49.3847 27.988H46.3809V26.1085Z" fill="black"/>
<path d="M85.9508 21.2098C85.8707 21.1098 85.9908 20.9898 86.1711 20.9498C86.3713 20.9098 85.0496 20.8698 83.2273 20.8898C80.5639 20.8898 79.7228 20.8099 78.8818 20.5299C77.48 20.03 76.3585 18.8104 76.0181 17.3907C75.7177 16.171 75.8579 13.4917 76.3185 11.0523C77.2597 6.29344 77.52 5.17372 78.0207 4.07399C78.9819 1.95452 80.8042 0.574858 83.1672 0.194952C84.7092 -0.0649839 89.2951 -0.0649839 90.6568 0.194952C93.5405 0.734818 94.762 3.09423 94.2614 7.09325C93.4003 13.9516 92.5792 16.9108 91.0573 18.6304C90.4165 19.3702 88.8144 20.39 88.3138 20.39C88.1736 20.39 88.0134 20.4699 87.9333 20.5699C87.8732 20.6899 88.0134 20.7299 88.2337 20.6899C88.5541 20.6299 88.6342 20.6899 88.5942 20.9498C88.5341 21.2098 88.2737 21.3097 87.2925 21.3497C86.6116 21.3897 86.0109 21.3297 85.9508 21.2098ZM87.5929 16.291C87.9333 16.011 88.3539 15.3512 88.5341 14.8313C88.9146 13.7116 89.5153 10.5124 89.8558 7.6731C90.2763 4.29394 89.9559 3.99401 85.9308 3.99401C83.2273 3.99401 82.5264 4.27394 81.8856 5.59362C81.2047 6.99327 80.0633 14.1715 80.3036 15.5112C80.5239 16.6509 80.9444 16.7908 84.1485 16.7908C86.912 16.7908 87.0121 16.7709 87.5929 16.291Z" fill="black"/>
<path d="M0.843698 20.6099C0.723545 20.43 1.04395 18.1705 1.52457 15.6911C1.62469 15.1513 1.76487 14.2515 1.84497 13.6916C1.90505 13.1518 2.14536 11.6521 2.36564 10.3924C2.56589 9.13276 2.84625 7.51316 2.94638 6.79334C3.48707 3.19423 3.96768 0.474899 4.10786 0.334933C4.18796 0.254953 7.01156 0.194968 10.3558 0.234958C17.2646 0.294943 17.5049 0.354928 18.326 1.81457C18.7065 2.4944 18.7866 2.91429 18.7666 4.31395C18.7465 7.07327 18.0657 8.83283 16.6839 9.59264L15.8829 10.0525L16.5037 10.3125C17.525 10.7324 17.8053 11.5722 17.6852 13.7716C17.4849 17.4707 16.2233 19.6102 13.7602 20.43C12.839 20.7299 1.02393 20.9098 0.843698 20.6099ZM12.6988 16.5309C13.1794 16.111 13.5399 14.7714 13.5399 13.5117C13.5399 12.092 13.2595 11.9921 9.53478 11.9921H6.43082L6.07036 14.1515C5.5497 17.3907 5.18924 17.0508 9.01412 16.9708C11.8377 16.8908 12.3584 16.8309 12.6988 16.5309ZM12.6187 8.39294C13.7802 8.13301 14.1407 7.65312 14.401 6.01353C14.7214 3.91405 14.7014 3.91405 10.8364 3.81407L7.75251 3.75409L7.63236 4.41392C7.15174 7.27322 6.99154 8.31296 7.07164 8.45293C7.19179 8.65288 11.6775 8.61289 12.6187 8.39294Z" fill="black"/>
<path d="M20.0471 20.5899C19.987 20.4899 20.0671 19.6102 20.2473 18.6504C20.6478 16.371 21.0483 13.9116 21.549 10.6924C21.7693 9.27272 22.0496 7.59313 22.1497 6.99328C22.2499 6.39343 22.4301 5.27371 22.5503 4.4939C22.6704 3.73409 22.8707 2.4744 23.0108 1.69459L23.2512 0.294937L30.0398 0.234952L36.8285 0.194962L36.6683 1.2347C36.5882 1.81456 36.448 2.69434 36.3879 3.19422L36.2678 4.094L31.6218 4.15398C27.4165 4.19397 26.9759 4.23396 26.8758 4.55388C26.6755 5.21372 26.3551 7.27321 26.3551 7.83307V8.39293H30.6806H35.0262L34.906 9.25272C34.8259 9.71261 34.7258 10.5124 34.6457 11.0323L34.5055 11.992L30.0999 12.032L25.6943 12.092L25.454 13.2917C25.3138 13.9516 25.1336 15.0113 25.0735 15.6511L24.9133 16.8109L29.4991 16.7909C32.0023 16.7709 34.105 16.7709 34.1651 16.7709C34.2252 16.7909 34.125 17.6706 33.9648 18.7504L33.6444 20.6899L26.8958 20.7499C22.6704 20.7699 20.1272 20.7299 20.0471 20.5899Z" fill="black"/>
<path d="M41.2538 19.8501C41.3139 19.3102 41.5141 18.0905 41.6743 17.0908C41.8546 16.111 42.1149 14.4114 42.2751 13.3317C42.4353 12.252 42.7157 10.5924 42.8959 9.63263C43.0561 8.67286 43.3164 7.11325 43.4566 6.15349L43.6969 4.39392H41.0135H38.3301L38.4502 3.55413C38.5303 3.07425 38.6905 2.13448 38.7907 1.45465L39.0109 0.194962H46.6006H54.1903V0.654848C54.1903 0.894788 54.0501 1.79457 53.8899 2.65435C53.7297 3.51414 53.5895 4.27395 53.5895 4.31394C53.5895 4.35393 52.348 4.39392 50.806 4.39392H48.0425L47.9223 5.15374C47.5418 7.53315 47.1613 9.91256 46.901 11.4922C46.7408 12.4919 46.3803 14.7714 46.08 16.5909C45.7996 18.4105 45.5192 20.09 45.4592 20.35C45.3791 20.7699 45.2789 20.7899 43.2363 20.7899H41.1136L41.2538 19.8501Z" fill="black"/>
<path d="M53.5096 20.6099C53.4495 20.51 53.6298 19.0903 53.9101 17.4707C54.1704 15.8311 54.571 13.3717 54.7912 11.9921C55.0115 10.6124 55.3319 8.6329 55.4921 7.59315C55.6724 6.55341 55.9327 4.83384 56.1129 3.79409C56.2731 2.75435 56.4734 1.53465 56.5535 1.09476L56.6937 0.294958L59.7976 0.234973L62.9016 0.194983L65.3848 7.69313C66.9467 12.412 67.928 15.1113 68.0281 14.9313C68.1283 14.7914 68.3285 13.7716 68.4887 12.6719C68.7891 10.8124 68.9293 9.8526 69.7303 4.9938C69.8905 3.95405 70.1308 2.47442 70.271 1.69461L70.5113 0.294958L72.6941 0.234973L74.8568 0.174988L74.7567 0.634874C74.6766 0.89481 74.5364 1.77459 74.4163 2.59439C74.2961 3.41419 74.1159 4.49392 74.0158 4.9938C73.9156 5.49367 73.5151 7.97306 73.1146 10.4924C72.7141 13.0318 72.2135 16.211 71.9732 17.5907C71.7529 18.9703 71.5526 20.23 71.5126 20.39C71.4925 20.6299 70.9519 20.6899 68.4687 20.7499C66.2058 20.7899 65.4048 20.7299 65.2646 20.55C65.1444 20.41 63.983 17.0308 62.6813 13.0518C61.3796 9.07279 60.2382 5.7936 60.1781 5.7936C60.058 5.7936 59.6975 7.85309 58.9966 12.292C58.7763 13.7316 58.516 15.3512 58.4159 15.8911C58.2957 16.451 58.1555 17.2908 58.0955 17.7906C58.0354 18.2905 57.8752 19.1703 57.775 19.7501L57.5748 20.7899H55.5923C54.5109 20.7899 53.5697 20.7099 53.5096 20.6099Z" fill="black"/>
<path d="M97.6473 19.4302C97.6473 19.3103 97.7875 19.1303 97.9677 19.0303C98.2681 18.8704 98.2681 18.6304 98.0879 16.8709C97.8075 14.4914 97.5472 11.4322 97.1467 6.09352C96.9664 3.89407 96.7862 1.67462 96.7261 1.15475L96.5859 0.194983H98.8088H101.012L101.152 2.5344C101.212 3.83408 101.352 5.75361 101.452 6.79335C101.552 7.83309 101.692 10.0925 101.773 11.7921C101.833 13.4917 101.973 15.0513 102.033 15.2713C102.133 15.5312 102.654 14.5114 103.855 11.5722C104.776 9.33272 106.078 6.15351 106.759 4.49392C107.44 2.85433 108.121 1.23473 108.281 0.89481L108.561 0.294958L110.804 0.234973C112.807 0.194983 113.047 0.214978 113.147 0.534899C113.267 0.89481 113.648 5.51367 114.128 12.132C114.268 13.9116 114.429 15.4112 114.489 15.4712C114.549 15.5512 115.049 14.4515 115.57 13.0518C116.111 11.6322 117.433 8.19301 118.494 5.3937L120.456 0.294958L122.699 0.234973L124.922 0.174988L124.822 0.634874C124.782 0.89481 124.161 2.45442 123.48 4.09402C122.799 5.75361 121.698 8.39296 121.037 9.99256C120.396 11.5922 119.355 14.1115 118.734 15.5712C118.013 17.3108 117.693 18.2905 117.833 18.3505C117.973 18.3905 118.073 18.5704 118.073 18.7304C118.073 19.0103 117.853 19.0303 116.531 18.9304C115.67 18.8504 113.908 18.7504 112.626 18.6704C110.844 18.5704 110.263 18.4705 110.263 18.2705C110.263 18.1106 110.404 17.9906 110.564 17.9906C110.724 17.9906 110.824 17.8706 110.764 17.7506C110.724 17.6107 110.644 16.8709 110.584 16.0911C110.303 12.372 110.003 8.97281 109.903 7.91307C109.763 6.81335 109.743 6.77336 109.522 7.21325C109.262 7.69313 105.057 18.0106 105.057 18.1305C105.057 18.1705 105.197 18.1905 105.377 18.1905C105.557 18.1905 105.658 18.3305 105.617 18.5304C105.577 18.7904 105.177 18.9304 103.855 19.1103C101.172 19.5102 97.6473 19.6902 97.6473 19.4302Z" fill="black"/>
<path d="M56.5938 28.508C56.5938 28.328 56.6538 28.1881 56.7139 28.1881C56.814 28.1881 60.0982 27.3283 63.3023 26.4685C64.4838 26.1686 68.9896 25.0088 71.4127 24.389C76.0185 23.2493 78.6018 22.6494 82.3867 21.8896C85.2103 21.3098 86.4318 20.9698 86.4318 20.7299C86.4318 20.6499 86.8523 20.6099 87.393 20.6499C87.9137 20.6899 89.3956 20.53 90.7373 20.25C93.5008 19.7102 96.2644 19.2903 99.9491 18.8904C101.391 18.7504 103.273 18.5104 104.154 18.3905C106.037 18.1105 113.486 18.0306 116.43 18.2505C120.996 18.5704 124.42 19.9901 125.902 22.1296C126.443 22.8894 126.563 23.2693 126.623 24.469C126.703 25.8486 126.703 25.8686 126.343 25.4887C123.459 22.2695 111.964 21.1898 96.745 22.6894C95.1029 22.8494 92.7599 23.0693 91.5383 23.1893C87.9738 23.5292 81.5856 24.349 79.1225 24.8089C78.5818 24.9089 77.14 25.1288 75.9184 25.2888C74.7169 25.4487 72.9947 25.7087 72.1135 25.8886C71.2324 26.0486 69.6504 26.3285 68.6091 26.4885C67.5677 26.6484 65.9457 26.9284 65.0045 27.0883C64.0633 27.2683 62.5814 27.5482 61.7003 27.6882C59.5375 28.0681 57.3747 28.528 56.9542 28.6879C56.6939 28.7879 56.5938 28.7279 56.5938 28.508Z" fill="#F68727"/>
</svg>
