<svg width="15" height="27" viewBox="0 0 15 27" fill="none" xmlns="http://www.w3.org/2000/svg">
<path fill-rule="evenodd" clip-rule="evenodd" d="M2.79084e-06 2.02067C-0.000882323 1.49047 0.2088 0.981609 0.58296 0.605949C0.957119 0.23029 1.46513 0.0185725 1.99534 0.0173361L12.644 2.78265e-06C12.9066 -0.000435322 13.1668 0.0508627 13.4096 0.150968C13.6524 0.251072 13.8732 0.398024 14.0592 0.583431C14.2452 0.768839 14.3929 0.989072 14.4938 1.23156C14.5947 1.47404 14.6469 1.73403 14.6473 1.99667L14.684 24.6547C14.6847 25.1848 14.475 25.6934 14.1008 26.069C13.7267 26.4445 13.2188 26.6561 12.6887 26.6573L2.04067 26.6747C1.77803 26.6751 1.51787 26.6238 1.27505 26.5237C1.03223 26.4236 0.811506 26.2767 0.625479 26.0912C0.439452 25.9058 0.291766 25.6856 0.190852 25.4431C0.0899384 25.2006 0.0377733 24.9406 0.037336 24.678L2.79084e-06 2.02067ZM1.33267 2.68534C1.33232 2.51024 1.36646 2.33679 1.43314 2.17489C1.49982 2.01299 1.59774 1.8658 1.72131 1.74175C1.84487 1.61769 1.99166 1.51918 2.15329 1.45185C2.31493 1.38452 2.48824 1.34969 2.66334 1.34934L11.982 1.33467C12.3355 1.33414 12.6748 1.47401 12.9252 1.72354C13.1756 1.97307 13.3166 2.31183 13.3173 2.66534L13.3467 20.6587C13.3469 20.8338 13.3127 21.0072 13.2459 21.1691C13.1792 21.3309 13.0812 21.4781 12.9576 21.6021C12.8339 21.7261 12.6871 21.8245 12.5254 21.8917C12.3638 21.959 12.1904 21.9937 12.0153 21.994L2.69734 22.0093C2.34383 22.0099 2.00458 21.87 1.75418 21.6205C1.50377 21.3709 1.36271 21.0322 1.362 20.6787L1.33267 2.68534ZM7.362 25.334C7.53697 25.3337 7.71015 25.2988 7.87166 25.2316C8.03317 25.1643 8.17985 25.0659 8.30332 24.9419C8.4268 24.8179 8.52464 24.6708 8.59127 24.5091C8.6579 24.3473 8.69202 24.174 8.69167 23.999C8.69132 23.824 8.65651 23.6509 8.58923 23.4893C8.52195 23.3278 8.42352 23.1812 8.29955 23.0577C8.17559 22.9342 8.02851 22.8364 7.86673 22.7697C7.70495 22.7031 7.53163 22.669 7.35667 22.6693C7.0034 22.67 6.66488 22.8111 6.41558 23.0614C6.16629 23.3117 6.02663 23.6507 6.02734 24.004C6.02804 24.3573 6.16906 24.6958 6.41936 24.9451C6.66965 25.1944 7.00873 25.3347 7.362 25.334Z" fill="#5A5AAB"/>
<path d="M6.8162 15.7107C5.75687 14.8333 4.8862 14.112 4.27887 13.4333C3.6722 12.7567 3.33887 12.1333 3.33887 11.4553C3.33754 10.3513 4.2842 9.48401 5.49087 9.48268C6.17354 9.48268 6.83087 9.77335 7.25954 10.2327L7.33754 10.3167L7.41553 10.2327C7.84353 9.77268 8.5002 9.48068 9.18354 9.48001C10.3902 9.47868 11.3375 10.3447 11.3389 11.4487C11.3389 12.1273 11.0075 12.7507 10.4022 13.4287C9.79753 14.1067 8.93153 14.8273 7.87887 15.704L7.8682 15.7133L7.34287 16.148L6.8162 15.7107Z" fill="#5A5AAB"/>
</svg>
