<svg width="28" height="27" viewBox="0 0 28 27" fill="none" xmlns="http://www.w3.org/2000/svg">
<path d="M18.18 14C18.02 14 17.8533 13.9733 17.6933 13.92C17.3927 13.8244 17.1308 13.6348 16.946 13.3792C16.7611 13.1236 16.6632 12.8154 16.6667 12.5V10.6267C15.16 10.3867 14 9.07333 14 7.5V3.16667C14 1.42 15.42 0 17.1667 0H24.8333C26.58 0 28 1.42 28 3.16667V7.5C28 9.24667 26.58 10.6667 24.8333 10.6667H21.42L19.3667 13.4C19.0733 13.7867 18.64 14 18.18 14ZM8.66667 15.6667C5.90667 15.6667 3.66667 13.4267 3.66667 10.6667C3.66667 7.90667 5.90667 5.66667 8.66667 5.66667C11.4267 5.66667 13.6667 7.90667 13.6667 10.6667C13.6667 13.4267 11.4267 15.6667 8.66667 15.6667ZM0 20.5267C0 20.5867 0.0999997 26.6667 8.66667 26.6667C17.2333 26.6667 17.3333 20.5867 17.3333 20.5267V19.8333C17.3333 18.4533 16.2133 17.3333 14.8333 17.3333H2.5C1.12 17.3333 0 18.4533 0 19.8333V20.5267Z" fill="#5A5AAB"/>
</svg>
