<svg width="32" height="32" viewBox="0 0 32 32" fill="none" xmlns="http://www.w3.org/2000/svg">
<path d="M8.42664 25.4496L9.20044 4.29468C9.21208 4.02121 9.25281 3.7536 9.31681 3.50342L8.90953 3.56159L4.58083 4.15505C3.23101 4.34124 2.28847 5.5863 2.47462 6.93612L5.3488 27.9049C5.53499 29.2547 6.78009 30.1972 8.12991 30.0111L13.5466 29.2663L11.9234 29.2081C9.92192 29.1325 8.35683 27.451 8.42664 25.4496ZM5.59021 7.36524L5.24713 8.58371C5.19032 8.78552 4.92025 8.82256 4.81116 8.64355L4.1525 7.56258C4.1178 7.50566 4.10835 7.43684 4.12643 7.37267L4.46951 6.1542C4.52632 5.95239 4.79639 5.91531 4.90544 6.09436L5.56411 7.17533C5.5988 7.23225 5.60825 7.30107 5.59021 7.36524Z" fill="#5A5AAB"/>
<path d="M27.1787 2.49098L12.9183 1.96737C11.5569 1.91499 10.4165 2.97973 10.3641 4.3412L9.59035 25.4961C9.54379 26.8517 10.6027 27.9979 11.9641 28.0445L26.2245 28.5681C27.5802 28.6146 28.7264 27.5557 28.7729 26.1943L29.5467 5.03935C29.5991 3.68374 28.5343 2.53754 27.1787 2.49098ZM14.349 4.82035C14.2748 4.9815 14.1573 5.11889 14.0309 5.24329C13.8081 5.46247 13.5538 5.64762 13.2881 5.81218C13.2792 5.81772 13.2695 5.82344 13.2591 5.82284C13.2484 5.82227 13.2393 5.81531 13.231 5.80863C12.9762 5.60437 12.7352 5.38054 12.5352 5.12245C12.4433 5.0038 12.3596 4.87692 12.3071 4.73633C12.2545 4.59578 12.2346 4.43999 12.2712 4.29446C12.3236 4.08583 12.515 3.88477 12.7347 3.8548C12.97 3.82273 13.2271 3.96822 13.352 4.16183C13.3537 4.1603 13.3554 4.15877 13.3571 4.15725C13.4472 4.07607 13.5428 3.9973 13.6558 3.95345C13.7979 3.8983 13.9626 3.90416 14.1005 3.96929C14.2384 4.03438 14.3476 4.15785 14.3953 4.30267C14.4508 4.47113 14.4232 4.6592 14.349 4.82035ZM20.3191 20.9928C20.2667 21.0219 20.2144 21.0568 20.1561 21.051C20.098 21.051 20.0456 21.0103 19.9991 20.9695C17.5523 19.0201 13.8373 15.5137 14.6173 12.4808C14.9082 11.3114 15.9845 10.1826 17.218 10.0139C18.5329 9.83352 19.9758 10.6481 20.6798 11.7361L20.7031 11.7128C21.2092 11.2532 21.7445 10.811 22.3787 10.5666C24.0391 9.9243 25.9536 10.7822 26.5271 12.5273C26.8412 13.4699 26.6842 14.523 26.2711 15.4306C25.267 17.5923 22.3418 19.7365 20.3191 20.9928ZM27.1782 25.887C27.104 26.0482 26.9865 26.1856 26.8601 26.31C26.6373 26.5292 26.383 26.7143 26.1173 26.8789C26.1084 26.8844 26.0987 26.8901 26.0882 26.8896C26.0776 26.889 26.0685 26.882 26.0602 26.8753C25.8054 26.6711 25.5644 26.4472 25.3644 26.1891C25.2724 26.0705 25.1888 25.9436 25.1363 25.8031C25.0837 25.6625 25.0638 25.5067 25.1004 25.3612C25.1528 25.1526 25.3441 24.9515 25.5639 24.9215C25.7992 24.8895 26.0563 25.0349 26.1812 25.2285C26.1829 25.227 26.1846 25.2255 26.1863 25.2239C26.2764 25.1428 26.3719 25.064 26.4849 25.0201C26.6271 24.965 26.7918 24.9708 26.9297 25.036C27.0676 25.1011 27.1767 25.2245 27.2245 25.3694C27.28 25.5379 27.2524 25.7259 27.1782 25.887Z" fill="#5A5AAB"/>
</svg>
