<svg width="24" height="28" viewBox="0 0 24 28" fill="none" xmlns="http://www.w3.org/2000/svg">
<path d="M22 0H2.00001C1.46957 0 0.960867 0.210714 0.585794 0.585786C0.210721 0.960859 7.54603e-06 1.46957 7.54603e-06 2V15C-0.00233026 16.9944 0.538572 18.9517 1.56464 20.6619C2.59071 22.3721 4.0632 23.7705 5.82401 24.707L12 28L18.176 24.707C19.9368 23.7705 21.4093 22.3721 22.4354 20.6619C23.4614 18.9517 24.0023 16.9944 24 15V2C24 1.46957 23.7893 0.960859 23.4142 0.585786C23.0391 0.210714 22.5304 0 22 0ZM19 16H5.00001V14H19V16ZM19 10H5.00001V8H19V10Z" fill="#5A5AAB"/>
</svg>
