<svg width="106" height="17" viewBox="0 0 106 17" fill="none" xmlns="http://www.w3.org/2000/svg">
<g clip-path="url(#clip0_30734_68547)">
<path d="M25.7127 10.5719C25.7276 11.7995 24.7526 12.4578 23.6131 12.4578H16.8262V5.43859H23.1252C24.2741 5.43278 25.2434 6.09695 25.2307 7.31871C25.2307 7.99217 24.935 8.50939 24.4622 8.8271C25.2121 9.08383 25.7145 9.68846 25.7145 10.5719H25.7127ZM19.4079 7.10322V8.04793H22.3997C22.6213 8.04793 22.8043 7.80805 22.8043 7.57369C22.8043 7.33933 22.6213 7.10322 22.3997 7.10322H19.4079ZM22.8836 10.7856C23.1051 10.7856 23.2881 10.5513 23.2881 10.3152C23.2881 10.0791 23.1051 9.8447 22.8836 9.8447H19.4097V10.7839H22.8836V10.7856ZM29.006 5.43859H32.0771L35.6303 12.4578H32.7236L32.2008 11.2561H28.884L28.3613 12.4578H25.4543L29.0078 5.43859H29.006ZM29.6318 9.54151H31.451L30.5443 7.46769L29.6318 9.54151ZM40.5673 5.42726L39.1765 10.2202H42.9309L43.6697 12.4448H35.9169L37.9835 5.42552H40.5652L40.5673 5.42726ZM48.3201 5.42726L46.9293 10.2202H50.684L51.4228 12.4448H43.6697L45.7363 5.42552H48.3183L48.3201 5.42726ZM52.2203 5.43859H59.9734V7.23507H54.8041V8.13331H59.9734V9.757H54.8041V10.6555H59.9734V12.4578H52.2203V5.43859ZM67.1648 5.43278C68.5298 5.41797 69.6876 6.63421 69.6691 8.0851C69.6691 8.61336 69.5363 9.09312 69.2703 9.5209C69.0098 9.94315 68.659 10.2667 68.2248 10.4824L69.6691 12.4503H66.9192L65.6727 10.7374H63.366V12.4503H60.7842V5.43104H67.1669L67.1648 5.43278ZM63.366 7.48424V8.68016H66.5149C66.6717 8.68016 66.8047 8.62265 66.9136 8.50736C67.0263 8.38626 67.0818 8.24686 67.0818 8.0851C67.0818 7.75026 66.8306 7.48424 66.5149 7.48424H63.366ZM74.6243 8.1426C76.4731 8.24134 79.0697 8.37697 79.0659 10.1383C79.0659 12.1433 76.8977 12.6196 74.5706 12.6196C72.2494 12.6138 70.3231 12.3164 70.0756 10.1383H72.7811C73.0767 10.6814 73.7618 10.8228 74.5706 10.8228C75.3797 10.8228 76.3604 10.6817 76.3604 10.1383C76.3604 9.8296 75.5568 9.78314 74.5172 9.73115C72.6684 9.63241 70.0719 9.49679 70.0774 7.74097C70.0774 5.73597 72.2456 5.25621 74.5726 5.25621C76.8939 5.27102 78.8202 5.54807 79.0676 7.74097H76.3622C76.0665 7.18686 75.3814 7.05647 74.5726 7.05647C73.7636 7.05647 72.7831 7.18134 72.7831 7.74097C72.7831 8.04967 73.5864 8.09062 74.6261 8.1426H74.6243Z" fill="#212121"/>
<path d="M88.4357 10.5719C88.4505 11.7994 87.4753 12.4578 86.336 12.4578H79.5488V5.43858H85.8484C86.997 5.43277 87.9667 6.09694 87.9536 7.3187C87.9536 7.99216 87.6583 8.50938 87.1855 8.82709C87.9353 9.08381 88.4377 9.68845 88.4377 10.5719H88.4357ZM82.1326 7.10321V8.04792H85.1244C85.346 8.04792 85.529 7.80804 85.529 7.57368C85.529 7.33932 85.346 7.10321 85.1244 7.10321H82.1326ZM85.6083 10.7856C85.8298 10.7856 86.0128 10.5513 86.0128 10.3152C86.0128 10.0791 85.8298 9.84469 85.6083 9.84469H82.1344V10.7839H85.6083V10.7856Z" fill="url(#paint0_linear_30734_68547)"/>
<path d="M88.9199 5.43854H96.673V7.23502H91.5037V8.13326H96.673V9.75695H91.5037V10.6555H96.673V12.4578H88.9199V5.43854Z" fill="url(#paint1_linear_30734_68547)"/>
<path d="M100.347 12.4558V7.66287H97.2773V5.43832H106V7.66287H102.928V12.4558H100.347Z" fill="url(#paint2_linear_30734_68547)"/>
<path d="M12.3843 7.40808H8.1699L6.84766 3.50409H11.1913L12.3843 7.40808Z" fill="url(#paint3_linear_30734_68547)"/>
<path d="M10.285 13.7504L8.99414 9.83712L12.3812 7.40057L13.6721 11.3121L10.285 13.7504Z" fill="url(#paint4_linear_30734_68547)"/>
<path d="M6.8659 16.2631L3.44922 13.7615L6.86213 11.3511L10.2843 13.7504L6.8659 16.2631Z" fill="url(#paint5_linear_30734_68547)"/>
<path d="M1.32602 7.42871L5.54046 7.40983L6.5267 4.46216L8.00373 0H3.92636L0 11.1373L3.45008 13.7614L4.73341 9.84813L1.32602 7.42871Z" fill="url(#paint6_linear_30734_68547)"/>
</g>
<defs>
<linearGradient id="paint0_linear_30734_68547" x1="77.556" y1="7.06575" x2="104.107" y2="16.2157" gradientUnits="userSpaceOnUse">
<stop stop-color="#8B6D2E"/>
<stop offset="0.34" stop-color="#BC9F61"/>
<stop offset="0.67" stop-color="#E8D497"/>
<stop offset="1" stop-color="#C4A769"/>
</linearGradient>
<linearGradient id="paint1_linear_30734_68547" x1="78.6147" y1="3.98968" x2="105.166" y2="13.1414" gradientUnits="userSpaceOnUse">
<stop stop-color="#8B6D2E"/>
<stop offset="0.34" stop-color="#BC9F61"/>
<stop offset="0.67" stop-color="#E8D497"/>
<stop offset="1" stop-color="#C4A769"/>
</linearGradient>
<linearGradient id="paint2_linear_30734_68547" x1="79.7325" y1="0.753415" x2="106.282" y2="9.9034" gradientUnits="userSpaceOnUse">
<stop stop-color="#8B6D2E"/>
<stop offset="0.34" stop-color="#BC9F61"/>
<stop offset="0.67" stop-color="#E8D497"/>
<stop offset="1" stop-color="#C4A769"/>
</linearGradient>
<linearGradient id="paint3_linear_30734_68547" x1="9.61614" y1="22.3596" x2="9.61614" y2="-11.8421" gradientUnits="userSpaceOnUse">
<stop stop-color="#8B6D2E"/>
<stop offset="0.34" stop-color="#BC9F61"/>
<stop offset="0.67" stop-color="#E8D497"/>
<stop offset="1" stop-color="#C4A769"/>
</linearGradient>
<linearGradient id="paint4_linear_30734_68547" x1="11.3322" y1="22.3599" x2="11.3322" y2="-11.8418" gradientUnits="userSpaceOnUse">
<stop stop-color="#8B6D2E"/>
<stop offset="0.34" stop-color="#BC9F61"/>
<stop offset="0.67" stop-color="#E8D497"/>
<stop offset="1" stop-color="#C4A769"/>
</linearGradient>
<linearGradient id="paint5_linear_30734_68547" x1="6.8659" y1="22.36" x2="6.8659" y2="-11.842" gradientUnits="userSpaceOnUse">
<stop stop-color="#8B6D2E"/>
<stop offset="0.34" stop-color="#BC9F61"/>
<stop offset="0.67" stop-color="#E8D497"/>
<stop offset="1" stop-color="#C4A769"/>
</linearGradient>
<linearGradient id="paint6_linear_30734_68547" x1="4.00215" y1="22.3596" x2="4.00215" y2="-11.8421" gradientUnits="userSpaceOnUse">
<stop stop-color="#8B6D2E"/>
<stop offset="0.34" stop-color="#BC9F61"/>
<stop offset="0.67" stop-color="#E8D497"/>
<stop offset="1" stop-color="#C4A769"/>
</linearGradient>
<clipPath id="clip0_30734_68547">
<rect width="106" height="16.263" fill="white"/>
</clipPath>
</defs>
</svg>
