<svg width="32" height="32" viewBox="0 0 32 32" fill="none" xmlns="http://www.w3.org/2000/svg">
<path d="M15.0003 8H12.0003C9.48566 8 8.22966 8 7.44833 8.78133C6.66699 9.56267 6.66699 10.8187 6.66699 13.3333V21.6667H25.3337V13.3333C25.3337 10.8187 25.3337 9.56267 24.5523 8.78133C23.771 8 22.515 8 20.0003 8H17.0003V14.6307L17.907 13.572C17.9924 13.4722 18.0967 13.3902 18.2138 13.3307C18.331 13.2712 18.4587 13.2353 18.5897 13.2252C18.7207 13.215 18.8524 13.2308 18.9773 13.2715C19.1022 13.3123 19.2179 13.3772 19.3177 13.4627C19.4175 13.5481 19.4995 13.6524 19.559 13.7695C19.6185 13.8867 19.6543 14.0144 19.6645 14.1454C19.6746 14.2763 19.6589 14.4081 19.6181 14.533C19.5774 14.6579 19.5124 14.7735 19.427 14.8733L16.7603 17.984C16.6664 18.0938 16.5499 18.1819 16.4187 18.2423C16.2875 18.3028 16.1448 18.3341 16.0003 18.3341C15.8559 18.3341 15.7131 18.3028 15.582 18.2423C15.4508 18.1819 15.3342 18.0938 15.2403 17.984L12.5737 14.8733C12.4882 14.7735 12.4233 14.6579 12.3825 14.533C12.3418 14.4081 12.326 14.2763 12.3362 14.1454C12.3463 14.0144 12.3822 13.8867 12.4417 13.7695C12.5012 13.6524 12.5832 13.5481 12.683 13.4627C12.7828 13.3772 12.8985 13.3123 13.0234 13.2715C13.1483 13.2308 13.28 13.215 13.411 13.2252C13.542 13.2353 13.6697 13.2712 13.7868 13.3307C13.9039 13.3902 14.0082 13.4722 14.0937 13.572L15.0003 14.6307V8ZM6.70699 23.6667H25.2937C25.2243 24.72 25.0417 25.396 24.5523 25.8853C23.771 26.6667 22.515 26.6667 20.0003 26.6667H12.0003C9.48566 26.6667 8.22966 26.6667 7.44833 25.8853C6.95899 25.396 6.77499 24.7213 6.70699 23.6667Z" fill="#5A5AAB"/>
<path d="M7.8524 4H24.1471C27.0137 4 29.3337 6.4 29.3337 9.36C29.3337 11.08 28.5511 12.6093 27.3337 13.5907V13.2147C27.3337 12.06 27.3337 11.0013 27.2177 10.1413C27.0911 9.19333 26.7911 8.19067 25.9671 7.368C25.1431 6.54267 24.1404 6.24267 23.1937 6.11467C22.3324 6 21.2737 6 20.1191 6H11.8804C10.7271 6 9.6684 6 8.8084 6.116C7.8604 6.24267 6.85774 6.54267 6.03507 7.36667C5.20974 8.19067 4.90974 9.19333 4.78174 10.14C4.66707 11.0013 4.66707 12.06 4.66707 13.2147V13.5907C4.03846 13.08 3.53244 12.4348 3.1863 11.7026C2.84016 10.9704 2.66273 10.1699 2.66707 9.36C2.66707 6.4 4.9884 4 7.8524 4Z" fill="#5A5AAB"/>
</svg>
