<svg width="22" height="27" viewBox="0 0 22 27" fill="none" xmlns="http://www.w3.org/2000/svg">
<path d="M17.3333 9.33333V6.66667C17.3333 2.93333 14.4 0 10.6667 0C6.93333 0 4 2.93333 4 6.66667V9.33333C1.73333 9.33333 0 11.0667 0 13.3333V22.6667C0 24.9333 1.73333 26.6667 4 26.6667H17.3333C19.6 26.6667 21.3333 24.9333 21.3333 22.6667V13.3333C21.3333 11.0667 19.6 9.33333 17.3333 9.33333ZM6.66667 6.66667C6.66667 4.4 8.4 2.66667 10.6667 2.66667C12.9333 2.66667 14.6667 4.4 14.6667 6.66667V9.33333H6.66667V6.66667ZM12.1333 18L12 18.1333V20C12 20.8 11.4667 21.3333 10.6667 21.3333C9.86667 21.3333 9.33333 20.8 9.33333 20V18.1333C8.53333 17.3333 8.4 16.1333 9.2 15.3333C10 14.5333 11.2 14.4 12 15.2C12.8 15.8667 12.9333 17.2 12.1333 18Z" fill="#5A5AAB"/>
</svg>
