<svg width="16" height="16" viewBox="0 0 16 16" fill="none" xmlns="http://www.w3.org/2000/svg">
<path fill-rule="evenodd" clip-rule="evenodd" d="M8.98254 5.11152H0.666756C0.489921 5.11152 0.320329 5.04127 0.195288 4.91623C0.0702472 4.79119 0 4.6216 0 4.44477C0 4.26793 0.0702472 4.09834 0.195288 3.9733C0.320329 3.84826 0.489921 3.77801 0.666756 3.77801H8.98254C9.12783 3.26601 9.43618 2.81538 9.86079 2.4945C10.2854 2.17363 10.8031 2.00002 11.3353 2.00002C11.8675 2.00002 12.3852 2.17363 12.8098 2.4945C13.2344 2.81538 13.5428 3.26601 13.6881 3.77801H14.8909C15.0677 3.77801 15.2373 3.84826 15.3624 3.9733C15.4874 4.09834 15.5576 4.26793 15.5576 4.44477C15.5576 4.6216 15.4874 4.79119 15.3624 4.91623C15.2373 5.04127 15.0677 5.11152 14.8909 5.11152H13.6872C13.5419 5.62352 13.2335 6.07415 12.8089 6.39503C12.3843 6.7159 11.8666 6.88952 11.3344 6.88952C10.8022 6.88952 10.2845 6.7159 9.8599 6.39503C9.43529 6.07415 9.12694 5.62352 8.98165 5.11152H8.98254ZM10.2236 4.44477C10.2236 4.15004 10.3407 3.86739 10.5491 3.65899C10.7575 3.45058 11.0401 3.3335 11.3349 3.3335C11.6296 3.3335 11.9122 3.45058 12.1206 3.65899C12.329 3.86739 12.4461 4.15004 12.4461 4.44477C12.4461 4.73949 12.329 5.02214 12.1206 5.23054C11.9122 5.43895 11.6296 5.55603 11.3349 5.55603C11.0401 5.55603 10.7575 5.43895 10.5491 5.23054C10.3407 5.02214 10.2236 4.73949 10.2236 4.44477ZM6.5751 12.2236H14.8909C15.0677 12.2236 15.2373 12.1533 15.3624 12.0283C15.4874 11.9033 15.5576 11.7337 15.5576 11.5568C15.5576 11.38 15.4874 11.2104 15.3624 11.0854C15.2373 10.9603 15.0677 10.8901 14.8909 10.8901H6.5751C6.42954 10.3784 6.12114 9.92821 5.69665 9.60764C5.27216 9.28707 4.75472 9.11365 4.22279 9.11365C3.69085 9.11365 3.17342 9.28707 2.74892 9.60764C2.32443 9.92821 2.01603 10.3784 1.87047 10.8901H0.666756C0.489921 10.8901 0.320329 10.9603 0.195288 11.0854C0.0702472 11.2104 0 11.38 0 11.5568C0 11.7337 0.0702472 11.9033 0.195288 12.0283C0.320329 12.1533 0.489921 12.2236 0.666756 12.2236H1.87047C2.01603 12.7352 2.32443 13.1854 2.74892 13.506C3.17342 13.8266 3.69085 14 4.22279 14C4.75472 14 5.27216 13.8266 5.69665 13.506C6.12114 13.1854 6.42954 12.7352 6.5751 12.2236ZM3.11153 11.5568C3.11153 11.2621 3.22861 10.9795 3.43701 10.771C3.64541 10.5626 3.92806 10.4456 4.22279 10.4456C4.51751 10.4456 4.80017 10.5626 5.00857 10.771C5.21697 10.9795 5.33405 11.2621 5.33405 11.5568C5.33405 11.8516 5.21697 12.1342 5.00857 12.3426C4.80017 12.551 4.51751 12.6681 4.22279 12.6681C3.92806 12.6681 3.64541 12.551 3.43701 12.3426C3.22861 12.1342 3.11153 11.8516 3.11153 11.5568Z" fill="#181818"/>
</svg>
