<svg width="24" height="25" viewBox="0 0 24 25" fill="none" xmlns="http://www.w3.org/2000/svg">
<path d="M20 13.4448C20 18.4448 16.5 20.9448 12.34 22.3948C12.1222 22.4686 11.8855 22.4651 11.67 22.3848C7.5 20.9448 4 18.4448 4 13.4448V6.44479C4 6.17957 4.10536 5.92522 4.29289 5.73768C4.48043 5.55014 4.73478 5.44479 5 5.44479C7 5.44479 9.5 4.24479 11.24 2.72479C11.4519 2.54378 11.7214 2.44434 12 2.44434C12.2786 2.44434 12.5481 2.54378 12.76 2.72479C14.51 4.25479 17 5.44479 19 5.44479C19.2652 5.44479 19.5196 5.55014 19.7071 5.73768C19.8946 5.92522 20 6.17957 20 6.44479V13.4448Z" stroke="#080881" stroke-width="1.5" stroke-linecap="round" stroke-linejoin="round"/>
<path d="M9 12.4443L11 14.4443L15 10.4443" stroke="#080881" stroke-width="1.5" stroke-linecap="round" stroke-linejoin="round"/>
</svg>
