<svg width="24" height="24" viewBox="0 0 24 24" fill="none" xmlns="http://www.w3.org/2000/svg">
<g clip-path="url(#clip0_30416_30798)">
<path d="M8.33362 18.9943H15.6664V5H8.33362V18.9943ZM9.98298 8.3711H13.246C13.6698 8.3711 14.0119 8.75071 14.0119 9.22096V10.7507C14.0119 11.0057 13.9098 11.2493 13.7311 11.4079C13.2153 11.8782 11.8672 13.4079 11.8672 14.7677V15.6176H10.3353V14.7677C10.3353 12.8017 11.8366 11.034 12.48 10.3654V10.0708H9.98298V8.3711ZM0 6.52408V17.4703C0 18.3144 0.474894 18.9943 1.05702 18.9943H7.33277V5H1.05702C0.474894 5 0 5.67989 0 6.52408ZM1.64936 8.3711H4.91234C5.33617 8.3711 5.6783 8.75071 5.6783 9.22096V10.7507C5.6783 11.0057 5.57617 11.2493 5.39745 11.4079C4.8817 11.8782 3.53362 13.4079 3.53362 14.7677V15.6176H2.0017V14.7677C2.0017 12.8017 3.50298 11.034 4.14638 10.3654V10.0708H1.64936V8.3711ZM22.943 5H16.6672V19H22.943C23.5302 19 24 18.3144 24 17.4759V6.52408C24 5.67989 23.5251 5 22.943 5ZM22.3506 10.7507C22.3506 11.0057 22.2485 11.2493 22.0698 11.4079C21.554 11.8782 20.206 13.4079 20.206 14.7677V15.6176H18.674V14.7677C18.674 12.8017 20.1753 11.034 20.8187 10.3654V10.0708H18.3217V8.3711H21.5847C22.0085 8.3711 22.3506 8.75071 22.3506 9.22096V10.7507Z" fill="#5A5AAB"/>
</g>
<defs>
<clipPath id="clip0_30416_30798">
<rect width="24" height="24" fill="white"/>
</clipPath>
</defs>
</svg>
