<svg width="24" height="25" viewBox="0 0 24 25" fill="none" xmlns="http://www.w3.org/2000/svg">
<path d="M17 2.6665H7C5.67441 2.66809 4.40356 3.19539 3.46622 4.13272C2.52888 5.07006 2.00159 6.34091 2 7.6665V11.6665C2.0017 12.8472 2.42044 13.9894 3.18231 14.8914C3.94418 15.7934 5.0002 16.3973 6.164 16.5965L7.064 21.1505C7.17367 21.5868 7.42726 21.9735 7.7838 22.2479C8.14033 22.5223 8.57898 22.6685 9.02885 22.6628C9.47873 22.6572 9.91355 22.5 10.2631 22.2167C10.6126 21.9333 10.8563 21.5405 10.955 21.1015L11.668 17.4745C11.7124 17.2475 11.8341 17.0429 12.0125 16.8956C12.1908 16.7482 12.4147 16.6673 12.646 16.6665H17C18.3256 16.6649 19.5964 16.1376 20.5338 15.2003C21.4711 14.2629 21.9984 12.9921 22 11.6665V7.6665C21.9984 6.34091 21.4711 5.07006 20.5338 4.13272C19.5964 3.19539 18.3256 2.66809 17 2.6665Z" fill="#CAE8FF"/>
<path d="M8 10.6665C8.55228 10.6665 9 10.2188 9 9.6665C9 9.11422 8.55228 8.6665 8 8.6665C7.44772 8.6665 7 9.11422 7 9.6665C7 10.2188 7.44772 10.6665 8 10.6665Z" fill="#14A7FF"/>
<path d="M12 10.6665C12.5523 10.6665 13 10.2188 13 9.6665C13 9.11422 12.5523 8.6665 12 8.6665C11.4477 8.6665 11 9.11422 11 9.6665C11 10.2188 11.4477 10.6665 12 10.6665Z" fill="#14A7FF"/>
<path d="M16 10.6665C16.5523 10.6665 17 10.2188 17 9.6665C17 9.11422 16.5523 8.6665 16 8.6665C15.4477 8.6665 15 9.11422 15 9.6665C15 10.2188 15.4477 10.6665 16 10.6665Z" fill="#14A7FF"/>
</svg>
