<svg width="32" height="32" viewBox="0 0 32 32" fill="none" xmlns="http://www.w3.org/2000/svg">
<path d="M15.9775 2.75C16.122 2.75002 16.2623 2.79032 16.3828 2.86426C16.5033 2.93822 16.5985 3.04227 16.6582 3.16309L16.6611 3.16992L20.4795 10.7109L20.6562 11.0596L21.043 11.1152L29.6104 12.3379H29.6133C29.7556 12.3577 29.8876 12.4164 29.9951 12.5049C30.1008 12.5918 30.178 12.7042 30.2207 12.8291C30.2565 12.9497 30.2594 13.0769 30.2285 13.1982V13.1992C30.1967 13.3239 30.13 13.4395 30.0342 13.5332L23.8486 19.418L23.5547 19.6973L23.627 20.0957L25.1309 28.3887L25.1328 28.3984C25.1585 28.5305 25.1443 28.6678 25.0928 28.7939C25.0419 28.9186 24.9549 29.0284 24.8398 29.1104C24.7037 29.2031 24.5385 29.2508 24.3691 29.2432H24.333C24.2406 29.2435 24.149 29.2273 24.0635 29.1963L23.9805 29.1602L16.3193 25.2305L15.9775 25.0547L15.6348 25.2305L7.96875 29.1631L7.96777 29.1641C7.84196 29.2289 7.69831 29.2584 7.55469 29.248C7.41126 29.2377 7.27493 29.188 7.16113 29.1064L7.08105 29.04C7.00658 28.9692 6.94818 28.8848 6.91016 28.792V28.791C6.87232 28.6985 6.85483 28.6 6.8584 28.502L6.86914 28.4033L8.37305 20.1104L8.44531 19.7119L8.15137 19.4336L1.96484 13.5479H1.96582C1.87006 13.4542 1.80327 13.3386 1.77148 13.2139L1.75391 13.1191C1.74358 13.0272 1.75168 12.9335 1.77832 12.8438C1.82068 12.7192 1.89879 12.6068 2.00488 12.5195C2.11241 12.4311 2.24436 12.3724 2.38672 12.3525H2.38965L10.957 11.1299L11.3467 11.0742L11.5225 10.7227L15.2959 3.16602L15.2969 3.16309C15.3569 3.04197 15.4513 2.938 15.5713 2.86426C15.6919 2.79021 15.8329 2.75 15.9775 2.75Z" stroke="#333333" stroke-width="1.5"/>
</svg>
