<svg width="18" height="16" viewBox="0 0 18 16" fill="none" xmlns="http://www.w3.org/2000/svg">
<path d="M14.0012 15.9959C13.8569 15.9964 13.7147 15.9646 13.5863 15.9033L8.98645 13.656L4.38662 15.9033C4.23726 15.9766 4.06883 16.0093 3.90061 15.9977C3.73229 15.9862 3.57087 15.9308 3.4346 15.8378C3.29833 15.7448 3.19278 15.6181 3.1299 15.4719C3.06703 15.3258 3.0493 15.1661 3.07888 15.0111L3.98081 10.2723L0.264872 6.90546C0.14891 6.79749 0.0666538 6.66209 0.0269691 6.5138C-0.0128187 6.36551 -0.00848843 6.20993 0.0393394 6.06375C0.0915996 5.91416 0.187769 5.78123 0.316925 5.68006C0.446081 5.57889 0.602967 5.51353 0.769952 5.49139L5.91093 4.79277L8.17471 0.474817C8.24862 0.332506 8.36386 0.212491 8.50744 0.128515C8.65103 0.0445393 8.81699 0 8.98645 0C9.15591 0 9.32186 0.0445393 9.46545 0.128515C9.60903 0.212491 9.72438 0.332506 9.79818 0.474817L12.0891 4.78435L17.23 5.48297C17.397 5.50512 17.5539 5.57048 17.6831 5.67165C17.8122 5.77282 17.9083 5.90574 17.9607 6.05533C18.0085 6.20151 18.0128 6.3571 17.973 6.50538C17.9333 6.65367 17.8511 6.78907 17.7351 6.89704L14.0192 10.2638L14.9211 15.0027C14.9534 15.1605 14.9365 15.3236 14.8726 15.4727C14.8087 15.6219 14.7003 15.7508 14.5603 15.8444C14.3971 15.9512 14.2004 16.0045 14.0012 15.9959Z" fill="#606060"/>
</svg>
