<svg width="13" height="12" viewBox="0 0 13 12" fill="none" xmlns="http://www.w3.org/2000/svg">
<path d="M9.79975 11.9969C9.69882 11.9973 9.59926 11.9735 9.50936 11.9275L6.28983 10.242L3.0703 11.9275C2.96576 11.9824 2.84788 12.007 2.73013 11.9983C2.61232 11.9896 2.49934 11.9481 2.40396 11.8783C2.30858 11.8086 2.23471 11.7136 2.1907 11.6039C2.14669 11.4944 2.13428 11.3746 2.15498 11.2583L2.78626 7.70423L0.18539 5.17909C0.104226 5.09811 0.0466526 4.99657 0.0188763 4.88535C-0.00897215 4.77413 -0.00594126 4.65745 0.0275346 4.54781C0.0641128 4.43562 0.131424 4.33593 0.221824 4.26005C0.312223 4.18417 0.422032 4.13515 0.538909 4.11854L4.13721 3.59458L5.72168 0.356113C5.77341 0.249379 5.85407 0.159368 5.95457 0.096386C6.05507 0.0334045 6.17123 0 6.28983 0C6.40844 0 6.5246 0.0334045 6.6251 0.096386C6.7256 0.159368 6.80633 0.249379 6.85799 0.356113L8.46144 3.58827L12.0597 4.11223C12.1766 4.12884 12.2864 4.17786 12.3768 4.25374C12.4672 4.32961 12.5345 4.4293 12.5711 4.5415C12.6046 4.65113 12.6076 4.76782 12.5798 4.87904C12.552 4.99026 12.4944 5.0918 12.4133 5.17278L9.81238 7.69788L10.4437 11.252C10.4662 11.3703 10.4544 11.4927 10.4097 11.6045C10.3649 11.7164 10.2891 11.8131 10.1911 11.8833C10.0769 11.9634 9.93921 12.0034 9.79975 11.9969Z" fill="#FD6634"/>
</svg>
