<svg width="156" height="58" viewBox="0 0 156 58" fill="none" xmlns="http://www.w3.org/2000/svg">
<path d="M29.4478 57.4318C13.6919 57.4318 0.865234 44.6225 0.865234 28.8492C0.865234 13.0759 13.6919 0.266602 29.4478 0.266602C45.2038 0.266602 58.0304 13.0932 58.0304 28.8492C58.0304 44.6052 45.2038 57.4318 29.4478 57.4318Z" fill="#1C86F0"/>
<path d="M29.4507 47.9858C18.912 47.9858 10.332 39.4058 10.332 28.8672C10.332 18.3285 18.912 9.74854 29.4507 9.74854C39.9893 9.74854 48.5693 18.3285 48.5693 28.8672C48.5693 39.4058 39.9893 47.9858 29.4507 47.9858Z" fill="black"/>
<path d="M1.3159 23.7529C1.02123 25.4169 0.865234 27.1156 0.865234 28.8489C0.865234 30.5822 1.02123 32.2982 1.3159 33.9449H6.09989C5.73589 32.2982 5.56256 30.5996 5.56256 28.8489C5.56256 27.0983 5.75322 25.3996 6.09989 23.7529H1.3159Z" fill="black"/>
<path d="M57.5828 23.7529H52.7988C53.1628 25.3996 53.3362 27.0983 53.3362 28.8489C53.3362 30.5996 53.1455 32.2982 52.7988 33.9449H57.5828C57.8775 32.2982 58.0335 30.5822 58.0335 28.8489C58.0335 27.1156 57.8775 25.3996 57.5828 23.7529Z" fill="black"/>
<path d="M10.332 50.0997C12.8454 52.3704 15.792 54.2077 18.9987 55.473L21.512 51.3997C18.236 50.2384 15.2894 48.401 12.8454 46.0264L10.332 50.0997Z" fill="black"/>
<path d="M48.5843 7.59842C46.0709 5.32776 43.1243 3.49043 39.9176 2.2251L37.4043 6.29842C40.6803 7.45975 43.627 9.29708 46.0709 11.6717L48.5843 7.59842Z" fill="black"/>
<path d="M21.512 6.31551L18.9987 2.24219C15.792 3.50752 12.8627 5.34485 10.332 7.61551L12.8454 11.6888C15.2894 9.33151 18.236 7.47684 21.512 6.31551Z" fill="black"/>
<path d="M37.4043 51.3997L39.9176 55.473C43.1243 54.2077 46.0536 52.3704 48.5843 50.0997L46.0709 46.0264C43.627 48.3837 40.6803 50.2384 37.4043 51.3997Z" fill="black"/>
<path d="M29.4498 7.3208C17.5765 7.3208 7.92188 16.9754 7.92188 28.8488C7.92188 40.7221 17.5765 50.3767 29.4498 50.3767C41.3231 50.3767 50.9778 40.7221 50.9778 28.8488C50.9778 16.9754 41.3231 7.3208 29.4498 7.3208ZM29.4498 49.614C18.0099 49.614 8.68454 40.3061 8.68454 28.8488C8.68454 17.3914 17.9925 8.08347 29.4498 8.08347C40.9071 8.08347 50.2151 17.3914 50.2151 28.8488C50.2151 40.3061 40.9071 49.614 29.4498 49.614Z" fill="black"/>
<path d="M24.7496 26.6305C23.9176 24.3772 24.2123 21.7079 25.9803 20.1132C28.4589 17.7732 32.6536 18.3799 33.9189 21.6039C35.4269 25.1225 32.3069 28.5892 28.7363 28.7972C29.9669 29.0919 31.4056 28.9012 32.6363 28.2945C37.0216 26.1625 37.0389 19.9919 32.8963 17.5305C30.1576 16.0052 27.2976 16.6465 25.4256 18.2932C26.483 15.1039 29.1003 12.1226 29.1003 12.1226L24.2123 14.4799V19.7319C22.999 21.6905 22.895 24.2905 24.7843 26.6305H24.7496Z" fill="white"/>
<path d="M41.9101 30.0105C40.0901 26.8038 35.4968 26.9772 32.8795 28.9705C35.9128 27.4452 40.9741 28.0865 41.0781 32.2118C41.1475 33.2865 40.7661 34.3438 40.0728 35.1585C38.1662 37.4292 35.0982 37.4465 32.8448 35.5918C31.3368 34.4998 30.3488 32.9745 29.3262 31.3972C29.6902 37.3945 37.1088 41.7798 41.4421 36.2505C42.8115 34.4998 43.0021 31.9692 41.9101 30.0278V30.0105Z" fill="white"/>
<path d="M27.6978 33.1821C27.1952 31.6914 25.5485 30.8594 24.0578 30.9634C25.9818 31.6221 27.1778 33.1994 26.5885 35.1927C25.9645 36.7874 23.8152 37.7407 22.1512 37.4807C20.3658 37.1514 19.0138 35.7821 18.4592 34.1701C17.8699 32.5234 18.4419 30.7034 19.7072 29.4554C21.5272 27.5834 24.6125 27.5314 26.8138 29.0048C24.8898 26.7168 21.0938 26.3528 18.7019 28.3114C16.0672 30.2354 15.3045 34.5168 17.7312 36.9434C18.8752 38.1394 20.4525 38.7287 22.0125 38.8154C25.0978 38.9714 29.1018 36.8221 27.6805 33.2168L27.6978 33.1821Z" fill="white"/>
<path d="M29.3263 31.6221C29.3263 31.6221 28.217 44.4487 26.1543 45.5754H32.5156C30.4356 44.4487 29.3436 31.6221 29.3436 31.6221H29.3263Z" fill="white"/>
<path d="M64.4258 9.55811H66.9044C67.9098 9.55811 68.6724 9.67944 69.2098 9.9221C69.7471 10.1648 70.1631 10.5288 70.4751 11.0141C70.7871 11.4994 70.9431 12.0541 70.9431 12.6434C70.9431 13.1981 70.8044 13.7181 70.5271 14.1688C70.2498 14.6368 69.8511 15.0008 69.3311 15.2781C69.9898 15.5034 70.4924 15.7634 70.8391 16.0581C71.1858 16.3528 71.4631 16.7168 71.6711 17.1501C71.8791 17.5834 71.9658 18.0341 71.9658 18.5368C71.9658 19.5421 71.6018 20.4088 70.8564 21.1021C70.1111 21.7954 69.1231 22.1421 67.8751 22.1421H64.4258V9.55811ZM65.6565 10.7888V14.8274H66.3844C67.2511 14.8274 67.9098 14.7408 68.3084 14.5848C68.7071 14.4288 69.0538 14.1688 69.2791 13.8221C69.5218 13.4754 69.6431 13.0768 69.6431 12.6608C69.6431 12.0888 69.4351 11.6381 69.0364 11.3088C68.6378 10.9794 67.9964 10.8234 67.1124 10.8234H65.6565V10.7888ZM65.6565 16.0928V20.9287H67.2164C68.1351 20.9287 68.8111 20.8421 69.2444 20.6514C69.6778 20.4781 70.0244 20.1834 70.2844 19.8021C70.5444 19.4208 70.6658 19.0048 70.6658 18.5541C70.6658 17.9994 70.4751 17.5141 70.1111 17.0981C69.7471 16.6821 69.2444 16.3874 68.6031 16.2488C68.1698 16.1448 67.4244 16.0928 66.3671 16.0928H65.6565Z" fill="black"/>
<path d="M73.5762 9.55811H74.8415V20.9287H79.6775V22.1421H73.5762V9.55811Z" fill="black"/>
<path d="M85.9373 9.55811L91.8132 22.1421H90.4612L88.4852 17.9994H83.0599L81.1013 22.1421H79.6973L85.6426 9.55811H85.9546H85.9373ZM85.7813 12.2448L83.6319 16.8034H87.9306L85.7813 12.2448Z" fill="black"/>
<path d="M104.603 11.8976L103.615 12.6603C103.061 11.9496 102.402 11.4123 101.639 11.0309C100.877 10.6496 100.027 10.4763 99.1086 10.4763C98.1033 10.4763 97.1673 10.7189 96.318 11.2043C95.4686 11.6896 94.7926 12.3309 94.3246 13.1456C93.8566 13.9603 93.614 14.8789 93.614 15.8843C93.614 17.4269 94.134 18.6923 95.1913 19.7323C96.2486 20.7549 97.566 21.2749 99.1779 21.2749C100.946 21.2749 102.419 20.5816 103.598 19.2123L104.586 19.9576C103.962 20.7549 103.182 21.3789 102.229 21.8122C101.293 22.2456 100.235 22.4709 99.0913 22.4709C96.8899 22.4709 95.1566 21.7429 93.874 20.2696C92.7993 19.0389 92.2793 17.5309 92.2793 15.7803C92.2793 13.9429 92.9206 12.3829 94.2206 11.1349C95.5206 9.8696 97.1326 9.24561 99.0739 9.24561C100.253 9.24561 101.31 9.47094 102.263 9.93894C103.217 10.4069 103.979 11.0483 104.586 11.8976H104.603Z" fill="black"/>
<path d="M106.252 9.55811H107.535V14.2901L112.561 9.55811H114.26L108.211 15.2088L114.728 22.1421H113.047L107.535 16.2834V22.1421H106.252V9.55811Z" fill="black"/>
<path d="M131.437 11.8976L130.449 12.6603C129.895 11.9496 129.236 11.4123 128.473 11.0309C127.711 10.6496 126.861 10.4763 125.943 10.4763C124.937 10.4763 124.001 10.7189 123.152 11.2043C122.303 11.6896 121.627 12.3309 121.159 13.1456C120.691 13.9603 120.448 14.8789 120.448 15.8843C120.448 17.4269 120.968 18.6923 122.025 19.7323C123.083 20.7549 124.4 21.2749 126.012 21.2749C127.78 21.2749 129.253 20.5816 130.432 19.2123L131.42 19.9576C130.796 20.7549 130.016 21.3789 129.063 21.8122C128.127 22.2456 127.069 22.4709 125.925 22.4709C123.724 22.4709 121.991 21.7429 120.708 20.2696C119.633 19.0389 119.113 17.5309 119.113 15.7803C119.113 13.9429 119.755 12.3829 121.055 11.1349C122.355 9.8696 123.967 9.24561 125.908 9.24561C127.087 9.24561 128.144 9.47094 129.097 9.93894C130.051 10.4069 130.813 11.0483 131.42 11.8976H131.437Z" fill="black"/>
<path d="M133.064 9.55811H134.33V14.8448H140.743V9.55811H142.008V22.1421H140.743V16.0581H134.33V22.1421H133.064V9.55811Z" fill="black"/>
<path d="M144.002 9.55811H145.267V22.1421H144.002V9.55811Z" fill="black"/>
<path d="M147.26 9.55811H149.773C151.212 9.55811 152.182 9.62744 152.685 9.74877C153.396 9.9221 153.985 10.2861 154.453 10.8408C154.904 11.3954 155.129 12.0888 155.129 12.9208C155.129 13.7528 154.904 14.4461 154.453 15.0008C154.002 15.5381 153.396 15.9194 152.616 16.0928C152.044 16.2314 150.986 16.3008 149.409 16.3008H148.508V22.1594H147.242V9.57544L147.26 9.55811ZM148.525 10.7888V15.0528H150.657C151.524 15.0701 152.148 15.0008 152.546 14.8448C152.945 14.6888 153.257 14.4288 153.482 14.0821C153.708 13.7354 153.829 13.3368 153.829 12.9034C153.829 12.4701 153.708 12.0888 153.482 11.7421C153.257 11.3954 152.945 11.1354 152.581 10.9968C152.217 10.8581 151.593 10.7714 150.744 10.7714H148.525V10.7888Z" fill="black"/>
<path d="M64.0977 27.3066H68.1883C70.407 27.3066 72.0016 27.5146 72.9896 27.9133C73.9776 28.3293 74.7403 28.988 75.3123 29.9066C75.8843 30.8253 76.1616 31.9173 76.1616 33.2C76.1616 34.6213 75.7976 35.8 75.0523 36.736C74.307 37.672 73.3016 38.3306 72.0363 38.6946C71.291 38.9026 69.939 39.0066 67.963 39.0066V47.6039H64.0977V27.3066ZM67.963 35.2453H69.1936C70.1643 35.2453 70.823 35.176 71.2043 35.0373C71.5856 34.8986 71.8803 34.6733 72.0883 34.344C72.2963 34.032 72.4176 33.6333 72.4176 33.1826C72.4176 32.4026 72.1056 31.8306 71.499 31.4666C71.0656 31.2066 70.2336 31.068 69.0377 31.068H67.9457V35.228L67.963 35.2453Z" fill="black"/>
<path d="M90.9464 26.7871C93.8237 26.7871 96.285 27.8271 98.3477 29.9071C100.41 31.9871 101.45 34.5178 101.45 37.5164C101.45 40.5151 100.428 42.9937 98.3997 45.0391C96.3544 47.0844 93.893 48.1244 90.981 48.1244C88.069 48.1244 85.3997 47.0671 83.389 44.9697C81.3784 42.8551 80.373 40.3591 80.373 37.4644C80.373 35.5231 80.841 33.7378 81.777 32.1084C82.713 30.4791 84.013 29.1964 85.6424 28.2431C87.289 27.2898 89.057 26.8218 90.9464 26.8218V26.7871ZM90.8944 30.5831C89.0224 30.5831 87.445 31.2418 86.1624 32.5418C84.8797 33.8418 84.2384 35.5058 84.2384 37.5164C84.2384 39.7697 85.053 41.5377 86.6477 42.8377C87.8957 43.8604 89.3344 44.3631 90.9637 44.3631C92.801 44.3631 94.361 43.7044 95.6437 42.3697C96.9263 41.0524 97.585 39.4057 97.585 37.4644C97.585 35.5231 96.9437 33.8938 95.6437 32.5591C94.3437 31.2244 92.7664 30.5484 90.9117 30.5484L90.8944 30.5831Z" fill="black"/>
<path d="M106.529 27.3066H110.429V34.3093L115.941 27.3066H120.587L113.497 36.372L121.28 47.6039H116.704L110.447 38.5906V47.6039H106.547V27.3066H106.529Z" fill="black"/>
<path d="M125.457 27.3066H136.533V31.0853H129.288V34.76H136.533V38.4693H129.288V43.8079H136.533V47.6039H125.457V27.3066Z" fill="black"/>
<path d="M141.82 27.3066H145.911C148.147 27.3066 149.741 27.5146 150.695 27.9133C151.648 28.312 152.411 28.9706 152.983 29.9066C153.555 30.8426 153.849 31.9346 153.849 33.2C153.849 34.5346 153.537 35.644 152.896 36.5453C152.255 37.4466 151.301 38.1226 150.001 38.5733L154.803 47.6039H150.573L146.015 39.0066H145.668V47.6039H141.803V27.3066H141.82ZM145.685 35.2453H146.899C148.129 35.2453 148.979 35.0893 149.429 34.76C149.88 34.4306 150.123 33.8933 150.123 33.148C150.123 32.6973 150.001 32.316 149.776 31.9866C149.551 31.6573 149.239 31.4146 148.857 31.276C148.476 31.1373 147.765 31.068 146.743 31.068H145.685V35.228V35.2453Z" fill="black"/>
</svg>
