<svg width="14" height="13" viewBox="0 0 14 13" fill="none" xmlns="http://www.w3.org/2000/svg">
<g clip-path="url(#clip0_30162_10638)">
<path d="M4.57715 2.09766L7.07812 5.4043L7.41992 5.85547L7.79297 5.42969L10.708 2.09766H11.335L7.95703 5.95898L7.70996 6.24121L7.93652 6.54004L12.1377 12.0957H9.56445L6.7832 8.45898L6.44141 8.01172L6.07031 8.43555L2.86719 12.0957H2.23926L5.89844 7.91309L6.14746 7.62891L5.91797 7.3291L1.91699 2.09766H4.57715ZM2.78125 2.96777L9.48242 11.7275L9.62109 11.9092H11.8018L11.2432 11.1699L4.61719 2.40918L4.47852 2.22656H2.21484L2.78125 2.96777Z" fill="#040447" stroke="white" stroke-width="0.921856"/>
</g>
<defs>
<clipPath id="clip0_30162_10638">
<rect width="14" height="12.6" fill="white" transform="translate(0 0.375)"/>
</clipPath>
</defs>
</svg>
