<svg width="24" height="25" viewBox="0 0 24 25" fill="none" xmlns="http://www.w3.org/2000/svg">
<g clip-path="url(#clip0_30158_9972)">
<path d="M12 24.0742C18.6274 24.0742 24 18.7016 24 12.0742C24 5.4468 18.6274 0.0742188 12 0.0742188C5.37258 0.0742188 0 5.4468 0 12.0742C0 18.7016 5.37258 24.0742 12 24.0742Z" fill="#F0F0F0"/>
<path d="M2.4813 4.76953C1.53869 5.99592 0.827922 7.40944 0.414062 8.94502H6.65678L2.4813 4.76953Z" fill="#0052B4"/>
<path d="M23.5864 8.94497C23.1725 7.40944 22.4617 5.99592 21.5191 4.76953L17.3438 8.94497H23.5864Z" fill="#0052B4"/>
<path d="M0.414062 15.207C0.827969 16.7426 1.53873 18.1561 2.4813 19.3824L6.65664 15.207H0.414062Z" fill="#0052B4"/>
<path d="M19.3082 2.55556C18.0819 1.61295 16.6684 0.902187 15.1328 0.488281V6.73095L19.3082 2.55556Z" fill="#0052B4"/>
<path d="M4.69531 21.5933C5.9217 22.5359 7.33522 23.2467 8.87075 23.6606V17.418L4.69531 21.5933Z" fill="#0052B4"/>
<path d="M8.8707 0.488281C7.33517 0.902187 5.92166 1.61295 4.69531 2.55552L8.8707 6.73091V0.488281Z" fill="#0052B4"/>
<path d="M15.1328 23.6606C16.6683 23.2467 18.0819 22.5359 19.3082 21.5934L15.1328 17.418V23.6606Z" fill="#0052B4"/>
<path d="M17.3438 15.207L21.5191 19.3825C22.4617 18.1561 23.1725 16.7426 23.5864 15.207H17.3438Z" fill="#0052B4"/>
<path d="M23.8984 10.509H13.5653H13.5653V0.175797C13.0529 0.109094 12.5305 0.0742188 12 0.0742188C11.4694 0.0742188 10.9471 0.109094 10.4348 0.175797V10.5089V10.509H0.101578C0.034875 11.0214 0 11.5437 0 12.0742C0 12.6048 0.034875 13.1271 0.101578 13.6394H10.4347H10.4347V23.9726C10.9471 24.0393 11.4694 24.0742 12 24.0742C12.5305 24.0742 13.0529 24.0394 13.5652 23.9726V13.6395V13.6395H23.8984C23.9651 13.1271 24 12.6048 24 12.0742C24 11.5437 23.9651 11.0214 23.8984 10.509Z" fill="#D80027"/>
<path d="M15.1328 15.2032L20.4876 20.558C20.7339 20.3118 20.9688 20.0544 21.193 19.7876L16.6085 15.2031H15.1328V15.2032Z" fill="#D80027"/>
<path d="M8.87048 15.2031H8.87039L3.51562 20.5579C3.76181 20.8042 4.0192 21.0391 4.28602 21.2633L8.87048 16.6787V15.2031Z" fill="#D80027"/>
<path d="M8.87269 8.9448V8.9447L3.51788 3.58984C3.27159 3.83603 3.03666 4.09342 2.8125 4.36023L7.39702 8.94475H8.87269V8.9448Z" fill="#D80027"/>
<path d="M15.1328 8.94305L20.4877 3.58814C20.2415 3.34186 19.9841 3.10692 19.7173 2.88281L15.1328 7.46733V8.94305Z" fill="#D80027"/>
</g>
<defs>
<clipPath id="clip0_30158_9972">
<rect width="24" height="24" fill="white" transform="translate(0 0.0742188)"/>
</clipPath>
</defs>
</svg>
