<svg width="24" height="24" viewBox="0 0 24 24" fill="none" xmlns="http://www.w3.org/2000/svg">
<g clip-path="url(#clip0_30540_33295)">
<path d="M5.34549 2.0385C5.40709 1.9797 5.47149 1.9237 5.5415 1.87329C7.42319 0.652433 9.5933 0 12.0014 0C14.2527 0 16.364 0.624431 18.1617 1.70529C18.2933 1.78089 18.6518 2.0273 18.8338 2.24851C17.0949 0.333217 11.9874 4.44662 11.9874 4.44662C10.2233 3.08295 8.59645 2.15611 7.38959 1.82289C6.37594 1.54568 5.6787 1.77809 5.34549 2.0385ZM20.7995 3.84739C20.7491 3.78859 20.6903 3.73539 20.6371 3.67378C20.2002 3.19216 19.6598 3.07735 19.1726 3.10536C18.7274 3.24816 16.6805 3.9846 14.1575 6.36752C14.1575 6.36752 16.9969 9.12846 18.7386 11.9538C20.4774 14.7763 21.5163 16.9969 20.8779 20.0742C22.8884 17.8649 24.0028 14.9864 23.9972 11.9986C23.9972 8.85404 22.7876 5.9867 20.7995 3.84739ZM16.4648 13.1579C15.3588 11.9202 14.2135 10.7161 13.0347 9.54848C12.7043 9.22086 12.3542 8.87644 11.9846 8.52083C11.9846 8.52083 11.4302 9.07525 10.7134 9.80329V9.80049C9.79211 10.7329 8.59645 11.9454 7.93282 12.6566C6.75116 13.9167 3.36579 17.8733 3.17818 20.0938C3.17818 20.0938 2.42494 18.3353 4.07702 14.2751C5.15508 11.6178 8.41724 7.63598 9.77811 6.33672C9.77811 6.33672 8.53205 4.97025 6.97237 4.0238L6.96117 4.021C6.96117 4.021 6.94157 4.007 6.91917 3.993C6.16873 3.54498 5.34549 3.19776 4.55865 3.15016C3.75501 3.20896 3.24258 3.79979 3.24258 3.79979C1.15648 6.0147 -0.00558013 8.95205 2.01483e-05 12.0014C2.01483e-05 18.6293 5.37069 24 12.0014 24C15.5184 24 18.6798 22.4851 20.8779 20.0714C20.8779 20.0686 20.6259 18.4865 19.013 16.2156C18.6294 15.6864 17.2461 14.0287 16.4648 13.1579Z" fill="white"/>
</g>
<defs>
<clipPath id="clip0_30540_33295">
<rect width="23.9972" height="24" fill="white"/>
</clipPath>
</defs>
</svg>
