<svg width="20" height="20" viewBox="0 0 20 20" fill="none" xmlns="http://www.w3.org/2000/svg">
<path fill-rule="evenodd" clip-rule="evenodd" d="M17 20C18.6569 20 20 18.6569 20 17V3C20 1.34315 18.6569 0 17 0H3C1.34315 0 0 1.34315 0 3V17C0 18.6569 1.34315 20 3 20H17ZM6 3C7.10457 3 8 3.89543 8 5C8 6.10457 7.10457 7 6 7C4.89543 7 4 6.10457 4 5C4 3.89543 4.89543 3 6 3ZM16 5C16 3.89543 15.1046 3 14 3C12.8954 3 12 3.89543 12 5C12 6.10457 12.8954 7 14 7C15.1046 7 16 6.10457 16 5ZM6 8C7.10457 8 8 8.8954 8 10C8 11.1046 7.10457 12 6 12C4.89543 12 4 11.1046 4 10C4 8.8954 4.89543 8 6 8ZM16 10C16 8.8954 15.1046 8 14 8C12.8954 8 12 8.8954 12 10C12 11.1046 12.8954 12 14 12C15.1046 12 16 11.1046 16 10ZM6 13C7.10457 13 8 13.8954 8 15C8 16.1046 7.10457 17 6 17C4.89543 17 4 16.1046 4 15C4 13.8954 4.89543 13 6 13ZM16 15C16 13.8954 15.1046 13 14 13C12.8954 13 12 13.8954 12 15C12 16.1046 12.8954 17 14 17C15.1046 17 16 16.1046 16 15Z" fill="white"/>
</svg>
