<svg width="24" height="17" viewBox="0 0 24 17" fill="none" xmlns="http://www.w3.org/2000/svg">
<path d="M17.3178 3.52092V12.9786C17.3178 13.1671 17.3692 13.3127 17.472 13.4155C17.5748 13.5012 17.7376 13.544 17.9603 13.544H18.6286V16.4995H16.5982C15.2276 16.4995 14.251 16.2082 13.6684 15.6257C13.103 15.0432 12.8203 14.2722 12.8203 13.3127V3.18682C12.8203 2.22735 13.103 1.45634 13.6684 0.873805C14.251 0.291268 15.2276 0 16.5982 0H18.6286V2.95552H17.9603C17.7376 2.95552 17.5748 3.00692 17.472 3.10972C17.3692 3.19539 17.3178 3.33246 17.3178 3.52092ZM19.5024 6.16804V3.52092C19.5024 3.33246 19.451 3.19539 19.3482 3.10972C19.2454 3.00692 19.0826 2.95552 18.8599 2.95552H18.1916V0H20.222C21.5926 0 22.5607 0.291268 23.1261 0.873805C23.7086 1.45634 23.9999 2.22735 23.9999 3.18682V6.16804H19.5024ZM19.5024 12.9786V10.4343H23.9999V13.3127C23.9999 14.2722 23.7086 15.0432 23.1261 15.6257C22.5607 16.2082 21.5926 16.4995 20.222 16.4995H18.1916V13.544H18.8599C19.0826 13.544 19.2454 13.5012 19.3482 13.4155C19.451 13.3127 19.5024 13.1671 19.5024 12.9786Z" fill="white"/>
<path d="M6.91335 7.32455V3.77793C6.91335 3.58946 6.86195 3.45239 6.75915 3.36672C6.65635 3.26392 6.49358 3.21252 6.27084 3.21252H1.49061V0H7.63295C9.00363 0 9.97167 0.291268 10.5371 0.873805C11.1196 1.45634 11.4109 2.22735 11.4109 3.18682V7.91566C11.4109 8.87513 11.1196 9.64613 10.5371 10.2287C9.97167 10.8112 9.00363 11.1025 7.63295 11.1025H1.49061V7.88995H6.27084C6.49358 7.88995 6.65635 7.84712 6.75915 7.76145C6.86195 7.65865 6.91335 7.51302 6.91335 7.32455ZM0 0H4.49753V16.4995H0V0Z" fill="white"/>
</svg>
