<svg width="31" height="24" viewBox="0 0 31 24" fill="none" xmlns="http://www.w3.org/2000/svg">
<path d="M0.62714 17.4968C-0.534151 18.271 -0.147054 19.7419 2.33037 20.4387C4.8852 21.2903 7.6723 21.5226 10.382 21.0581C10.5368 21.0581 10.6917 20.9806 10.7691 20.9806V18.3484L8.13682 19.2C7.13037 19.5097 6.12391 19.5871 5.11746 19.3548C4.34327 19.1226 4.49811 18.6581 5.42714 18.271L10.7691 16.4129V13.5484L3.33682 16.1032C2.40778 16.4129 1.47875 16.8774 0.62714 17.4968ZM18.5884 5.88387V13.3935C21.7626 14.9419 24.24 13.3935 24.24 9.36774C24.24 5.26452 22.7691 3.40645 18.511 1.93548C16.2658 1.16129 13.9433 0.464516 11.6207 0V22.3742L17.04 24V5.1871C17.04 4.33548 17.04 3.71613 17.6594 3.94839C18.511 4.18065 18.5884 5.03226 18.5884 5.88387ZM28.6529 15.7161C26.4078 14.9419 24.0078 14.6323 21.6852 14.8645C20.4465 14.9419 19.2852 15.2516 18.2013 15.6387L17.9691 15.7161V18.7355L23.0013 16.8774C24.0078 16.5677 25.0142 16.4903 26.0207 16.7226C26.7949 16.9548 26.64 17.4194 25.711 17.8065L17.9691 20.671V23.6129L28.6529 19.6645C29.4271 19.3548 30.1239 18.9677 30.7433 18.3484C31.2852 17.5742 31.0529 16.4903 28.6529 15.7161Z" fill="white"/>
</svg>
